<ttFont>
    <TTGlyph name="A" xMin="8" yMin="0" xMax="628" yMax="732">
      <contour>
        <pt x="422" y="675" on="1"/>
        <pt x="420" y="681" on="0"/>
        <pt x="418" y="694" on="0"/>
        <pt x="416" y="700" on="1"/>
        <pt x="413" y="694" on="0"/>
        <pt x="407" y="681" on="0"/>
        <pt x="404" y="675" on="1"/>
        <pt x="358" y="587" on="0"/>
        <pt x="259" y="417" on="0"/>
        <pt x="209" y="330" on="1"/>
        <pt x="519" y="330" on="1"/>
        <pt x="495" y="417" on="0"/>
        <pt x="447" y="588" on="0"/>
      </contour>
      <contour>
        <pt x="628" y="0" on="1"/>
        <pt x="613" y="0" on="1"/>
        <pt x="590" y="79" on="0"/>
        <pt x="546" y="237" on="0"/>
        <pt x="523" y="316" on="1"/>
        <pt x="201" y="316" on="1"/>
        <pt x="156" y="237" on="0"/>
        <pt x="68" y="79" on="0"/>
        <pt x="23" y="0" on="1"/>
        <pt x="8" y="0" on="1"/>
        <pt x="111" y="184" on="0"/>
        <pt x="318" y="548" on="0"/>
        <pt x="421" y="732" on="1"/>
      </contour>
    </TTGlyph>
    <TTGlyph name="AE" xMin="10" yMin="0" xMax="729" yMax="700">
      <contour>
        <pt x="353" y="330" on="1"/>
        <pt x="400" y="666" on="1"/>
        <pt x="355" y="580" on="0"/>
        <pt x="259" y="415" on="0"/>
        <pt x="212" y="330" on="1"/>
      </contour>
      <contour>
        <pt x="10" y="0" on="1"/>
        <pt x="110" y="176" on="0"/>
        <pt x="305" y="524" on="0"/>
        <pt x="405" y="700" on="1"/>
        <pt x="729" y="700" on="1"/>
        <pt x="727" y="686" on="1"/>
        <pt x="417" y="686" on="1"/>
        <pt x="371" y="360" on="1"/>
        <pt x="642" y="360" on="1"/>
        <pt x="640" y="346" on="1"/>
        <pt x="369" y="346" on="1"/>
        <pt x="322" y="14" on="1"/>
        <pt x="646" y="14" on="1"/>
        <pt x="644" y="0" on="1"/>
        <pt x="306" y="0" on="1"/>
        <pt x="351" y="316" on="1"/>
        <pt x="204" y="316" on="1"/>
        <pt x="159" y="237" on="0"/>
        <pt x="70" y="79" on="0"/>
        <pt x="25" y="0" on="1"/>
      </contour>
    </TTGlyph>
    <TTGlyph name="Aacute" xMin="8" yMin="0" xMax="628" yMax="883">
      <component glyphName="A" x="0" y="0" flags="0x204"/>
      <component glyphName="acute" x="324" y="271" flags="0x4"/>
    </TTGlyph>
    <TTGlyph name="Acircumflex" xMin="8" yMin="0" xMax="628" yMax="931">
      <component glyphName="A" x="0" y="0" flags="0x204"/>
      <component glyphName="asciicircum" x="204" y="271" flags="0x4"/>
    </TTGlyph>
    <TTGlyph name="Adieresis" xMin="8" yMin="0" xMax="628" yMax="810">
      <component glyphName="A" x="0" y="0" flags="0x204"/>
      <component glyphName="dieresis" x="245" y="290" flags="0x4"/>
    </TTGlyph>
    <TTGlyph name="Agrave" xMin="8" yMin="0" xMax="628" yMax="883">
      <component glyphName="A" x="0" y="0" flags="0x204"/>
      <component glyphName="grave" x="349" y="271" flags="0x4"/>
    </TTGlyph>
    <TTGlyph name="Aring" xMin="8" yMin="0" xMax="628" yMax="897">
      <contour>
        <pt x="391" y="834" on="1"/>
        <pt x="388" y="814" on="0"/>
        <pt x="413" y="785" on="0"/>
        <pt x="433" y="785" on="1"/>
        <pt x="453" y="785" on="0"/>
        <pt x="486" y="814" on="0"/>
        <pt x="489" y="834" on="1"/>
        <pt x="491" y="854" on="0"/>
        <pt x="466" y="883" on="0"/>
        <pt x="446" y="883" on="1"/>
        <pt x="426" y="883" on="0"/>
        <pt x="393" y="854" on="0"/>
      </contour>
      <contour>
        <pt x="377" y="834" on="1"/>
        <pt x="381" y="861" on="0"/>
        <pt x="421" y="897" on="0"/>
        <pt x="448" y="897" on="1"/>
        <pt x="475" y="897" on="0"/>
        <pt x="507" y="861" on="0"/>
        <pt x="503" y="834" on="1"/>
        <pt x="498" y="807" on="0"/>
        <pt x="458" y="771" on="0"/>
        <pt x="431" y="771" on="1"/>
        <pt x="404" y="771" on="0"/>
        <pt x="372" y="807" on="0"/>
      </contour>
      <contour>
        <pt x="422" y="675" on="1"/>
        <pt x="420" y="681" on="0"/>
        <pt x="418" y="694" on="0"/>
        <pt x="416" y="700" on="1"/>
        <pt x="413" y="694" on="0"/>
        <pt x="407" y="681" on="0"/>
        <pt x="404" y="675" on="1"/>
        <pt x="358" y="587" on="0"/>
        <pt x="259" y="417" on="0"/>
        <pt x="209" y="330" on="1"/>
        <pt x="519" y="330" on="1"/>
        <pt x="495" y="417" on="0"/>
        <pt x="447" y="588" on="0"/>
      </contour>
      <contour>
        <pt x="628" y="0" on="1"/>
        <pt x="613" y="0" on="1"/>
        <pt x="590" y="79" on="0"/>
        <pt x="546" y="237" on="0"/>
        <pt x="523" y="316" on="1"/>
        <pt x="201" y="316" on="1"/>
        <pt x="156" y="237" on="0"/>
        <pt x="68" y="79" on="0"/>
        <pt x="23" y="0" on="1"/>
        <pt x="8" y="0" on="1"/>
        <pt x="111" y="184" on="0"/>
        <pt x="318" y="548" on="0"/>
        <pt x="421" y="732" on="1"/>
      </contour>
    </TTGlyph>
    <TTGlyph name="Atilde" xMin="8" yMin="0" xMax="628" yMax="829">
      <component glyphName="A" x="0" y="0" flags="0x204"/>
      <component glyphName="asciitilde" x="156" y="288" flags="0x4"/>
    </TTGlyph>
    <TTGlyph name="B" xMin="34" yMin="0" xMax="463" yMax="700">
      <contour>
        <pt x="145" y="686" on="1"/>
        <pt x="99" y="358" on="1"/>
        <pt x="246" y="358" on="1"/>
        <pt x="286" y="358" on="0"/>
        <pt x="353" y="383" on="0"/>
        <pt x="404" y="428" on="0"/>
        <pt x="437" y="490" on="0"/>
        <pt x="443" y="528" on="1"/>
        <pt x="449" y="570" on="0"/>
        <pt x="431" y="630" on="0"/>
        <pt x="389" y="668" on="0"/>
        <pt x="327" y="686" on="0"/>
        <pt x="288" y="686" on="1"/>
      </contour>
      <contour>
        <pt x="97" y="344" on="1"/>
        <pt x="50" y="14" on="1"/>
        <pt x="198" y="14" on="1"/>
        <pt x="238" y="14" on="0"/>
        <pt x="314" y="34" on="0"/>
        <pt x="374" y="75" on="0"/>
        <pt x="414" y="136" on="0"/>
        <pt x="420" y="177" on="1"/>
        <pt x="425" y="218" on="0"/>
        <pt x="406" y="274" on="0"/>
        <pt x="369" y="311" on="0"/>
        <pt x="321" y="332" on="0"/>
        <pt x="274" y="342" on="0"/>
        <pt x="235" y="344" on="0"/>
        <pt x="226" y="344" on="1"/>
      </contour>
      <contour>
        <pt x="34" y="0" on="1"/>
        <pt x="133" y="700" on="1"/>
        <pt x="278" y="700" on="1"/>
        <pt x="323" y="700" on="0"/>
        <pt x="395" y="680" on="0"/>
        <pt x="443" y="638" on="0"/>
        <pt x="463" y="571" on="0"/>
        <pt x="456" y="525" on="1"/>
        <pt x="448" y="463" on="0"/>
        <pt x="372" y="369" on="0"/>
        <pt x="305" y="352" on="1"/>
        <pt x="334" y="346" on="0"/>
        <pt x="386" y="318" on="0"/>
        <pt x="422" y="274" on="0"/>
        <pt x="440" y="216" on="0"/>
        <pt x="435" y="180" on="1"/>
        <pt x="429" y="135" on="0"/>
        <pt x="383" y="68" on="0"/>
        <pt x="318" y="23" on="0"/>
        <pt x="238" y="0" on="0"/>
        <pt x="197" y="0" on="1"/>
      </contour>
    </TTGlyph>
    <TTGlyph name="C" xMin="51" yMin="-8" xMax="645" yMax="708">
      <contour>
        <pt x="550" y="54" on="1"/>
        <pt x="557" y="42" on="1"/>
        <pt x="514" y="19" on="0"/>
        <pt x="419" y="-8" on="0"/>
        <pt x="368" y="-8" on="1"/>
        <pt x="294" y="-8" on="0"/>
        <pt x="172" y="48" on="0"/>
        <pt x="89" y="145" on="0"/>
        <pt x="51" y="275" on="0"/>
        <pt x="61" y="349" on="1"/>
        <pt x="71" y="423" on="0"/>
        <pt x="146" y="554" on="0"/>
        <pt x="257" y="651" on="0"/>
        <pt x="395" y="708" on="0"/>
        <pt x="469" y="708" on="1"/>
        <pt x="520" y="708" on="0"/>
        <pt x="607" y="682" on="0"/>
        <pt x="645" y="658" on="1"/>
        <pt x="642" y="655" on="0"/>
        <pt x="638" y="649" on="0"/>
        <pt x="635" y="646" on="1"/>
        <pt x="600" y="669" on="0"/>
        <pt x="515" y="694" on="0"/>
        <pt x="467" y="694" on="1"/>
        <pt x="396" y="694" on="0"/>
        <pt x="263" y="639" on="0"/>
        <pt x="157" y="545" on="0"/>
        <pt x="85" y="419" on="0"/>
        <pt x="75" y="348" on="1"/>
        <pt x="65" y="277" on="0"/>
        <pt x="101" y="153" on="0"/>
        <pt x="181" y="60" on="0"/>
        <pt x="297" y="6" on="0"/>
        <pt x="367" y="6" on="1"/>
        <pt x="415" y="6" on="0"/>
        <pt x="508" y="31" on="0"/>
      </contour>
    </TTGlyph>
    <TTGlyph name="Ccedilla" xMin="66" yMin="-223" xMax="660" yMax="708">
      <contour>
        <pt x="565" y="54" on="1"/>
        <pt x="572" y="42" on="1"/>
        <pt x="529" y="19" on="0"/>
        <pt x="434" y="-8" on="0"/>
        <pt x="383" y="-8" on="1"/>
        <pt x="381" y="-33" on="0"/>
        <pt x="405" y="-53" on="0"/>
        <pt x="417" y="-61" on="1"/>
        <pt x="437" y="-76" on="0"/>
        <pt x="452" y="-113" on="0"/>
        <pt x="450" y="-127" on="1"/>
        <pt x="442" y="-178" on="0"/>
        <pt x="385" y="-223" on="0"/>
        <pt x="352" y="-223" on="1"/>
        <pt x="326" y="-223" on="0"/>
        <pt x="285" y="-194" on="0"/>
        <pt x="279" y="-165" on="1"/>
        <pt x="283" y="-164" on="0"/>
        <pt x="291" y="-162" on="0"/>
        <pt x="295" y="-161" on="1"/>
        <pt x="298" y="-182" on="0"/>
        <pt x="329" y="-209" on="0"/>
        <pt x="354" y="-209" on="1"/>
        <pt x="385" y="-209" on="0"/>
        <pt x="429" y="-168" on="0"/>
        <pt x="434" y="-137" on="1"/>
        <pt x="438" y="-109" on="0"/>
        <pt x="417" y="-79" on="0"/>
        <pt x="388" y="-58" on="0"/>
        <pt x="365" y="-36" on="0"/>
        <pt x="368" y="-16" on="1"/>
        <pt x="369" y="-7" on="1"/>
        <pt x="298" y="-4" on="0"/>
        <pt x="181" y="53" on="0"/>
        <pt x="101" y="149" on="0"/>
        <pt x="66" y="277" on="0"/>
        <pt x="76" y="349" on="1"/>
        <pt x="86" y="423" on="0"/>
        <pt x="161" y="554" on="0"/>
        <pt x="272" y="651" on="0"/>
        <pt x="410" y="708" on="0"/>
        <pt x="484" y="708" on="1"/>
        <pt x="535" y="708" on="0"/>
        <pt x="622" y="682" on="0"/>
        <pt x="660" y="658" on="1"/>
        <pt x="657" y="655" on="0"/>
        <pt x="653" y="649" on="0"/>
        <pt x="650" y="646" on="1"/>
        <pt x="579" y="694" on="0"/>
        <pt x="482" y="694" on="1"/>
        <pt x="411" y="694" on="0"/>
        <pt x="278" y="639" on="0"/>
        <pt x="172" y="545" on="0"/>
        <pt x="100" y="419" on="0"/>
        <pt x="90" y="348" on="1"/>
        <pt x="80" y="277" on="0"/>
        <pt x="116" y="153" on="0"/>
        <pt x="196" y="60" on="0"/>
        <pt x="312" y="6" on="0"/>
        <pt x="382" y="6" on="1"/>
        <pt x="430" y="6" on="0"/>
        <pt x="523" y="31" on="0"/>
      </contour>
    </TTGlyph>
    <TTGlyph name="D" xMin="36" yMin="0" xMax="586" yMax="700">
      <contour>
        <pt x="135" y="700" on="1"/>
        <pt x="272" y="700" on="1"/>
        <pt x="344" y="700" on="0"/>
        <pt x="465" y="651" on="0"/>
        <pt x="548" y="560" on="0"/>
        <pt x="586" y="430" on="0"/>
        <pt x="575" y="350" on="1"/>
        <pt x="566" y="287" on="0"/>
        <pt x="510" y="162" on="0"/>
        <pt x="405" y="62" on="0"/>
        <pt x="248" y="0" on="0"/>
        <pt x="139" y="0" on="1"/>
        <pt x="36" y="0" on="1"/>
      </contour>
      <contour>
        <pt x="147" y="686" on="1"/>
        <pt x="123" y="517" on="0"/>
        <pt x="76" y="184" on="0"/>
        <pt x="52" y="15" on="1"/>
        <pt x="150" y="15" on="1"/>
        <pt x="252" y="15" on="0"/>
        <pt x="400" y="76" on="0"/>
        <pt x="499" y="172" on="0"/>
        <pt x="554" y="291" on="0"/>
        <pt x="562" y="350" on="1"/>
        <pt x="572" y="427" on="0"/>
        <pt x="536" y="552" on="0"/>
        <pt x="458" y="639" on="0"/>
        <pt x="343" y="686" on="0"/>
        <pt x="276" y="686" on="1"/>
      </contour>
    </TTGlyph>
    <TTGlyph name="E" xMin="45" yMin="0" xMax="549" yMax="700">
      <contour>
        <pt x="45" y="0" on="1"/>
        <pt x="144" y="700" on="1"/>
        <pt x="549" y="700" on="1"/>
        <pt x="547" y="686" on="1"/>
        <pt x="156" y="686" on="1"/>
        <pt x="110" y="360" on="1"/>
        <pt x="462" y="360" on="1"/>
        <pt x="460" y="346" on="1"/>
        <pt x="108" y="346" on="1"/>
        <pt x="61" y="14" on="1"/>
        <pt x="466" y="14" on="1"/>
        <pt x="464" y="0" on="1"/>
      </contour>
    </TTGlyph>
    <TTGlyph name="Eacute" xMin="45" yMin="0" xMax="549" yMax="883">
      <component glyphName="E" x="0" y="0" flags="0x204"/>
      <component glyphName="acute" x="231" y="271" flags="0x4"/>
    </TTGlyph>
    <TTGlyph name="Ecircumflex" xMin="45" yMin="0" xMax="549" yMax="931">
      <component glyphName="E" x="0" y="0" flags="0x204"/>
      <component glyphName="asciicircum" x="144" y="271" flags="0x4"/>
    </TTGlyph>
    <TTGlyph name="Edieresis" xMin="45" yMin="0" xMax="549" yMax="810">
      <component glyphName="E" x="0" y="0" flags="0x204"/>
      <component glyphName="dieresis" x="173" y="290" flags="0x4"/>
    </TTGlyph>
    <TTGlyph name="Egrave" xMin="45" yMin="0" xMax="549" yMax="883">
      <component glyphName="E" x="0" y="0" flags="0x204"/>
      <component glyphName="grave" x="266" y="271" flags="0x4"/>
    </TTGlyph>
    <TTGlyph name="Eth" xMin="21" yMin="0" xMax="586" yMax="700">
      <contour>
        <pt x="99" y="346" on="1"/>
        <pt x="52" y="14" on="1"/>
        <pt x="152" y="14" on="1"/>
        <pt x="231" y="14" on="0"/>
        <pt x="371" y="60" on="0"/>
        <pt x="480" y="146" on="0"/>
        <pt x="551" y="271" on="0"/>
        <pt x="562" y="350" on="1"/>
        <pt x="572" y="427" on="0"/>
        <pt x="538" y="552" on="0"/>
        <pt x="456" y="639" on="0"/>
        <pt x="329" y="686" on="0"/>
        <pt x="247" y="686" on="1"/>
        <pt x="147" y="686" on="1"/>
        <pt x="101" y="360" on="1"/>
        <pt x="325" y="360" on="1"/>
        <pt x="323" y="346" on="1"/>
      </contour>
      <contour>
        <pt x="87" y="360" on="1"/>
        <pt x="135" y="700" on="1"/>
        <pt x="272" y="700" on="1"/>
        <pt x="344" y="700" on="0"/>
        <pt x="465" y="651" on="0"/>
        <pt x="548" y="560" on="0"/>
        <pt x="586" y="430" on="0"/>
        <pt x="575" y="350" on="1"/>
        <pt x="566" y="287" on="0"/>
        <pt x="510" y="162" on="0"/>
        <pt x="405" y="62" on="0"/>
        <pt x="248" y="0" on="0"/>
        <pt x="139" y="0" on="1"/>
        <pt x="36" y="0" on="1"/>
        <pt x="85" y="346" on="1"/>
        <pt x="21" y="346" on="1"/>
        <pt x="23" y="360" on="1"/>
      </contour>
    </TTGlyph>
    <TTGlyph name="F" xMin="45" yMin="0" xMax="549" yMax="700">
      <contour>
        <pt x="45" y="0" on="1"/>
        <pt x="144" y="700" on="1"/>
        <pt x="549" y="700" on="1"/>
        <pt x="547" y="686" on="1"/>
        <pt x="156" y="686" on="1"/>
        <pt x="110" y="360" on="1"/>
        <pt x="462" y="360" on="1"/>
        <pt x="460" y="346" on="1"/>
        <pt x="108" y="346" on="1"/>
        <pt x="59" y="0" on="1"/>
      </contour>
    </TTGlyph>
    <TTGlyph name="G" xMin="51" yMin="-8" xMax="645" yMax="708">
      <contour>
        <pt x="406" y="286" on="1"/>
        <pt x="407" y="300" on="1"/>
        <pt x="535" y="300" on="1"/>
        <pt x="566" y="300" on="0"/>
        <pt x="591" y="284" on="0"/>
        <pt x="587" y="255" on="1"/>
        <pt x="557" y="42" on="1"/>
        <pt x="514" y="19" on="0"/>
        <pt x="419" y="-8" on="0"/>
        <pt x="368" y="-8" on="1"/>
        <pt x="294" y="-8" on="0"/>
        <pt x="172" y="48" on="0"/>
        <pt x="89" y="145" on="0"/>
        <pt x="51" y="275" on="0"/>
        <pt x="61" y="349" on="1"/>
        <pt x="71" y="423" on="0"/>
        <pt x="146" y="554" on="0"/>
        <pt x="257" y="651" on="0"/>
        <pt x="395" y="708" on="0"/>
        <pt x="469" y="708" on="1"/>
        <pt x="520" y="708" on="0"/>
        <pt x="607" y="682" on="0"/>
        <pt x="645" y="658" on="1"/>
        <pt x="642" y="655" on="0"/>
        <pt x="638" y="649" on="0"/>
        <pt x="635" y="646" on="1"/>
        <pt x="600" y="669" on="0"/>
        <pt x="515" y="694" on="0"/>
        <pt x="467" y="694" on="1"/>
        <pt x="396" y="694" on="0"/>
        <pt x="263" y="639" on="0"/>
        <pt x="157" y="545" on="0"/>
        <pt x="85" y="419" on="0"/>
        <pt x="75" y="348" on="1"/>
        <pt x="65" y="277" on="0"/>
        <pt x="101" y="153" on="0"/>
        <pt x="181" y="60" on="0"/>
        <pt x="297" y="6" on="0"/>
        <pt x="367" y="6" on="1"/>
        <pt x="414" y="6" on="0"/>
        <pt x="502" y="29" on="0"/>
        <pt x="544" y="51" on="1"/>
        <pt x="564" y="192" on="1"/>
        <pt x="574" y="263" on="1"/>
        <pt x="576" y="272" on="0"/>
        <pt x="565" y="286" on="0"/>
        <pt x="548" y="286" on="1"/>
      </contour>
    </TTGlyph>
    <TTGlyph name="H" xMin="54" yMin="0" xMax="649" yMax="700">
      <contour>
        <pt x="54" y="0" on="1"/>
        <pt x="153" y="700" on="1"/>
        <pt x="167" y="700" on="1"/>
        <pt x="119" y="360" on="1"/>
        <pt x="583" y="360" on="1"/>
        <pt x="631" y="700" on="1"/>
        <pt x="649" y="700" on="1"/>
        <pt x="623" y="524" on="0"/>
        <pt x="572" y="176" on="0"/>
        <pt x="546" y="0" on="1"/>
        <pt x="532" y="0" on="1"/>
        <pt x="581" y="346" on="1"/>
        <pt x="117" y="346" on="1"/>
        <pt x="68" y="0" on="1"/>
      </contour>
    </TTGlyph>
    <TTGlyph name="I" xMin="57" yMin="0" xMax="170" yMax="700">
      <contour>
        <pt x="156" y="700" on="1"/>
        <pt x="170" y="700" on="1"/>
        <pt x="71" y="0" on="1"/>
        <pt x="57" y="0" on="1"/>
      </contour>
    </TTGlyph>
    <TTGlyph name="Iacute" xMin="57" yMin="0" xMax="281" yMax="883">
      <component glyphName="I" x="0" y="0" flags="0x4"/>
      <component glyphName="acute" x="66" y="271" flags="0x4"/>
    </TTGlyph>
    <TTGlyph name="Icircumflex" xMin="51" yMin="0" xMax="291" yMax="931">
      <component glyphName="I" x="0" y="0" flags="0x4"/>
      <component glyphName="asciicircum" x="-48" y="271" flags="0x4"/>
    </TTGlyph>
    <TTGlyph name="Idieresis" xMin="57" yMin="0" xMax="270" yMax="810">
      <component glyphName="I" x="0" y="0" flags="0x4"/>
      <component glyphName="dieresis" x="-18" y="290" flags="0x4"/>
    </TTGlyph>
    <TTGlyph name="Igrave" xMin="57" yMin="0" xMax="172" yMax="883">
      <component glyphName="I" x="0" y="0" flags="0x4"/>
      <component glyphName="grave" x="90" y="271" flags="0x4"/>
    </TTGlyph>
    <TTGlyph name="J" xMin="-41" yMin="-142" xMax="262" yMax="700">
      <contour>
        <pt x="-41" y="-142" on="1"/>
        <pt x="-39" y="-128" on="1"/>
        <pt x="-2" y="-126" on="0"/>
        <pt x="64" y="-95" on="0"/>
        <pt x="118" y="-38" on="0"/>
        <pt x="155" y="42" on="0"/>
        <pt x="162" y="93" on="1"/>
        <pt x="248" y="700" on="1"/>
        <pt x="262" y="700" on="1"/>
        <pt x="176" y="90" on="1"/>
        <pt x="168" y="34" on="0"/>
        <pt x="127" y="-51" on="0"/>
        <pt x="68" y="-109" on="0"/>
        <pt x="-3" y="-141" on="0"/>
      </contour>
    </TTGlyph>
    <TTGlyph name="K" xMin="27" yMin="0" xMax="544" yMax="700">
      <contour>
        <pt x="490" y="0" on="1"/>
        <pt x="470" y="0" on="1"/>
        <pt x="403" y="104" on="0"/>
        <pt x="270" y="310" on="0"/>
        <pt x="202" y="414" on="1"/>
        <pt x="173" y="389" on="0"/>
        <pt x="114" y="341" on="0"/>
        <pt x="85" y="316" on="1"/>
        <pt x="74" y="237" on="0"/>
        <pt x="52" y="79" on="0"/>
        <pt x="41" y="0" on="1"/>
        <pt x="27" y="0" on="1"/>
        <pt x="126" y="700" on="1"/>
        <pt x="140" y="700" on="1"/>
        <pt x="92" y="360" on="1"/>
        <pt x="91" y="352" on="0"/>
        <pt x="88" y="339" on="0"/>
        <pt x="87" y="331" on="1"/>
        <pt x="107" y="351" on="1"/>
        <pt x="211" y="439" on="0"/>
        <pt x="417" y="612" on="0"/>
        <pt x="522" y="700" on="1"/>
        <pt x="544" y="700" on="1"/>
        <pt x="461" y="631" on="0"/>
        <pt x="298" y="493" on="0"/>
        <pt x="215" y="424" on="1"/>
        <pt x="284" y="318" on="0"/>
        <pt x="421" y="106" on="0"/>
      </contour>
    </TTGlyph>
    <TTGlyph name="L" xMin="45" yMin="0" xMax="466" yMax="700">
      <contour>
        <pt x="45" y="0" on="1"/>
        <pt x="144" y="700" on="1"/>
        <pt x="158" y="700" on="1"/>
        <pt x="61" y="14" on="1"/>
        <pt x="466" y="14" on="1"/>
        <pt x="464" y="0" on="1"/>
      </contour>
    </TTGlyph>
    <TTGlyph name="M" xMin="48" yMin="0" xMax="883" yMax="732">
      <contour>
        <pt x="151" y="732" on="1"/>
        <pt x="226" y="613" on="0"/>
        <pt x="375" y="376" on="0"/>
        <pt x="450" y="257" on="1"/>
        <pt x="559" y="376" on="0"/>
        <pt x="774" y="613" on="0"/>
        <pt x="883" y="732" on="1"/>
        <pt x="780" y="0" on="1"/>
        <pt x="766" y="0" on="1"/>
        <pt x="826" y="430" on="1"/>
        <pt x="857" y="645" on="1"/>
        <pt x="859" y="656" on="0"/>
        <pt x="862" y="679" on="0"/>
        <pt x="864" y="690" on="1"/>
        <pt x="759" y="572" on="0"/>
        <pt x="552" y="344" on="0"/>
        <pt x="446" y="228" on="1"/>
        <pt x="389" y="319" on="0"/>
        <pt x="279" y="496" on="0"/>
        <pt x="222" y="587" on="1"/>
        <pt x="165" y="677" on="1"/>
        <pt x="163" y="680" on="0"/>
        <pt x="160" y="687" on="0"/>
        <pt x="158" y="690" on="1"/>
        <pt x="156" y="679" on="0"/>
        <pt x="155" y="656" on="0"/>
        <pt x="153" y="645" on="1"/>
        <pt x="62" y="0" on="1"/>
        <pt x="48" y="0" on="1"/>
      </contour>
    </TTGlyph>
    <TTGlyph name="N" xMin="50" yMin="-32" xMax="760" yMax="732">
      <contour>
        <pt x="760" y="700" on="1"/>
        <pt x="657" y="-32" on="1"/>
        <pt x="536" y="145" on="0"/>
        <pt x="295" y="493" on="0"/>
        <pt x="174" y="670" on="1"/>
        <pt x="171" y="677" on="0"/>
        <pt x="163" y="689" on="0"/>
        <pt x="159" y="696" on="1"/>
        <pt x="159" y="688" on="0"/>
        <pt x="158" y="672" on="0"/>
        <pt x="158" y="664" on="1"/>
        <pt x="64" y="0" on="1"/>
        <pt x="50" y="0" on="1"/>
        <pt x="153" y="732" on="1"/>
        <pt x="274" y="554" on="0"/>
        <pt x="514" y="205" on="0"/>
        <pt x="635" y="28" on="1"/>
        <pt x="639" y="21" on="0"/>
        <pt x="647" y="9" on="0"/>
        <pt x="651" y="2" on="1"/>
        <pt x="651" y="10" on="0"/>
        <pt x="652" y="26" on="0"/>
        <pt x="652" y="34" on="1"/>
        <pt x="746" y="700" on="1"/>
      </contour>
    </TTGlyph>
    <TTGlyph name="Ntilde" xMin="50" yMin="-32" xMax="760" yMax="834">
      <component glyphName="N" x="0" y="0" flags="0x204"/>
      <component glyphName="asciitilde" x="205" y="293" flags="0x4"/>
    </TTGlyph>
    <TTGlyph name="O" xMin="51" yMin="-8" xMax="787" yMax="708">
      <contour>
        <pt x="61" y="349" on="1"/>
        <pt x="71" y="423" on="0"/>
        <pt x="146" y="554" on="0"/>
        <pt x="257" y="651" on="0"/>
        <pt x="395" y="708" on="0"/>
        <pt x="469" y="708" on="1"/>
        <pt x="543" y="708" on="0"/>
        <pt x="666" y="651" on="0"/>
        <pt x="750" y="554" on="0"/>
        <pt x="787" y="423" on="0"/>
        <pt x="777" y="349" on="1"/>
        <pt x="767" y="275" on="0"/>
        <pt x="692" y="145" on="0"/>
        <pt x="581" y="48" on="0"/>
        <pt x="442" y="-8" on="0"/>
        <pt x="368" y="-8" on="1"/>
        <pt x="294" y="-8" on="0"/>
        <pt x="172" y="48" on="0"/>
        <pt x="89" y="145" on="0"/>
        <pt x="51" y="275" on="0"/>
      </contour>
      <contour>
        <pt x="75" y="348" on="1"/>
        <pt x="65" y="277" on="0"/>
        <pt x="101" y="153" on="0"/>
        <pt x="181" y="60" on="0"/>
        <pt x="297" y="6" on="0"/>
        <pt x="367" y="6" on="1"/>
        <pt x="438" y="6" on="0"/>
        <pt x="572" y="60" on="0"/>
        <pt x="680" y="153" on="0"/>
        <pt x="753" y="278" on="0"/>
        <pt x="763" y="349" on="1"/>
        <pt x="773" y="420" on="0"/>
        <pt x="736" y="545" on="0"/>
        <pt x="656" y="639" on="0"/>
        <pt x="538" y="694" on="0"/>
        <pt x="467" y="694" on="1"/>
        <pt x="396" y="694" on="0"/>
        <pt x="263" y="639" on="0"/>
        <pt x="157" y="545" on="0"/>
        <pt x="85" y="419" on="0"/>
      </contour>
    </TTGlyph>
    <TTGlyph name="Oacute" xMin="52" yMin="-8" xMax="788" yMax="883">
      <component glyphName="O" x="1" y="0" flags="0x204"/>
      <component glyphName="acute" x="383" y="271" flags="0x4"/>
    </TTGlyph>
    <TTGlyph name="Ocircumflex" xMin="52" yMin="-8" xMax="788" yMax="931">
      <component glyphName="O" x="1" y="0" flags="0x4"/>
      <component glyphName="asciicircum" x="259" y="271" flags="0x4"/>
    </TTGlyph>
    <TTGlyph name="Odieresis" xMin="52" yMin="-8" xMax="788" yMax="810">
      <component glyphName="O" x="1" y="0" flags="0x4"/>
      <component glyphName="dieresis" x="287" y="290" flags="0x4"/>
    </TTGlyph>
    <TTGlyph name="Ograve" xMin="52" yMin="-8" xMax="788" yMax="883">
      <component glyphName="O" x="1" y="0" flags="0x4"/>
      <component glyphName="grave" x="391" y="271" flags="0x4"/>
    </TTGlyph>
    <TTGlyph name="Oslash" xMin="50" yMin="-8" xMax="789" yMax="708">
      <contour>
        <pt x="75" y="348" on="1"/>
        <pt x="64" y="272" on="0"/>
        <pt x="106" y="142" on="0"/>
        <pt x="151" y="95" on="1"/>
        <pt x="280" y="228" on="0"/>
        <pt x="536" y="489" on="0"/>
        <pt x="666" y="622" on="1"/>
        <pt x="627" y="656" on="0"/>
        <pt x="526" y="694" on="0"/>
        <pt x="467" y="694" on="1"/>
        <pt x="396" y="694" on="0"/>
        <pt x="263" y="639" on="0"/>
        <pt x="157" y="545" on="0"/>
        <pt x="85" y="419" on="0"/>
      </contour>
      <contour>
        <pt x="367" y="6" on="1"/>
        <pt x="438" y="6" on="0"/>
        <pt x="572" y="60" on="0"/>
        <pt x="680" y="153" on="0"/>
        <pt x="753" y="278" on="0"/>
        <pt x="763" y="349" on="1"/>
        <pt x="774" y="429" on="0"/>
        <pt x="725" y="567" on="0"/>
        <pt x="674" y="615" on="1"/>
        <pt x="544" y="482" on="0"/>
        <pt x="288" y="220" on="0"/>
        <pt x="159" y="87" on="1"/>
        <pt x="198" y="49" on="0"/>
        <pt x="304" y="6" on="0"/>
      </contour>
      <contour>
        <pt x="61" y="349" on="1"/>
        <pt x="71" y="423" on="0"/>
        <pt x="146" y="554" on="0"/>
        <pt x="257" y="651" on="0"/>
        <pt x="395" y="708" on="0"/>
        <pt x="469" y="708" on="1"/>
        <pt x="531" y="708" on="0"/>
        <pt x="636" y="668" on="0"/>
        <pt x="677" y="633" on="1"/>
        <pt x="696" y="652" on="0"/>
        <pt x="731" y="689" on="0"/>
        <pt x="750" y="708" on="1"/>
        <pt x="752" y="706" on="0"/>
        <pt x="756" y="702" on="0"/>
        <pt x="758" y="700" on="1"/>
        <pt x="739" y="681" on="0"/>
        <pt x="704" y="645" on="0"/>
        <pt x="685" y="626" on="1"/>
        <pt x="739" y="576" on="0"/>
        <pt x="789" y="433" on="0"/>
        <pt x="777" y="349" on="1"/>
        <pt x="767" y="275" on="0"/>
        <pt x="692" y="145" on="0"/>
        <pt x="581" y="48" on="0"/>
        <pt x="442" y="-8" on="0"/>
        <pt x="368" y="-8" on="1"/>
        <pt x="302" y="-8" on="0"/>
        <pt x="191" y="37" on="0"/>
        <pt x="149" y="77" on="1"/>
        <pt x="128" y="56" on="0"/>
        <pt x="87" y="13" on="0"/>
        <pt x="66" y="-8" on="1"/>
        <pt x="64" y="-6" on="0"/>
        <pt x="60" y="-2" on="0"/>
        <pt x="58" y="0" on="1"/>
        <pt x="79" y="21" on="0"/>
        <pt x="120" y="64" on="0"/>
        <pt x="141" y="85" on="1"/>
        <pt x="93" y="134" on="0"/>
        <pt x="50" y="270" on="0"/>
      </contour>
    </TTGlyph>
    <TTGlyph name="Otilde" xMin="52" yMin="-8" xMax="788" yMax="868">
      <component glyphName="O" x="1" y="0" flags="0x4"/>
      <component glyphName="asciitilde" x="198" y="327" flags="0x4"/>
    </TTGlyph>
    <TTGlyph name="P" xMin="34" yMin="0" xMax="455" yMax="700">
      <contour>
        <pt x="98" y="355" on="1"/>
        <pt x="213" y="355" on="1"/>
        <pt x="271" y="355" on="0"/>
        <pt x="352" y="387" on="0"/>
        <pt x="404" y="436" on="0"/>
        <pt x="430" y="495" on="0"/>
        <pt x="434" y="522" on="1"/>
        <pt x="438" y="555" on="0"/>
        <pt x="417" y="614" on="0"/>
        <pt x="370" y="659" on="0"/>
        <pt x="303" y="686" on="0"/>
        <pt x="261" y="686" on="1"/>
        <pt x="145" y="686" on="1"/>
      </contour>
      <contour>
        <pt x="34" y="0" on="1"/>
        <pt x="133" y="700" on="1"/>
        <pt x="273" y="700" on="1"/>
        <pt x="302" y="700" on="0"/>
        <pt x="369" y="680" on="0"/>
        <pt x="423" y="638" on="0"/>
        <pt x="455" y="570" on="0"/>
        <pt x="448" y="522" on="1"/>
        <pt x="436" y="439" on="0"/>
        <pt x="311" y="341" on="0"/>
        <pt x="208" y="341" on="1"/>
        <pt x="96" y="341" on="1"/>
        <pt x="48" y="0" on="1"/>
      </contour>
    </TTGlyph>
    <TTGlyph name="Q" xMin="51" yMin="-8" xMax="787" yMax="708">
      <contour>
        <pt x="75" y="348" on="1"/>
        <pt x="65" y="277" on="0"/>
        <pt x="101" y="153" on="0"/>
        <pt x="181" y="60" on="0"/>
        <pt x="297" y="6" on="0"/>
        <pt x="367" y="6" on="1"/>
        <pt x="438" y="6" on="0"/>
        <pt x="572" y="60" on="0"/>
        <pt x="680" y="153" on="0"/>
        <pt x="753" y="278" on="0"/>
        <pt x="763" y="349" on="1"/>
        <pt x="773" y="420" on="0"/>
        <pt x="736" y="545" on="0"/>
        <pt x="656" y="639" on="0"/>
        <pt x="538" y="694" on="0"/>
        <pt x="467" y="694" on="1"/>
        <pt x="396" y="694" on="0"/>
        <pt x="263" y="639" on="0"/>
        <pt x="157" y="545" on="0"/>
        <pt x="85" y="419" on="0"/>
      </contour>
      <contour>
        <pt x="61" y="349" on="1"/>
        <pt x="71" y="423" on="0"/>
        <pt x="146" y="554" on="0"/>
        <pt x="257" y="651" on="0"/>
        <pt x="395" y="708" on="0"/>
        <pt x="469" y="708" on="1"/>
        <pt x="543" y="708" on="0"/>
        <pt x="666" y="651" on="0"/>
        <pt x="750" y="554" on="0"/>
        <pt x="787" y="423" on="0"/>
        <pt x="777" y="349" on="1"/>
        <pt x="769" y="291" on="0"/>
        <pt x="720" y="186" on="0"/>
        <pt x="645" y="99" on="0"/>
        <pt x="549" y="33" on="0"/>
        <pt x="495" y="14" on="1"/>
        <pt x="752" y="14" on="1"/>
        <pt x="750" y="0" on="1"/>
        <pt x="443" y="0" on="1"/>
        <pt x="405" y="-8" on="0"/>
        <pt x="368" y="-8" on="1"/>
        <pt x="294" y="-8" on="0"/>
        <pt x="172" y="48" on="0"/>
        <pt x="89" y="145" on="0"/>
        <pt x="51" y="275" on="0"/>
      </contour>
    </TTGlyph>
    <TTGlyph name="R" xMin="34" yMin="0" xMax="455" yMax="700">
      <contour>
        <pt x="98" y="355" on="1"/>
        <pt x="213" y="355" on="1"/>
        <pt x="271" y="355" on="0"/>
        <pt x="352" y="387" on="0"/>
        <pt x="404" y="436" on="0"/>
        <pt x="430" y="495" on="0"/>
        <pt x="434" y="522" on="1"/>
        <pt x="438" y="555" on="0"/>
        <pt x="417" y="614" on="0"/>
        <pt x="370" y="659" on="0"/>
        <pt x="303" y="686" on="0"/>
        <pt x="261" y="686" on="1"/>
        <pt x="145" y="686" on="1"/>
      </contour>
      <contour>
        <pt x="34" y="0" on="1"/>
        <pt x="133" y="700" on="1"/>
        <pt x="273" y="700" on="1"/>
        <pt x="302" y="700" on="0"/>
        <pt x="369" y="680" on="0"/>
        <pt x="423" y="638" on="0"/>
        <pt x="455" y="570" on="0"/>
        <pt x="448" y="522" on="1"/>
        <pt x="438" y="453" on="0"/>
        <pt x="347" y="360" on="0"/>
        <pt x="271" y="346" on="1"/>
        <pt x="300" y="259" on="0"/>
        <pt x="356" y="87" on="0"/>
        <pt x="385" y="0" on="1"/>
        <pt x="370" y="0" on="1"/>
        <pt x="341" y="87" on="0"/>
        <pt x="284" y="257" on="0"/>
        <pt x="256" y="344" on="1"/>
        <pt x="232" y="341" on="0"/>
        <pt x="208" y="341" on="1"/>
        <pt x="96" y="341" on="1"/>
        <pt x="48" y="0" on="1"/>
      </contour>
    </TTGlyph>
    <TTGlyph name="S" xMin="42" yMin="-8" xMax="468" yMax="704">
      <contour>
        <pt x="462" y="647" on="1"/>
        <pt x="459" y="644" on="0"/>
        <pt x="455" y="639" on="0"/>
        <pt x="453" y="636" on="1"/>
        <pt x="445" y="644" on="0"/>
        <pt x="422" y="663" on="0"/>
        <pt x="389" y="679" on="0"/>
        <pt x="346" y="690" on="0"/>
        <pt x="318" y="690" on="1"/>
        <pt x="279" y="690" on="0"/>
        <pt x="217" y="662" on="0"/>
        <pt x="171" y="617" on="0"/>
        <pt x="143" y="560" on="0"/>
        <pt x="139" y="530" on="1"/>
        <pt x="134" y="498" on="0"/>
        <pt x="147" y="454" on="0"/>
        <pt x="177" y="422" on="0"/>
        <pt x="224" y="399" on="0"/>
        <pt x="254" y="388" on="1"/>
        <pt x="283" y="377" on="0"/>
        <pt x="361" y="353" on="0"/>
        <pt x="428" y="310" on="0"/>
        <pt x="468" y="241" on="0"/>
        <pt x="461" y="186" on="1"/>
        <pt x="455" y="142" on="0"/>
        <pt x="411" y="70" on="0"/>
        <pt x="346" y="19" on="0"/>
        <pt x="265" y="-8" on="0"/>
        <pt x="221" y="-8" on="1"/>
        <pt x="181" y="-8" on="0"/>
        <pt x="121" y="12" on="0"/>
        <pt x="78" y="40" on="0"/>
        <pt x="50" y="69" on="0"/>
        <pt x="42" y="78" on="1"/>
        <pt x="54" y="89" on="1"/>
        <pt x="67" y="73" on="0"/>
        <pt x="99" y="43" on="0"/>
        <pt x="139" y="20" on="0"/>
        <pt x="189" y="6" on="0"/>
        <pt x="221" y="6" on="1"/>
        <pt x="260" y="6" on="0"/>
        <pt x="335" y="32" on="0"/>
        <pt x="398" y="78" on="0"/>
        <pt x="440" y="143" on="0"/>
        <pt x="446" y="182" on="1"/>
        <pt x="453" y="230" on="0"/>
        <pt x="422" y="293" on="0"/>
        <pt x="366" y="335" on="0"/>
        <pt x="294" y="360" on="0"/>
        <pt x="261" y="371" on="1"/>
        <pt x="237" y="379" on="0"/>
        <pt x="186" y="400" on="0"/>
        <pt x="145" y="432" on="0"/>
        <pt x="120" y="481" on="0"/>
        <pt x="123" y="517" on="1"/>
        <pt x="126" y="550" on="0"/>
        <pt x="154" y="617" on="0"/>
        <pt x="204" y="671" on="0"/>
        <pt x="275" y="704" on="0"/>
        <pt x="322" y="704" on="1"/>
        <pt x="360" y="704" on="0"/>
        <pt x="430" y="679" on="0"/>
      </contour>
    </TTGlyph>
    <TTGlyph name="T" xMin="47" yMin="0" xMax="602" yMax="700">
      <contour>
        <pt x="602" y="700" on="1"/>
        <pt x="600" y="686" on="1"/>
        <pt x="330" y="686" on="1"/>
        <pt x="233" y="0" on="1"/>
        <pt x="219" y="0" on="1"/>
        <pt x="316" y="686" on="1"/>
        <pt x="47" y="686" on="1"/>
        <pt x="49" y="700" on="1"/>
      </contour>
    </TTGlyph>
    <TTGlyph name="Thorn" xMin="50" yMin="0" xMax="447" yMax="700">
      <contour>
        <pt x="91" y="190" on="1"/>
        <pt x="206" y="190" on="1"/>
        <pt x="264" y="190" on="0"/>
        <pt x="345" y="222" on="0"/>
        <pt x="396" y="271" on="0"/>
        <pt x="422" y="330" on="0"/>
        <pt x="426" y="357" on="1"/>
        <pt x="431" y="390" on="0"/>
        <pt x="410" y="449" on="0"/>
        <pt x="363" y="494" on="0"/>
        <pt x="296" y="521" on="0"/>
        <pt x="254" y="521" on="1"/>
        <pt x="138" y="521" on="1"/>
      </contour>
      <contour>
        <pt x="64" y="0" on="1"/>
        <pt x="50" y="0" on="1"/>
        <pt x="149" y="700" on="1"/>
        <pt x="163" y="700" on="1"/>
        <pt x="140" y="535" on="1"/>
        <pt x="266" y="535" on="1"/>
        <pt x="295" y="535" on="0"/>
        <pt x="362" y="515" on="0"/>
        <pt x="416" y="473" on="0"/>
        <pt x="447" y="405" on="0"/>
        <pt x="440" y="357" on="1"/>
        <pt x="429" y="274" on="0"/>
        <pt x="304" y="176" on="0"/>
        <pt x="201" y="176" on="1"/>
        <pt x="89" y="176" on="1"/>
      </contour>
    </TTGlyph>
    <TTGlyph name="U" xMin="77" yMin="-8" xMax="601" yMax="700">
      <contour>
        <pt x="277" y="-8" on="1"/>
        <pt x="229" y="-8" on="0"/>
        <pt x="150" y="22" on="0"/>
        <pt x="98" y="81" on="0"/>
        <pt x="77" y="169" on="0"/>
        <pt x="85" y="226" on="1"/>
        <pt x="151" y="700" on="1"/>
        <pt x="165" y="700" on="1"/>
        <pt x="99" y="229" on="1"/>
        <pt x="91" y="175" on="0"/>
        <pt x="111" y="92" on="0"/>
        <pt x="159" y="35" on="0"/>
        <pt x="233" y="6" on="0"/>
        <pt x="279" y="6" on="1"/>
        <pt x="324" y="6" on="0"/>
        <pt x="406" y="35" on="0"/>
        <pt x="470" y="92" on="0"/>
        <pt x="513" y="175" on="0"/>
        <pt x="521" y="229" on="1"/>
        <pt x="587" y="700" on="1"/>
        <pt x="601" y="700" on="1"/>
        <pt x="535" y="226" on="1"/>
        <pt x="527" y="169" on="0"/>
        <pt x="480" y="81" on="0"/>
        <pt x="411" y="22" on="0"/>
        <pt x="325" y="-8" on="0"/>
      </contour>
    </TTGlyph>
    <TTGlyph name="Uacute" xMin="79" yMin="-8" xMax="603" yMax="883">
      <component glyphName="U" x="2" y="0" flags="0x204"/>
      <component glyphName="acute" x="277" y="271" flags="0x4"/>
    </TTGlyph>
    <TTGlyph name="Ucircumflex" xMin="79" yMin="-8" xMax="603" yMax="932">
      <component glyphName="U" x="2" y="0" flags="0x204"/>
      <component glyphName="asciicircum" x="167" y="272" flags="0x4"/>
    </TTGlyph>
    <TTGlyph name="Udieresis" xMin="79" yMin="-8" xMax="603" yMax="810">
      <component glyphName="U" x="2" y="0" flags="0x204"/>
      <component glyphName="dieresis" x="212" y="290" flags="0x4"/>
    </TTGlyph>
    <TTGlyph name="Ugrave" xMin="79" yMin="-8" xMax="603" yMax="883">
      <component glyphName="U" x="2" y="0" flags="0x204"/>
      <component glyphName="grave" x="297" y="271" flags="0x4"/>
    </TTGlyph>
    <TTGlyph name="V" xMin="105" yMin="-32" xMax="725" yMax="700">
      <contour>
        <pt x="710" y="700" on="1"/>
        <pt x="725" y="700" on="1"/>
        <pt x="622" y="516" on="0"/>
        <pt x="415" y="152" on="0"/>
        <pt x="312" y="-32" on="1"/>
        <pt x="105" y="700" on="1"/>
        <pt x="120" y="700" on="1"/>
        <pt x="168" y="530" on="0"/>
        <pt x="263" y="195" on="0"/>
        <pt x="311" y="25" on="1"/>
        <pt x="313" y="19" on="0"/>
        <pt x="315" y="6" on="0"/>
        <pt x="317" y="0" on="1"/>
        <pt x="320" y="6" on="0"/>
        <pt x="326" y="19" on="0"/>
        <pt x="329" y="25" on="1"/>
      </contour>
    </TTGlyph>
    <TTGlyph name="W" xMin="105" yMin="-32" xMax="1097" yMax="700">
      <contour>
        <pt x="1082" y="700" on="1"/>
        <pt x="1097" y="700" on="1"/>
        <pt x="994" y="516" on="0"/>
        <pt x="787" y="152" on="0"/>
        <pt x="684" y="-32" on="1"/>
        <pt x="566" y="385" on="1"/>
        <pt x="564" y="390" on="0"/>
        <pt x="562" y="402" on="0"/>
        <pt x="560" y="407" on="1"/>
        <pt x="497" y="297" on="0"/>
        <pt x="375" y="78" on="0"/>
        <pt x="312" y="-32" on="1"/>
        <pt x="105" y="700" on="1"/>
        <pt x="120" y="700" on="1"/>
        <pt x="167" y="530" on="0"/>
        <pt x="261" y="194" on="0"/>
        <pt x="311" y="25" on="1"/>
        <pt x="313" y="19" on="0"/>
        <pt x="315" y="6" on="0"/>
        <pt x="317" y="0" on="1"/>
        <pt x="372" y="108" on="0"/>
        <pt x="494" y="319" on="0"/>
        <pt x="554" y="425" on="1"/>
        <pt x="534" y="494" on="0"/>
        <pt x="497" y="631" on="0"/>
        <pt x="477" y="700" on="1"/>
        <pt x="492" y="700" on="1"/>
        <pt x="539" y="530" on="0"/>
        <pt x="633" y="194" on="0"/>
        <pt x="683" y="25" on="1"/>
        <pt x="685" y="19" on="0"/>
        <pt x="687" y="6" on="0"/>
        <pt x="689" y="0" on="1"/>
        <pt x="692" y="6" on="0"/>
        <pt x="698" y="19" on="0"/>
        <pt x="701" y="25" on="1"/>
      </contour>
    </TTGlyph>
    <TTGlyph name="X" xMin="43" yMin="0" xMax="612" yMax="700">
      <contour>
        <pt x="324" y="360" on="1"/>
        <pt x="281" y="445" on="0"/>
        <pt x="195" y="615" on="0"/>
        <pt x="152" y="700" on="1"/>
        <pt x="168" y="700" on="1"/>
        <pt x="209" y="620" on="0"/>
        <pt x="290" y="461" on="0"/>
        <pt x="331" y="381" on="1"/>
        <pt x="333" y="378" on="0"/>
        <pt x="335" y="371" on="0"/>
        <pt x="337" y="368" on="1"/>
        <pt x="340" y="371" on="0"/>
        <pt x="344" y="378" on="0"/>
        <pt x="347" y="381" on="1"/>
        <pt x="410" y="461" on="0"/>
        <pt x="533" y="620" on="0"/>
        <pt x="596" y="700" on="1"/>
        <pt x="612" y="700" on="1"/>
        <pt x="545" y="613" on="0"/>
        <pt x="411" y="443" on="0"/>
        <pt x="343" y="356" on="1"/>
        <pt x="389" y="266" on="0"/>
        <pt x="480" y="90" on="0"/>
        <pt x="525" y="0" on="1"/>
        <pt x="508" y="0" on="1"/>
        <pt x="365" y="279" on="1"/>
        <pt x="356" y="296" on="0"/>
        <pt x="340" y="332" on="0"/>
        <pt x="330" y="348" on="1"/>
        <pt x="328" y="345" on="0"/>
        <pt x="323" y="338" on="0"/>
        <pt x="320" y="335" on="1"/>
        <pt x="255" y="250" on="0"/>
        <pt x="125" y="85" on="0"/>
        <pt x="59" y="0" on="1"/>
        <pt x="43" y="0" on="1"/>
        <pt x="114" y="91" on="0"/>
        <pt x="253" y="269" on="0"/>
      </contour>
    </TTGlyph>
    <TTGlyph name="Y" xMin="97" yMin="0" xMax="636" yMax="700">
      <contour>
        <pt x="312" y="262" on="1"/>
        <pt x="275" y="0" on="1"/>
        <pt x="261" y="0" on="1"/>
        <pt x="298" y="262" on="1"/>
        <pt x="97" y="700" on="1"/>
        <pt x="114" y="700" on="1"/>
        <pt x="160" y="599" on="0"/>
        <pt x="253" y="400" on="0"/>
        <pt x="298" y="298" on="1"/>
        <pt x="300" y="291" on="0"/>
        <pt x="305" y="279" on="0"/>
        <pt x="307" y="272" on="1"/>
        <pt x="308" y="272" on="1"/>
        <pt x="312" y="279" on="0"/>
        <pt x="318" y="291" on="0"/>
        <pt x="322" y="298" on="1"/>
        <pt x="619" y="700" on="1"/>
        <pt x="636" y="700" on="1"/>
      </contour>
    </TTGlyph>
    <TTGlyph name="Yacute" xMin="97" yMin="0" xMax="636" yMax="883">
      <component glyphName="Y" x="0" y="0" flags="0x204"/>
      <component glyphName="acute" x="273" y="271" flags="0x4"/>
    </TTGlyph>
    <TTGlyph name="Z" xMin="81" yMin="0" xMax="709" yMax="735">
      <contour>
        <pt x="242" y="700" on="1"/>
        <pt x="709" y="700" on="1"/>
        <pt x="707" y="686" on="1"/>
        <pt x="555" y="517" on="0"/>
        <pt x="254" y="183" on="0"/>
        <pt x="102" y="14" on="1"/>
        <pt x="641" y="14" on="1"/>
        <pt x="640" y="0" on="1"/>
        <pt x="81" y="0" on="1"/>
        <pt x="82" y="14" on="1"/>
        <pt x="234" y="183" on="0"/>
        <pt x="535" y="517" on="0"/>
        <pt x="687" y="686" on="1"/>
        <pt x="254" y="686" on="1"/>
        <pt x="223" y="686" on="0"/>
        <pt x="196" y="702" on="0"/>
        <pt x="200" y="731" on="1"/>
        <pt x="201" y="735" on="1"/>
        <pt x="217" y="735" on="1"/>
        <pt x="215" y="723" on="1"/>
        <pt x="213" y="714" on="0"/>
        <pt x="225" y="700" on="0"/>
      </contour>
    </TTGlyph>
    <TTGlyph name="a" xMin="69" yMin="-6" xMax="490" yMax="383">
      <contour>
        <pt x="89" y="188" on="1"/>
        <pt x="84" y="150" on="0"/>
        <pt x="103" y="85" on="0"/>
        <pt x="145" y="36" on="0"/>
        <pt x="206" y="8" on="0"/>
        <pt x="244" y="8" on="1"/>
        <pt x="281" y="8" on="0"/>
        <pt x="351" y="36" on="0"/>
        <pt x="407" y="85" on="0"/>
        <pt x="445" y="150" on="0"/>
        <pt x="450" y="188" on="1"/>
        <pt x="455" y="225" on="0"/>
        <pt x="436" y="291" on="0"/>
        <pt x="394" y="341" on="0"/>
        <pt x="331" y="369" on="0"/>
        <pt x="294" y="369" on="1"/>
        <pt x="256" y="369" on="0"/>
        <pt x="187" y="341" on="0"/>
        <pt x="131" y="291" on="0"/>
        <pt x="94" y="225" on="0"/>
      </contour>
      <contour>
        <pt x="75" y="188" on="1"/>
        <pt x="81" y="232" on="0"/>
        <pt x="122" y="304" on="0"/>
        <pt x="182" y="355" on="0"/>
        <pt x="257" y="383" on="0"/>
        <pt x="296" y="383" on="1"/>
        <pt x="327" y="383" on="0"/>
        <pt x="380" y="365" on="0"/>
        <pt x="423" y="332" on="0"/>
        <pt x="453" y="287" on="0"/>
        <pt x="460" y="260" on="1"/>
        <pt x="464" y="289" on="0"/>
        <pt x="475" y="346" on="0"/>
        <pt x="480" y="375" on="1"/>
        <pt x="490" y="375" on="1"/>
        <pt x="438" y="0" on="1"/>
        <pt x="424" y="0" on="1"/>
        <pt x="431" y="54" on="1"/>
        <pt x="433" y="70" on="0"/>
        <pt x="439" y="101" on="0"/>
        <pt x="441" y="117" on="1"/>
        <pt x="412" y="63" on="0"/>
        <pt x="305" y="-6" on="0"/>
        <pt x="242" y="-6" on="1"/>
        <pt x="201" y="-6" on="0"/>
        <pt x="135" y="24" on="0"/>
        <pt x="90" y="77" on="0"/>
        <pt x="69" y="147" on="0"/>
      </contour>
    </TTGlyph>
    <TTGlyph name="aacute" xMin="69" yMin="-6" xMax="490" yMax="612">
      <component glyphName="a" x="0" y="0" flags="0x4"/>
      <component glyphName="acute" x="209" y="0" flags="0x4"/>
    </TTGlyph>
    <TTGlyph name="acircumflex" xMin="69" yMin="-6" xMax="490" yMax="660">
      <component glyphName="a" x="0" y="0" flags="0x4"/>
      <component glyphName="asciicircum" x="106" y="0" flags="0x4"/>
    </TTGlyph>
    <TTGlyph name="acute" xMin="90" yMin="479" xMax="215" yMax="612">
      <contour>
        <pt x="90" y="479" on="1"/>
        <pt x="117" y="512" on="0"/>
        <pt x="172" y="579" on="0"/>
        <pt x="199" y="612" on="1"/>
        <pt x="215" y="612" on="1"/>
        <pt x="188" y="579" on="0"/>
        <pt x="133" y="512" on="0"/>
        <pt x="106" y="479" on="1"/>
      </contour>
    </TTGlyph>
    <TTGlyph name="adieresis" xMin="69" yMin="-6" xMax="490" yMax="520">
      <component glyphName="a" x="0" y="0" flags="0x4"/>
      <component glyphName="dieresis" x="141" y="0" flags="0x4"/>
    </TTGlyph>
    <TTGlyph name="ae" xMin="31" yMin="-8" xMax="569" yMax="383">
      <contour>
        <pt x="367" y="243" on="1"/>
        <pt x="360" y="193" on="1"/>
        <pt x="408" y="211" on="0"/>
        <pt x="504" y="248" on="0"/>
        <pt x="552" y="266" on="1"/>
        <pt x="538" y="312" on="0"/>
        <pt x="465" y="369" on="0"/>
        <pt x="415" y="369" on="1"/>
        <pt x="381" y="369" on="0"/>
        <pt x="347" y="356" on="1"/>
        <pt x="365" y="340" on="0"/>
        <pt x="373" y="285" on="0"/>
      </contour>
      <contour>
        <pt x="344" y="179" on="1"/>
        <pt x="250" y="179" on="1"/>
        <pt x="234" y="179" on="0"/>
        <pt x="171" y="180" on="0"/>
        <pt x="106" y="167" on="0"/>
        <pt x="55" y="133" on="0"/>
        <pt x="50" y="99" on="1"/>
        <pt x="46" y="70" on="0"/>
        <pt x="69" y="33" on="0"/>
        <pt x="109" y="13" on="0"/>
        <pt x="159" y="6" on="0"/>
        <pt x="182" y="6" on="1"/>
        <pt x="207" y="6" on="0"/>
        <pt x="258" y="15" on="0"/>
        <pt x="300" y="38" on="0"/>
        <pt x="330" y="77" on="0"/>
        <pt x="334" y="107" on="1"/>
      </contour>
      <contour>
        <pt x="114" y="334" on="1"/>
        <pt x="112" y="337" on="0"/>
        <pt x="105" y="343" on="0"/>
        <pt x="103" y="346" on="1"/>
        <pt x="113" y="354" on="0"/>
        <pt x="144" y="367" on="0"/>
        <pt x="179" y="377" on="0"/>
        <pt x="216" y="383" on="0"/>
        <pt x="232" y="383" on="1"/>
        <pt x="302" y="383" on="0"/>
        <pt x="335" y="366" on="1"/>
        <pt x="374" y="383" on="0"/>
        <pt x="417" y="383" on="1"/>
        <pt x="475" y="383" on="0"/>
        <pt x="557" y="314" on="0"/>
        <pt x="569" y="259" on="1"/>
        <pt x="516" y="239" on="0"/>
        <pt x="411" y="198" on="0"/>
        <pt x="358" y="178" on="1"/>
        <pt x="355" y="154" on="1"/>
        <pt x="351" y="130" on="1"/>
        <pt x="346" y="91" on="0"/>
        <pt x="321" y="40" on="0"/>
        <pt x="295" y="22" on="1"/>
        <pt x="311" y="15" on="0"/>
        <pt x="344" y="8" on="0"/>
        <pt x="364" y="8" on="1"/>
        <pt x="400" y="8" on="0"/>
        <pt x="468" y="34" on="0"/>
        <pt x="495" y="57" on="1"/>
        <pt x="497" y="54" on="0"/>
        <pt x="501" y="49" on="0"/>
        <pt x="503" y="46" on="1"/>
        <pt x="473" y="22" on="0"/>
        <pt x="401" y="-6" on="0"/>
        <pt x="362" y="-6" on="1"/>
        <pt x="315" y="-6" on="0"/>
        <pt x="281" y="12" on="1"/>
        <pt x="241" y="-8" on="0"/>
        <pt x="178" y="-8" on="1"/>
        <pt x="143" y="-8" on="0"/>
        <pt x="86" y="2" on="0"/>
        <pt x="48" y="26" on="0"/>
        <pt x="31" y="67" on="0"/>
        <pt x="36" y="98" on="1"/>
        <pt x="40" y="125" on="0"/>
        <pt x="70" y="161" on="0"/>
        <pt x="115" y="184" on="0"/>
        <pt x="171" y="193" on="0"/>
        <pt x="200" y="193" on="1"/>
        <pt x="346" y="193" on="1"/>
        <pt x="354" y="245" on="1"/>
        <pt x="358" y="276" on="0"/>
        <pt x="355" y="323" on="0"/>
        <pt x="329" y="354" on="0"/>
        <pt x="275" y="369" on="0"/>
        <pt x="229" y="369" on="1"/>
        <pt x="215" y="369" on="0"/>
        <pt x="182" y="363" on="0"/>
        <pt x="150" y="353" on="0"/>
        <pt x="123" y="340" on="0"/>
      </contour>
    </TTGlyph>
    <TTGlyph name="agrave" xMin="69" yMin="-6" xMax="490" yMax="612">
      <component glyphName="a" x="0" y="0" flags="0x4"/>
      <component glyphName="grave" x="234" y="0" flags="0x4"/>
    </TTGlyph>
    <TTGlyph name="ampersand" xMin="73" yMin="-19" xMax="603" yMax="750">
      <contour>
        <pt x="93" y="187" on="1"/>
        <pt x="88" y="149" on="0"/>
        <pt x="107" y="84" on="0"/>
        <pt x="149" y="35" on="0"/>
        <pt x="210" y="7" on="0"/>
        <pt x="248" y="7" on="1"/>
        <pt x="295" y="7" on="0"/>
        <pt x="379" y="50" on="0"/>
        <pt x="408" y="85" on="1"/>
        <pt x="375" y="156" on="0"/>
        <pt x="308" y="295" on="0"/>
        <pt x="275" y="366" on="1"/>
        <pt x="241" y="362" on="0"/>
        <pt x="179" y="331" on="0"/>
        <pt x="130" y="283" on="0"/>
        <pt x="98" y="221" on="0"/>
      </contour>
      <contour>
        <pt x="477" y="249" on="1"/>
        <pt x="468" y="187" on="1"/>
        <pt x="464" y="158" on="0"/>
        <pt x="441" y="107" on="0"/>
        <pt x="424" y="84" on="1"/>
        <pt x="447" y="37" on="0"/>
        <pt x="470" y="-11" on="1"/>
        <pt x="467" y="-13" on="0"/>
        <pt x="461" y="-17" on="0"/>
        <pt x="458" y="-19" on="1"/>
        <pt x="435" y="27" on="0"/>
        <pt x="414" y="72" on="1"/>
        <pt x="382" y="36" on="0"/>
        <pt x="295" y="-7" on="0"/>
        <pt x="246" y="-7" on="1"/>
        <pt x="205" y="-7" on="0"/>
        <pt x="139" y="23" on="0"/>
        <pt x="94" y="76" on="0"/>
        <pt x="73" y="146" on="0"/>
        <pt x="79" y="187" on="1"/>
        <pt x="84" y="223" on="0"/>
        <pt x="118" y="288" on="0"/>
        <pt x="169" y="339" on="0"/>
        <pt x="233" y="373" on="0"/>
        <pt x="269" y="379" on="1"/>
        <pt x="255" y="408" on="0"/>
        <pt x="227" y="467" on="0"/>
        <pt x="213" y="496" on="1"/>
        <pt x="199" y="526" on="0"/>
        <pt x="194" y="590" on="0"/>
        <pt x="212" y="652" on="0"/>
        <pt x="256" y="706" on="0"/>
        <pt x="292" y="726" on="1"/>
        <pt x="323" y="743" on="0"/>
        <pt x="382" y="750" on="0"/>
        <pt x="436" y="740" on="0"/>
        <pt x="483" y="718" on="0"/>
        <pt x="500" y="706" on="1"/>
        <pt x="498" y="703" on="0"/>
        <pt x="494" y="696" on="0"/>
        <pt x="492" y="693" on="1"/>
        <pt x="471" y="706" on="0"/>
        <pt x="426" y="728" on="0"/>
        <pt x="378" y="738" on="0"/>
        <pt x="326" y="731" on="0"/>
        <pt x="298" y="715" on="1"/>
        <pt x="264" y="695" on="0"/>
        <pt x="223" y="645" on="0"/>
        <pt x="207" y="590" on="0"/>
        <pt x="212" y="531" on="0"/>
        <pt x="225" y="504" on="1"/>
        <pt x="273" y="402" on="0"/>
        <pt x="369" y="200" on="0"/>
        <pt x="417" y="98" on="1"/>
        <pt x="447" y="139" on="0"/>
        <pt x="454" y="187" on="1"/>
        <pt x="464" y="257" on="1"/>
        <pt x="470" y="303" on="0"/>
        <pt x="491" y="351" on="0"/>
        <pt x="518" y="372" on="0"/>
        <pt x="549" y="375" on="0"/>
        <pt x="566" y="375" on="1"/>
        <pt x="603" y="375" on="1"/>
        <pt x="601" y="361" on="1"/>
        <pt x="544" y="361" on="1"/>
        <pt x="513" y="361" on="0"/>
        <pt x="485" y="309" on="0"/>
      </contour>
    </TTGlyph>
    <TTGlyph name="aring" xMin="69" yMin="-6" xMax="490" yMax="603">
      <contour>
        <pt x="276" y="540" on="1"/>
        <pt x="274" y="520" on="0"/>
        <pt x="299" y="491" on="0"/>
        <pt x="319" y="491" on="1"/>
        <pt x="339" y="491" on="0"/>
        <pt x="372" y="520" on="0"/>
        <pt x="374" y="540" on="1"/>
        <pt x="377" y="560" on="0"/>
        <pt x="352" y="589" on="0"/>
        <pt x="332" y="589" on="1"/>
        <pt x="312" y="589" on="0"/>
        <pt x="279" y="560" on="0"/>
      </contour>
      <contour>
        <pt x="262" y="540" on="1"/>
        <pt x="266" y="567" on="0"/>
        <pt x="307" y="603" on="0"/>
        <pt x="334" y="603" on="1"/>
        <pt x="361" y="603" on="0"/>
        <pt x="392" y="567" on="0"/>
        <pt x="388" y="540" on="1"/>
        <pt x="384" y="513" on="0"/>
        <pt x="344" y="477" on="0"/>
        <pt x="317" y="477" on="1"/>
        <pt x="290" y="477" on="0"/>
        <pt x="258" y="513" on="0"/>
      </contour>
      <contour>
        <pt x="89" y="188" on="1"/>
        <pt x="84" y="150" on="0"/>
        <pt x="103" y="85" on="0"/>
        <pt x="145" y="36" on="0"/>
        <pt x="206" y="8" on="0"/>
        <pt x="244" y="8" on="1"/>
        <pt x="281" y="8" on="0"/>
        <pt x="351" y="36" on="0"/>
        <pt x="407" y="85" on="0"/>
        <pt x="445" y="150" on="0"/>
        <pt x="450" y="188" on="1"/>
        <pt x="455" y="225" on="0"/>
        <pt x="436" y="291" on="0"/>
        <pt x="394" y="341" on="0"/>
        <pt x="331" y="369" on="0"/>
        <pt x="294" y="369" on="1"/>
        <pt x="256" y="369" on="0"/>
        <pt x="187" y="341" on="0"/>
        <pt x="131" y="291" on="0"/>
        <pt x="94" y="225" on="0"/>
      </contour>
      <contour>
        <pt x="75" y="188" on="1"/>
        <pt x="81" y="232" on="0"/>
        <pt x="122" y="304" on="0"/>
        <pt x="182" y="355" on="0"/>
        <pt x="257" y="383" on="0"/>
        <pt x="296" y="383" on="1"/>
        <pt x="327" y="383" on="0"/>
        <pt x="380" y="365" on="0"/>
        <pt x="423" y="332" on="0"/>
        <pt x="453" y="287" on="0"/>
        <pt x="460" y="260" on="1"/>
        <pt x="464" y="289" on="0"/>
        <pt x="475" y="346" on="0"/>
        <pt x="480" y="375" on="1"/>
        <pt x="490" y="375" on="1"/>
        <pt x="438" y="0" on="1"/>
        <pt x="424" y="0" on="1"/>
        <pt x="431" y="54" on="1"/>
        <pt x="433" y="70" on="0"/>
        <pt x="439" y="101" on="0"/>
        <pt x="441" y="117" on="1"/>
        <pt x="412" y="63" on="0"/>
        <pt x="305" y="-6" on="0"/>
        <pt x="242" y="-6" on="1"/>
        <pt x="201" y="-6" on="0"/>
        <pt x="135" y="24" on="0"/>
        <pt x="90" y="77" on="0"/>
        <pt x="69" y="147" on="0"/>
      </contour>
    </TTGlyph>
    <TTGlyph name="asciicircum" xMin="99" yMin="479" xMax="339" yMax="660">
      <contour>
        <pt x="244" y="660" on="1"/>
        <pt x="268" y="615" on="0"/>
        <pt x="315" y="524" on="0"/>
        <pt x="339" y="479" on="1"/>
        <pt x="323" y="479" on="1"/>
        <pt x="302" y="517" on="0"/>
        <pt x="261" y="595" on="0"/>
        <pt x="240" y="633" on="1"/>
        <pt x="208" y="595" on="0"/>
        <pt x="147" y="517" on="0"/>
        <pt x="115" y="479" on="1"/>
        <pt x="99" y="479" on="1"/>
        <pt x="135" y="524" on="0"/>
        <pt x="208" y="615" on="0"/>
      </contour>
    </TTGlyph>
    <TTGlyph name="asciitilde" xMin="128" yMin="459" xMax="419" yMax="541">
      <contour>
        <pt x="266" y="497" on="1"/>
        <pt x="252" y="515" on="0"/>
        <pt x="228" y="527" on="0"/>
        <pt x="214" y="527" on="1"/>
        <pt x="206" y="527" on="0"/>
        <pt x="184" y="522" on="0"/>
        <pt x="163" y="510" on="0"/>
        <pt x="145" y="489" on="0"/>
        <pt x="141" y="472" on="1"/>
        <pt x="138" y="473" on="0"/>
        <pt x="131" y="473" on="0"/>
        <pt x="128" y="474" on="1"/>
        <pt x="136" y="511" on="0"/>
        <pt x="191" y="541" on="0"/>
        <pt x="219" y="541" on="1"/>
        <pt x="239" y="541" on="0"/>
        <pt x="267" y="520" on="0"/>
        <pt x="281" y="503" on="1"/>
        <pt x="295" y="485" on="0"/>
        <pt x="319" y="473" on="0"/>
        <pt x="333" y="473" on="1"/>
        <pt x="341" y="473" on="0"/>
        <pt x="363" y="478" on="0"/>
        <pt x="384" y="490" on="0"/>
        <pt x="402" y="511" on="0"/>
        <pt x="406" y="528" on="1"/>
        <pt x="409" y="527" on="0"/>
        <pt x="416" y="527" on="0"/>
        <pt x="419" y="526" on="1"/>
        <pt x="411" y="489" on="0"/>
        <pt x="356" y="459" on="0"/>
        <pt x="328" y="459" on="1"/>
        <pt x="308" y="459" on="0"/>
        <pt x="280" y="480" on="0"/>
      </contour>
    </TTGlyph>
    <TTGlyph name="asterisk" xMin="30" yMin="434" xMax="303" yMax="720">
      <contour>
        <pt x="181" y="575" on="1"/>
        <pt x="207" y="559" on="0"/>
        <pt x="258" y="527" on="0"/>
        <pt x="284" y="511" on="1"/>
        <pt x="282" y="507" on="0"/>
        <pt x="276" y="500" on="0"/>
        <pt x="273" y="496" on="1"/>
        <pt x="171" y="562" on="1"/>
        <pt x="166" y="530" on="0"/>
        <pt x="156" y="466" on="0"/>
        <pt x="151" y="434" on="1"/>
        <pt x="137" y="434" on="1"/>
        <pt x="155" y="561" on="1"/>
        <pt x="125" y="545" on="0"/>
        <pt x="66" y="514" on="0"/>
        <pt x="36" y="498" on="1"/>
        <pt x="30" y="513" on="1"/>
        <pt x="59" y="529" on="0"/>
        <pt x="119" y="560" on="0"/>
        <pt x="149" y="576" on="1"/>
        <pt x="123" y="593" on="0"/>
        <pt x="74" y="625" on="0"/>
        <pt x="48" y="642" on="1"/>
        <pt x="50" y="645" on="0"/>
        <pt x="54" y="651" on="0"/>
        <pt x="56" y="654" on="1"/>
        <pt x="82" y="637" on="0"/>
        <pt x="133" y="606" on="0"/>
        <pt x="159" y="589" on="1"/>
        <pt x="178" y="720" on="1"/>
        <pt x="196" y="720" on="1"/>
        <pt x="190" y="687" on="0"/>
        <pt x="180" y="622" on="0"/>
        <pt x="175" y="589" on="1"/>
        <pt x="206" y="605" on="0"/>
        <pt x="267" y="637" on="0"/>
        <pt x="298" y="653" on="1"/>
        <pt x="302" y="645" on="0"/>
        <pt x="303" y="641" on="1"/>
        <pt x="272" y="624" on="0"/>
        <pt x="212" y="592" on="0"/>
      </contour>
    </TTGlyph>
    <TTGlyph name="at" xMin="82" yMin="-207" xMax="896" yMax="585">
      <contour>
        <pt x="309" y="188" on="1"/>
        <pt x="304" y="150" on="0"/>
        <pt x="323" y="85" on="0"/>
        <pt x="365" y="36" on="0"/>
        <pt x="426" y="8" on="0"/>
        <pt x="464" y="8" on="1"/>
        <pt x="501" y="8" on="0"/>
        <pt x="571" y="36" on="0"/>
        <pt x="627" y="85" on="0"/>
        <pt x="665" y="150" on="0"/>
        <pt x="670" y="188" on="1"/>
        <pt x="675" y="225" on="0"/>
        <pt x="656" y="291" on="0"/>
        <pt x="614" y="341" on="0"/>
        <pt x="552" y="369" on="0"/>
        <pt x="515" y="369" on="1"/>
        <pt x="477" y="369" on="0"/>
        <pt x="408" y="341" on="0"/>
        <pt x="352" y="291" on="0"/>
        <pt x="314" y="225" on="0"/>
      </contour>
      <contour>
        <pt x="884" y="188" on="1"/>
        <pt x="874" y="129" on="0"/>
        <pt x="840" y="55" on="0"/>
        <pt x="796" y="14" on="0"/>
        <pt x="747" y="0" on="0"/>
        <pt x="722" y="0" on="1"/>
        <pt x="644" y="0" on="1"/>
        <pt x="652" y="54" on="1"/>
        <pt x="654" y="70" on="0"/>
        <pt x="659" y="101" on="0"/>
        <pt x="661" y="117" on="1"/>
        <pt x="632" y="63" on="0"/>
        <pt x="525" y="-6" on="0"/>
        <pt x="462" y="-6" on="1"/>
        <pt x="421" y="-6" on="0"/>
        <pt x="355" y="24" on="0"/>
        <pt x="310" y="77" on="0"/>
        <pt x="289" y="147" on="0"/>
        <pt x="295" y="188" on="1"/>
        <pt x="301" y="228" on="0"/>
        <pt x="341" y="300" on="0"/>
        <pt x="401" y="352" on="0"/>
        <pt x="476" y="383" on="0"/>
        <pt x="517" y="383" on="1"/>
        <pt x="579" y="383" on="0"/>
        <pt x="666" y="314" on="0"/>
        <pt x="680" y="260" on="1"/>
        <pt x="685" y="289" on="0"/>
        <pt x="695" y="346" on="0"/>
        <pt x="701" y="375" on="1"/>
        <pt x="711" y="375" on="1"/>
        <pt x="660" y="13" on="1"/>
        <pt x="731" y="13" on="1"/>
        <pt x="785" y="13" on="0"/>
        <pt x="855" y="97" on="0"/>
        <pt x="870" y="188" on="1"/>
        <pt x="881" y="267" on="0"/>
        <pt x="841" y="407" on="0"/>
        <pt x="752" y="511" on="0"/>
        <pt x="621" y="571" on="0"/>
        <pt x="542" y="571" on="1"/>
        <pt x="463" y="571" on="0"/>
        <pt x="316" y="511" on="0"/>
        <pt x="198" y="407" on="0"/>
        <pt x="118" y="267" on="0"/>
        <pt x="107" y="188" on="1"/>
        <pt x="96" y="109" on="0"/>
        <pt x="137" y="-30" on="0"/>
        <pt x="225" y="-133" on="0"/>
        <pt x="356" y="-193" on="0"/>
        <pt x="435" y="-193" on="1"/>
        <pt x="497" y="-193" on="0"/>
        <pt x="613" y="-155" on="0"/>
        <pt x="664" y="-123" on="1"/>
        <pt x="666" y="-126" on="0"/>
        <pt x="669" y="-131" on="0"/>
        <pt x="671" y="-134" on="1"/>
        <pt x="617" y="-168" on="0"/>
        <pt x="499" y="-207" on="0"/>
        <pt x="433" y="-207" on="1"/>
        <pt x="351" y="-207" on="0"/>
        <pt x="216" y="-145" on="0"/>
        <pt x="124" y="-37" on="0"/>
        <pt x="82" y="107" on="0"/>
        <pt x="94" y="189" on="1"/>
        <pt x="105" y="271" on="0"/>
        <pt x="187" y="415" on="0"/>
        <pt x="310" y="523" on="0"/>
        <pt x="462" y="585" on="0"/>
        <pt x="544" y="585" on="1"/>
        <pt x="626" y="585" on="0"/>
        <pt x="762" y="523" on="0"/>
        <pt x="854" y="415" on="0"/>
        <pt x="896" y="270" on="0"/>
      </contour>
    </TTGlyph>
    <TTGlyph name="atilde" xMin="69" yMin="-6" xMax="490" yMax="541">
      <component glyphName="a" x="0" y="0" flags="0x4"/>
      <component glyphName="asciitilde" x="52" y="0" flags="0x4"/>
    </TTGlyph>
    <TTGlyph name="b" xMin="82" yMin="-6" xMax="503" yMax="750">
      <contour>
        <pt x="483" y="188" on="1"/>
        <pt x="488" y="225" on="0"/>
        <pt x="469" y="291" on="0"/>
        <pt x="427" y="341" on="0"/>
        <pt x="365" y="369" on="0"/>
        <pt x="328" y="369" on="1"/>
        <pt x="290" y="369" on="0"/>
        <pt x="221" y="341" on="0"/>
        <pt x="165" y="291" on="0"/>
        <pt x="127" y="225" on="0"/>
        <pt x="122" y="188" on="1"/>
        <pt x="117" y="150" on="0"/>
        <pt x="136" y="85" on="0"/>
        <pt x="178" y="36" on="0"/>
        <pt x="240" y="8" on="0"/>
        <pt x="278" y="8" on="1"/>
        <pt x="315" y="8" on="0"/>
        <pt x="385" y="36" on="0"/>
        <pt x="440" y="85" on="0"/>
        <pt x="478" y="150" on="0"/>
      </contour>
      <contour>
        <pt x="497" y="188" on="1"/>
        <pt x="491" y="147" on="0"/>
        <pt x="451" y="77" on="0"/>
        <pt x="391" y="24" on="0"/>
        <pt x="316" y="-6" on="0"/>
        <pt x="276" y="-6" on="1"/>
        <pt x="213" y="-6" on="0"/>
        <pt x="125" y="63" on="0"/>
        <pt x="111" y="117" on="1"/>
        <pt x="109" y="101" on="0"/>
        <pt x="105" y="70" on="0"/>
        <pt x="103" y="54" on="1"/>
        <pt x="96" y="0" on="1"/>
        <pt x="82" y="0" on="1"/>
        <pt x="187" y="750" on="1"/>
        <pt x="201" y="750" on="1"/>
        <pt x="140" y="314" on="1"/>
        <pt x="138" y="300" on="0"/>
        <pt x="134" y="274" on="0"/>
        <pt x="132" y="260" on="1"/>
        <pt x="161" y="314" on="0"/>
        <pt x="267" y="383" on="0"/>
        <pt x="330" y="383" on="1"/>
        <pt x="370" y="383" on="0"/>
        <pt x="437" y="352" on="0"/>
        <pt x="482" y="300" on="0"/>
        <pt x="503" y="228" on="0"/>
      </contour>
    </TTGlyph>
    <TTGlyph name="backslash" xMin="70" yMin="-19" xMax="255" yMax="736">
      <contour>
        <pt x="84" y="736" on="1"/>
        <pt x="127" y="546" on="0"/>
        <pt x="212" y="171" on="0"/>
        <pt x="255" y="-19" on="1"/>
        <pt x="241" y="-19" on="1"/>
        <pt x="198" y="171" on="0"/>
        <pt x="113" y="546" on="0"/>
        <pt x="70" y="736" on="1"/>
      </contour>
    </TTGlyph>
    <TTGlyph name="bar" xMin="33" yMin="-232" xMax="178" yMax="700">
      <contour>
        <pt x="33" y="-232" on="1"/>
        <pt x="164" y="700" on="1"/>
        <pt x="178" y="700" on="1"/>
        <pt x="47" y="-232" on="1"/>
      </contour>
    </TTGlyph>
    <TTGlyph name="braceleft" xMin="28" yMin="-148" xMax="294" yMax="746">
      <contour>
        <pt x="28" y="287" on="1"/>
        <pt x="31" y="311" on="1"/>
        <pt x="56" y="312" on="0"/>
        <pt x="91" y="339" on="0"/>
        <pt x="114" y="379" on="0"/>
        <pt x="126" y="426" on="0"/>
        <pt x="129" y="446" on="1"/>
        <pt x="155" y="628" on="1"/>
        <pt x="161" y="673" on="0"/>
        <pt x="183" y="722" on="0"/>
        <pt x="210" y="743" on="0"/>
        <pt x="241" y="746" on="0"/>
        <pt x="257" y="746" on="1"/>
        <pt x="294" y="746" on="1"/>
        <pt x="292" y="732" on="1"/>
        <pt x="235" y="732" on="1"/>
        <pt x="204" y="732" on="0"/>
        <pt x="176" y="680" on="0"/>
        <pt x="168" y="620" on="1"/>
        <pt x="147" y="470" on="1"/>
        <pt x="140" y="423" on="0"/>
        <pt x="121" y="363" on="0"/>
        <pt x="97" y="326" on="0"/>
        <pt x="71" y="306" on="0"/>
        <pt x="57" y="299" on="1"/>
        <pt x="69" y="291" on="0"/>
        <pt x="90" y="271" on="0"/>
        <pt x="103" y="233" on="0"/>
        <pt x="105" y="174" on="0"/>
        <pt x="99" y="128" on="1"/>
        <pt x="77" y="-22" on="1"/>
        <pt x="69" y="-82" on="0"/>
        <pt x="83" y="-134" on="0"/>
        <pt x="114" y="-134" on="1"/>
        <pt x="171" y="-134" on="1"/>
        <pt x="169" y="-148" on="1"/>
        <pt x="132" y="-148" on="1"/>
        <pt x="112" y="-148" on="0"/>
        <pt x="81" y="-144" on="0"/>
        <pt x="62" y="-116" on="0"/>
        <pt x="59" y="-53" on="0"/>
        <pt x="67" y="6" on="1"/>
        <pt x="88" y="152" on="1"/>
        <pt x="91" y="172" on="0"/>
        <pt x="91" y="219" on="0"/>
        <pt x="79" y="259" on="0"/>
        <pt x="52" y="286" on="0"/>
      </contour>
    </TTGlyph>
    <TTGlyph name="braceright" xMin="25" yMin="-148" xMax="291" yMax="746">
      <contour>
        <pt x="291" y="311" on="1"/>
        <pt x="288" y="287" on="1"/>
        <pt x="256" y="285" on="0"/>
        <pt x="218" y="244" on="0"/>
        <pt x="196" y="189" on="0"/>
        <pt x="187" y="133" on="0"/>
        <pt x="185" y="116" on="1"/>
        <pt x="164" y="-30" on="1"/>
        <pt x="158" y="-76" on="0"/>
        <pt x="136" y="-125" on="0"/>
        <pt x="109" y="-146" on="0"/>
        <pt x="78" y="-148" on="0"/>
        <pt x="62" y="-148" on="1"/>
        <pt x="25" y="-148" on="1"/>
        <pt x="27" y="-134" on="1"/>
        <pt x="84" y="-134" on="1"/>
        <pt x="115" y="-134" on="0"/>
        <pt x="143" y="-82" on="0"/>
        <pt x="151" y="-22" on="1"/>
        <pt x="178" y="165" on="1"/>
        <pt x="182" y="199" on="0"/>
        <pt x="203" y="245" on="0"/>
        <pt x="227" y="276" on="0"/>
        <pt x="253" y="294" on="0"/>
        <pt x="263" y="299" on="1"/>
        <pt x="251" y="306" on="0"/>
        <pt x="229" y="326" on="0"/>
        <pt x="216" y="363" on="0"/>
        <pt x="214" y="423" on="0"/>
        <pt x="221" y="470" on="1"/>
        <pt x="242" y="620" on="1"/>
        <pt x="250" y="680" on="0"/>
        <pt x="236" y="732" on="0"/>
        <pt x="205" y="732" on="1"/>
        <pt x="148" y="732" on="1"/>
        <pt x="150" y="746" on="1"/>
        <pt x="187" y="746" on="1"/>
        <pt x="203" y="746" on="0"/>
        <pt x="234" y="743" on="0"/>
        <pt x="255" y="722" on="0"/>
        <pt x="263" y="674" on="0"/>
        <pt x="257" y="628" on="1"/>
        <pt x="236" y="482" on="1"/>
        <pt x="234" y="465" on="0"/>
        <pt x="227" y="408" on="0"/>
        <pt x="233" y="353" on="0"/>
        <pt x="260" y="312" on="0"/>
      </contour>
    </TTGlyph>
    <TTGlyph name="bracketleft" xMin="20" yMin="-149" xMax="308" yMax="746">
      <contour>
        <pt x="20" y="-149" on="1"/>
        <pt x="145" y="746" on="1"/>
        <pt x="308" y="746" on="1"/>
        <pt x="306" y="732" on="1"/>
        <pt x="159" y="732" on="1"/>
        <pt x="38" y="-135" on="1"/>
        <pt x="185" y="-135" on="1"/>
        <pt x="183" y="-149" on="1"/>
      </contour>
    </TTGlyph>
    <TTGlyph name="bracketright" xMin="25" yMin="-149" xMax="313" yMax="746">
      <contour>
        <pt x="313" y="746" on="1"/>
        <pt x="188" y="-149" on="1"/>
        <pt x="25" y="-149" on="1"/>
        <pt x="27" y="-135" on="1"/>
        <pt x="174" y="-135" on="1"/>
        <pt x="295" y="732" on="1"/>
        <pt x="148" y="732" on="1"/>
        <pt x="150" y="746" on="1"/>
      </contour>
    </TTGlyph>
    <TTGlyph name="brokenbar" xMin="36" yMin="-233" xMax="181" yMax="700">
      <contour>
        <pt x="50" y="-233" on="1"/>
        <pt x="36" y="-233" on="1"/>
        <pt x="85" y="117" on="1"/>
        <pt x="99" y="117" on="1"/>
      </contour>
      <contour>
        <pt x="132" y="350" on="1"/>
        <pt x="118" y="350" on="1"/>
        <pt x="167" y="700" on="1"/>
        <pt x="181" y="700" on="1"/>
      </contour>
    </TTGlyph>
    <TTGlyph name="bullet" xMin="169" yMin="235" xMax="309" yMax="366">
      <contour>
        <pt x="173" y="300" on="1"/>
        <pt x="178" y="328" on="0"/>
        <pt x="221" y="366" on="0"/>
        <pt x="248" y="366" on="1"/>
        <pt x="276" y="366" on="0"/>
        <pt x="309" y="328" on="0"/>
        <pt x="304" y="300" on="1"/>
        <pt x="300" y="273" on="0"/>
        <pt x="257" y="235" on="0"/>
        <pt x="229" y="235" on="1"/>
        <pt x="202" y="235" on="0"/>
        <pt x="169" y="273" on="0"/>
      </contour>
    </TTGlyph>
    <TTGlyph name="c" xMin="56" yMin="-6" xMax="400" yMax="383">
      <contour>
        <pt x="349" y="47" on="1"/>
        <pt x="351" y="45" on="0"/>
        <pt x="356" y="39" on="0"/>
        <pt x="358" y="37" on="1"/>
        <pt x="329" y="17" on="0"/>
        <pt x="264" y="-6" on="0"/>
        <pt x="229" y="-6" on="1"/>
        <pt x="188" y="-6" on="0"/>
        <pt x="122" y="24" on="0"/>
        <pt x="77" y="77" on="0"/>
        <pt x="56" y="147" on="0"/>
        <pt x="62" y="188" on="1"/>
        <pt x="68" y="232" on="0"/>
        <pt x="108" y="304" on="0"/>
        <pt x="168" y="355" on="0"/>
        <pt x="242" y="383" on="0"/>
        <pt x="283" y="383" on="1"/>
        <pt x="318" y="383" on="0"/>
        <pt x="378" y="360" on="0"/>
        <pt x="400" y="340" on="1"/>
        <pt x="398" y="337" on="0"/>
        <pt x="391" y="332" on="0"/>
        <pt x="389" y="329" on="1"/>
        <pt x="368" y="348" on="0"/>
        <pt x="313" y="369" on="0"/>
        <pt x="281" y="369" on="1"/>
        <pt x="243" y="369" on="0"/>
        <pt x="174" y="341" on="0"/>
        <pt x="118" y="291" on="0"/>
        <pt x="81" y="225" on="0"/>
        <pt x="76" y="188" on="1"/>
        <pt x="71" y="150" on="0"/>
        <pt x="90" y="85" on="0"/>
        <pt x="132" y="36" on="0"/>
        <pt x="193" y="8" on="0"/>
        <pt x="231" y="8" on="1"/>
        <pt x="263" y="8" on="0"/>
        <pt x="323" y="29" on="0"/>
      </contour>
    </TTGlyph>
    <TTGlyph name="ccedilla" xMin="45" yMin="-223" xMax="389" yMax="383">
      <contour>
        <pt x="338" y="47" on="1"/>
        <pt x="340" y="45" on="0"/>
        <pt x="344" y="39" on="0"/>
        <pt x="346" y="37" on="1"/>
        <pt x="293" y="-2" on="0"/>
        <pt x="227" y="-6" on="1"/>
        <pt x="225" y="-19" on="0"/>
        <pt x="231" y="-37" on="0"/>
        <pt x="241" y="-49" on="0"/>
        <pt x="255" y="-57" on="0"/>
        <pt x="261" y="-61" on="1"/>
        <pt x="281" y="-76" on="0"/>
        <pt x="295" y="-113" on="0"/>
        <pt x="293" y="-127" on="1"/>
        <pt x="286" y="-178" on="0"/>
        <pt x="229" y="-223" on="0"/>
        <pt x="196" y="-223" on="1"/>
        <pt x="178" y="-223" on="0"/>
        <pt x="163" y="-217" on="1"/>
        <pt x="148" y="-210" on="0"/>
        <pt x="127" y="-185" on="0"/>
        <pt x="123" y="-165" on="1"/>
        <pt x="127" y="-164" on="0"/>
        <pt x="134" y="-162" on="0"/>
        <pt x="139" y="-161" on="1"/>
        <pt x="142" y="-182" on="0"/>
        <pt x="173" y="-209" on="0"/>
        <pt x="198" y="-209" on="1"/>
        <pt x="229" y="-209" on="0"/>
        <pt x="273" y="-168" on="0"/>
        <pt x="278" y="-137" on="1"/>
        <pt x="282" y="-109" on="0"/>
        <pt x="260" y="-79" on="0"/>
        <pt x="232" y="-58" on="0"/>
        <pt x="209" y="-36" on="0"/>
        <pt x="212" y="-16" on="1"/>
        <pt x="213" y="-6" on="1"/>
        <pt x="174" y="-5" on="0"/>
        <pt x="109" y="25" on="0"/>
        <pt x="65" y="78" on="0"/>
        <pt x="45" y="148" on="0"/>
        <pt x="51" y="188" on="1"/>
        <pt x="57" y="228" on="0"/>
        <pt x="97" y="300" on="0"/>
        <pt x="157" y="352" on="0"/>
        <pt x="231" y="383" on="0"/>
        <pt x="272" y="383" on="1"/>
        <pt x="307" y="383" on="0"/>
        <pt x="367" y="360" on="0"/>
        <pt x="389" y="340" on="1"/>
        <pt x="386" y="337" on="0"/>
        <pt x="380" y="332" on="0"/>
        <pt x="377" y="329" on="1"/>
        <pt x="357" y="348" on="0"/>
        <pt x="302" y="369" on="0"/>
        <pt x="270" y="369" on="1"/>
        <pt x="232" y="369" on="0"/>
        <pt x="163" y="341" on="0"/>
        <pt x="107" y="291" on="0"/>
        <pt x="70" y="225" on="0"/>
        <pt x="65" y="188" on="1"/>
        <pt x="60" y="150" on="0"/>
        <pt x="78" y="85" on="0"/>
        <pt x="120" y="36" on="0"/>
        <pt x="181" y="8" on="0"/>
        <pt x="219" y="8" on="1"/>
        <pt x="251" y="8" on="0"/>
        <pt x="312" y="29" on="0"/>
      </contour>
    </TTGlyph>
    <TTGlyph name="cedilla" xMin="117" yMin="-223" xMax="289" yMax="0">
      <contour>
        <pt x="208" y="0" on="1"/>
        <pt x="222" y="0" on="1"/>
        <pt x="221" y="-6" on="1"/>
        <pt x="219" y="-19" on="0"/>
        <pt x="225" y="-37" on="0"/>
        <pt x="235" y="-49" on="0"/>
        <pt x="249" y="-57" on="0"/>
        <pt x="255" y="-61" on="1"/>
        <pt x="275" y="-76" on="0"/>
        <pt x="289" y="-113" on="0"/>
        <pt x="287" y="-127" on="1"/>
        <pt x="280" y="-178" on="0"/>
        <pt x="223" y="-223" on="0"/>
        <pt x="190" y="-223" on="1"/>
        <pt x="164" y="-223" on="0"/>
        <pt x="122" y="-194" on="0"/>
        <pt x="117" y="-165" on="1"/>
        <pt x="121" y="-164" on="0"/>
        <pt x="128" y="-162" on="0"/>
        <pt x="133" y="-161" on="1"/>
        <pt x="136" y="-182" on="0"/>
        <pt x="167" y="-209" on="0"/>
        <pt x="192" y="-209" on="1"/>
        <pt x="223" y="-209" on="0"/>
        <pt x="267" y="-168" on="0"/>
        <pt x="272" y="-137" on="1"/>
        <pt x="276" y="-109" on="0"/>
        <pt x="254" y="-79" on="0"/>
        <pt x="226" y="-58" on="0"/>
        <pt x="203" y="-36" on="0"/>
        <pt x="206" y="-16" on="1"/>
      </contour>
    </TTGlyph>
    <TTGlyph name="cent" xMin="30" yMin="-68" xMax="374" yMax="438">
      <contour>
        <pt x="50" y="188" on="1"/>
        <pt x="45" y="152" on="0"/>
        <pt x="62" y="89" on="0"/>
        <pt x="99" y="41" on="0"/>
        <pt x="155" y="11" on="0"/>
        <pt x="190" y="8" on="1"/>
        <pt x="240" y="368" on="1"/>
        <pt x="205" y="365" on="0"/>
        <pt x="140" y="335" on="0"/>
        <pt x="89" y="287" on="0"/>
        <pt x="55" y="224" on="0"/>
      </contour>
      <contour>
        <pt x="323" y="47" on="1"/>
        <pt x="325" y="45" on="0"/>
        <pt x="330" y="39" on="0"/>
        <pt x="332" y="37" on="1"/>
        <pt x="303" y="17" on="0"/>
        <pt x="237" y="-6" on="0"/>
        <pt x="202" y="-6" on="1"/>
        <pt x="193" y="-68" on="1"/>
        <pt x="179" y="-68" on="1"/>
        <pt x="188" y="-5" on="1"/>
        <pt x="150" y="-2" on="0"/>
        <pt x="89" y="30" on="0"/>
        <pt x="48" y="81" on="0"/>
        <pt x="30" y="149" on="0"/>
        <pt x="36" y="188" on="1"/>
        <pt x="41" y="227" on="0"/>
        <pt x="78" y="295" on="0"/>
        <pt x="134" y="347" on="0"/>
        <pt x="204" y="379" on="0"/>
        <pt x="242" y="382" on="1"/>
        <pt x="250" y="438" on="1"/>
        <pt x="264" y="438" on="1"/>
        <pt x="256" y="383" on="1"/>
        <pt x="291" y="383" on="0"/>
        <pt x="352" y="360" on="0"/>
        <pt x="374" y="340" on="1"/>
        <pt x="372" y="337" on="0"/>
        <pt x="365" y="332" on="0"/>
        <pt x="363" y="329" on="1"/>
        <pt x="342" y="348" on="0"/>
        <pt x="286" y="369" on="0"/>
        <pt x="254" y="369" on="1"/>
        <pt x="204" y="8" on="1"/>
        <pt x="236" y="8" on="0"/>
        <pt x="297" y="29" on="0"/>
      </contour>
    </TTGlyph>
    <TTGlyph name="colon" xMin="45" yMin="0" xMax="124" yMax="290">
      <contour>
        <pt x="82" y="270" on="1"/>
        <pt x="84" y="278" on="0"/>
        <pt x="97" y="290" on="0"/>
        <pt x="105" y="290" on="1"/>
        <pt x="113" y="290" on="0"/>
        <pt x="124" y="278" on="0"/>
        <pt x="122" y="270" on="1"/>
        <pt x="121" y="262" on="0"/>
        <pt x="107" y="250" on="0"/>
        <pt x="99" y="250" on="1"/>
        <pt x="91" y="250" on="0"/>
        <pt x="81" y="262" on="0"/>
      </contour>
      <contour>
        <pt x="47" y="20" on="1"/>
        <pt x="48" y="28" on="0"/>
        <pt x="62" y="40" on="0"/>
        <pt x="70" y="40" on="1"/>
        <pt x="78" y="40" on="0"/>
        <pt x="88" y="28" on="0"/>
        <pt x="87" y="20" on="1"/>
        <pt x="85" y="12" on="0"/>
        <pt x="72" y="0" on="0"/>
        <pt x="64" y="0" on="1"/>
        <pt x="56" y="0" on="0"/>
        <pt x="45" y="12" on="0"/>
      </contour>
    </TTGlyph>
    <TTGlyph name="comma" xMin="12" yMin="-120" xMax="141" yMax="86">
      <contour>
        <pt x="141" y="86" on="1"/>
        <pt x="112" y="34" on="0"/>
        <pt x="55" y="-68" on="0"/>
        <pt x="26" y="-120" on="1"/>
        <pt x="12" y="-120" on="1"/>
        <pt x="39" y="-68" on="0"/>
        <pt x="91" y="34" on="0"/>
        <pt x="118" y="86" on="1"/>
      </contour>
    </TTGlyph>
    <TTGlyph name="copyright" xMin="136" yMin="118" xMax="662" yMax="627">
      <contour>
        <pt x="365" y="132" on="1"/>
        <pt x="415" y="132" on="0"/>
        <pt x="508" y="168" on="0"/>
        <pt x="583" y="233" on="0"/>
        <pt x="633" y="320" on="0"/>
        <pt x="640" y="371" on="1"/>
        <pt x="647" y="423" on="0"/>
        <pt x="622" y="512" on="0"/>
        <pt x="565" y="577" on="0"/>
        <pt x="482" y="613" on="0"/>
        <pt x="432" y="613" on="1"/>
        <pt x="383" y="613" on="0"/>
        <pt x="291" y="577" on="0"/>
        <pt x="216" y="512" on="0"/>
        <pt x="165" y="423" on="0"/>
        <pt x="158" y="371" on="1"/>
        <pt x="151" y="320" on="0"/>
        <pt x="177" y="233" on="0"/>
        <pt x="234" y="168" on="0"/>
        <pt x="316" y="132" on="0"/>
      </contour>
      <contour>
        <pt x="364" y="118" on="1"/>
        <pt x="310" y="118" on="0"/>
        <pt x="222" y="156" on="0"/>
        <pt x="163" y="224" on="0"/>
        <pt x="136" y="317" on="0"/>
        <pt x="144" y="372" on="1"/>
        <pt x="152" y="427" on="0"/>
        <pt x="204" y="521" on="0"/>
        <pt x="282" y="589" on="0"/>
        <pt x="381" y="627" on="0"/>
        <pt x="435" y="627" on="1"/>
        <pt x="489" y="627" on="0"/>
        <pt x="577" y="589" on="0"/>
        <pt x="636" y="521" on="0"/>
        <pt x="662" y="427" on="0"/>
        <pt x="654" y="372" on="1"/>
        <pt x="646" y="317" on="0"/>
        <pt x="594" y="224" on="0"/>
        <pt x="516" y="156" on="0"/>
        <pt x="418" y="118" on="0"/>
      </contour>
      <contour>
        <pt x="465" y="241" on="1"/>
        <pt x="468" y="236" on="1"/>
        <pt x="448" y="225" on="0"/>
        <pt x="405" y="213" on="0"/>
        <pt x="382" y="213" on="1"/>
        <pt x="349" y="213" on="0"/>
        <pt x="293" y="239" on="0"/>
        <pt x="256" y="283" on="0"/>
        <pt x="239" y="342" on="0"/>
        <pt x="244" y="375" on="1"/>
        <pt x="248" y="409" on="0"/>
        <pt x="282" y="468" on="0"/>
        <pt x="332" y="512" on="0"/>
        <pt x="395" y="537" on="0"/>
        <pt x="428" y="537" on="1"/>
        <pt x="472" y="537" on="0"/>
        <pt x="507" y="515" on="1"/>
        <pt x="505" y="511" on="0"/>
        <pt x="503" y="509" on="1"/>
        <pt x="470" y="531" on="0"/>
        <pt x="427" y="531" on="1"/>
        <pt x="395" y="531" on="0"/>
        <pt x="335" y="506" on="0"/>
        <pt x="287" y="463" on="0"/>
        <pt x="254" y="406" on="0"/>
        <pt x="250" y="374" on="1"/>
        <pt x="245" y="342" on="0"/>
        <pt x="262" y="286" on="0"/>
        <pt x="298" y="244" on="0"/>
        <pt x="350" y="220" on="0"/>
        <pt x="382" y="220" on="1"/>
        <pt x="404" y="220" on="0"/>
        <pt x="445" y="231" on="0"/>
      </contour>
    </TTGlyph>
    <TTGlyph name="currency" xMin="90" yMin="219" xMax="402" yMax="496">
      <contour>
        <pt x="129" y="361" on="1"/>
        <pt x="126" y="336" on="0"/>
        <pt x="138" y="293" on="0"/>
        <pt x="165" y="261" on="0"/>
        <pt x="206" y="242" on="0"/>
        <pt x="230" y="242" on="1"/>
        <pt x="254" y="242" on="0"/>
        <pt x="300" y="261" on="0"/>
        <pt x="337" y="293" on="0"/>
        <pt x="362" y="336" on="0"/>
        <pt x="365" y="361" on="1"/>
        <pt x="368" y="386" on="0"/>
        <pt x="356" y="429" on="0"/>
        <pt x="329" y="461" on="0"/>
        <pt x="288" y="480" on="0"/>
        <pt x="264" y="480" on="1"/>
        <pt x="240" y="480" on="0"/>
        <pt x="194" y="461" on="0"/>
        <pt x="157" y="429" on="0"/>
        <pt x="132" y="386" on="0"/>
      </contour>
      <contour>
        <pt x="115" y="361" on="1"/>
        <pt x="119" y="386" on="0"/>
        <pt x="142" y="430" on="0"/>
        <pt x="159" y="448" on="1"/>
        <pt x="151" y="458" on="0"/>
        <pt x="135" y="476" on="0"/>
        <pt x="127" y="486" on="1"/>
        <pt x="138" y="496" on="1"/>
        <pt x="171" y="458" on="1"/>
        <pt x="191" y="475" on="0"/>
        <pt x="240" y="494" on="0"/>
        <pt x="266" y="494" on="1"/>
        <pt x="292" y="494" on="0"/>
        <pt x="336" y="474" on="0"/>
        <pt x="350" y="457" on="1"/>
        <pt x="394" y="495" on="1"/>
        <pt x="402" y="485" on="1"/>
        <pt x="359" y="447" on="1"/>
        <pt x="372" y="430" on="0"/>
        <pt x="383" y="386" on="0"/>
        <pt x="379" y="361" on="1"/>
        <pt x="375" y="335" on="0"/>
        <pt x="350" y="289" on="0"/>
        <pt x="331" y="271" on="1"/>
        <pt x="367" y="230" on="1"/>
        <pt x="355" y="220" on="1"/>
        <pt x="346" y="231" on="0"/>
        <pt x="329" y="250" on="0"/>
        <pt x="320" y="261" on="1"/>
        <pt x="279" y="228" on="0"/>
        <pt x="228" y="228" on="1"/>
        <pt x="178" y="228" on="0"/>
        <pt x="146" y="260" on="1"/>
        <pt x="99" y="219" on="1"/>
        <pt x="90" y="229" on="1"/>
        <pt x="137" y="270" on="1"/>
        <pt x="123" y="288" on="0"/>
        <pt x="111" y="335" on="0"/>
      </contour>
    </TTGlyph>
    <TTGlyph name="d" xMin="75" yMin="-6" xMax="549" yMax="750">
      <contour>
        <pt x="95" y="188" on="1"/>
        <pt x="90" y="150" on="0"/>
        <pt x="109" y="85" on="0"/>
        <pt x="151" y="36" on="0"/>
        <pt x="212" y="8" on="0"/>
        <pt x="250" y="8" on="1"/>
        <pt x="287" y="8" on="0"/>
        <pt x="357" y="36" on="0"/>
        <pt x="413" y="85" on="0"/>
        <pt x="451" y="150" on="0"/>
        <pt x="456" y="188" on="1"/>
        <pt x="461" y="225" on="0"/>
        <pt x="442" y="291" on="0"/>
        <pt x="400" y="341" on="0"/>
        <pt x="337" y="369" on="0"/>
        <pt x="300" y="369" on="1"/>
        <pt x="262" y="369" on="0"/>
        <pt x="193" y="341" on="0"/>
        <pt x="137" y="291" on="0"/>
        <pt x="100" y="225" on="0"/>
      </contour>
      <contour>
        <pt x="81" y="188" on="1"/>
        <pt x="87" y="231" on="0"/>
        <pt x="127" y="302" on="0"/>
        <pt x="187" y="354" on="0"/>
        <pt x="261" y="383" on="0"/>
        <pt x="302" y="383" on="1"/>
        <pt x="365" y="383" on="0"/>
        <pt x="452" y="314" on="0"/>
        <pt x="466" y="260" on="1"/>
        <pt x="468" y="274" on="0"/>
        <pt x="472" y="300" on="0"/>
        <pt x="474" y="314" on="1"/>
        <pt x="535" y="750" on="1"/>
        <pt x="549" y="750" on="1"/>
        <pt x="444" y="0" on="1"/>
        <pt x="430" y="0" on="1"/>
        <pt x="437" y="54" on="1"/>
        <pt x="439" y="70" on="0"/>
        <pt x="445" y="101" on="0"/>
        <pt x="447" y="117" on="1"/>
        <pt x="418" y="63" on="0"/>
        <pt x="311" y="-6" on="0"/>
        <pt x="248" y="-6" on="1"/>
        <pt x="207" y="-6" on="0"/>
        <pt x="141" y="24" on="0"/>
        <pt x="96" y="77" on="0"/>
        <pt x="75" y="147" on="0"/>
      </contour>
    </TTGlyph>
    <TTGlyph name="degree" xMin="55" yMin="484" xMax="218" yMax="636">
      <contour>
        <pt x="129" y="498" on="1"/>
        <pt x="155" y="498" on="0"/>
        <pt x="196" y="534" on="0"/>
        <pt x="200" y="560" on="1"/>
        <pt x="203" y="586" on="0"/>
        <pt x="172" y="622" on="0"/>
        <pt x="146" y="622" on="1"/>
        <pt x="120" y="622" on="0"/>
        <pt x="78" y="586" on="0"/>
        <pt x="75" y="560" on="1"/>
        <pt x="71" y="534" on="0"/>
        <pt x="103" y="498" on="0"/>
      </contour>
      <contour>
        <pt x="60" y="559" on="1"/>
        <pt x="65" y="592" on="0"/>
        <pt x="115" y="636" on="0"/>
        <pt x="148" y="636" on="1"/>
        <pt x="180" y="636" on="0"/>
        <pt x="218" y="592" on="0"/>
        <pt x="213" y="559" on="1"/>
        <pt x="208" y="527" on="0"/>
        <pt x="159" y="484" on="0"/>
        <pt x="127" y="484" on="1"/>
        <pt x="94" y="484" on="0"/>
        <pt x="55" y="527" on="0"/>
      </contour>
    </TTGlyph>
    <TTGlyph name="dieresis" xMin="80" yMin="480" xMax="288" yMax="520">
      <contour>
        <pt x="247" y="500" on="1"/>
        <pt x="248" y="508" on="0"/>
        <pt x="261" y="520" on="0"/>
        <pt x="269" y="520" on="1"/>
        <pt x="277" y="520" on="0"/>
        <pt x="288" y="508" on="0"/>
        <pt x="287" y="500" on="1"/>
        <pt x="285" y="492" on="0"/>
        <pt x="272" y="480" on="0"/>
        <pt x="264" y="480" on="1"/>
        <pt x="256" y="480" on="0"/>
        <pt x="245" y="492" on="0"/>
      </contour>
      <contour>
        <pt x="82" y="500" on="1"/>
        <pt x="83" y="508" on="0"/>
        <pt x="96" y="520" on="0"/>
        <pt x="104" y="520" on="1"/>
        <pt x="112" y="520" on="0"/>
        <pt x="123" y="508" on="0"/>
        <pt x="122" y="500" on="1"/>
        <pt x="120" y="492" on="0"/>
        <pt x="107" y="480" on="0"/>
        <pt x="99" y="480" on="1"/>
        <pt x="91" y="480" on="0"/>
        <pt x="80" y="492" on="0"/>
      </contour>
    </TTGlyph>
    <TTGlyph name="divide" xMin="67" yMin="71" xMax="428" yMax="361">
      <contour>
        <pt x="427" y="210" on="1"/>
        <pt x="67" y="210" on="1"/>
        <pt x="68" y="224" on="1"/>
        <pt x="428" y="224" on="1"/>
      </contour>
      <contour>
        <pt x="248" y="341" on="1"/>
        <pt x="250" y="349" on="0"/>
        <pt x="263" y="361" on="0"/>
        <pt x="271" y="361" on="1"/>
        <pt x="279" y="361" on="0"/>
        <pt x="290" y="349" on="0"/>
        <pt x="288" y="341" on="1"/>
        <pt x="287" y="333" on="0"/>
        <pt x="273" y="321" on="0"/>
        <pt x="265" y="321" on="1"/>
        <pt x="257" y="321" on="0"/>
        <pt x="247" y="333" on="0"/>
      </contour>
      <contour>
        <pt x="213" y="91" on="1"/>
        <pt x="214" y="99" on="0"/>
        <pt x="228" y="111" on="0"/>
        <pt x="236" y="111" on="1"/>
        <pt x="244" y="111" on="0"/>
        <pt x="254" y="99" on="0"/>
        <pt x="253" y="91" on="1"/>
        <pt x="251" y="83" on="0"/>
        <pt x="238" y="71" on="0"/>
        <pt x="230" y="71" on="1"/>
        <pt x="222" y="71" on="0"/>
        <pt x="211" y="83" on="0"/>
      </contour>
    </TTGlyph>
    <TTGlyph name="dollar" xMin="42" yMin="-68" xMax="468" yMax="764">
      <contour>
        <pt x="139" y="530" on="1"/>
        <pt x="134" y="499" on="0"/>
        <pt x="147" y="454" on="0"/>
        <pt x="177" y="422" on="0"/>
        <pt x="224" y="398" on="0"/>
        <pt x="254" y="388" on="1"/>
        <pt x="260" y="385" on="0"/>
        <pt x="268" y="383" on="1"/>
        <pt x="312" y="690" on="1"/>
        <pt x="274" y="689" on="0"/>
        <pt x="214" y="661" on="0"/>
        <pt x="170" y="617" on="0"/>
        <pt x="143" y="560" on="0"/>
      </contour>
      <contour>
        <pt x="446" y="182" on="1"/>
        <pt x="452" y="227" on="0"/>
        <pt x="426" y="287" on="0"/>
        <pt x="376" y="329" on="0"/>
        <pt x="312" y="355" on="0"/>
        <pt x="280" y="365" on="1"/>
        <pt x="229" y="6" on="1"/>
        <pt x="267" y="7" on="0"/>
        <pt x="340" y="33" on="0"/>
        <pt x="400" y="79" on="0"/>
        <pt x="441" y="143" on="0"/>
      </contour>
      <contour>
        <pt x="462" y="647" on="1"/>
        <pt x="458" y="643" on="0"/>
        <pt x="452" y="635" on="1"/>
        <pt x="444" y="643" on="0"/>
        <pt x="421" y="661" on="0"/>
        <pt x="389" y="677" on="0"/>
        <pt x="350" y="689" on="0"/>
        <pt x="326" y="690" on="1"/>
        <pt x="282" y="378" on="1"/>
        <pt x="312" y="368" on="0"/>
        <pt x="380" y="343" on="0"/>
        <pt x="436" y="301" on="0"/>
        <pt x="468" y="235" on="0"/>
        <pt x="461" y="186" on="1"/>
        <pt x="455" y="142" on="0"/>
        <pt x="412" y="72" on="0"/>
        <pt x="349" y="21" on="0"/>
        <pt x="270" y="-7" on="0"/>
        <pt x="227" y="-8" on="1"/>
        <pt x="219" y="-68" on="1"/>
        <pt x="205" y="-68" on="1"/>
        <pt x="213" y="-8" on="1"/>
        <pt x="175" y="-7" on="0"/>
        <pt x="118" y="14" on="0"/>
        <pt x="77" y="41" on="0"/>
        <pt x="49" y="69" on="0"/>
        <pt x="42" y="78" on="1"/>
        <pt x="55" y="90" on="1"/>
        <pt x="67" y="76" on="0"/>
        <pt x="98" y="46" on="0"/>
        <pt x="137" y="22" on="0"/>
        <pt x="185" y="7" on="0"/>
        <pt x="215" y="6" on="1"/>
        <pt x="266" y="369" on="1"/>
        <pt x="265" y="370" on="0"/>
        <pt x="263" y="370" on="0"/>
        <pt x="261" y="371" on="1"/>
        <pt x="243" y="376" on="0"/>
        <pt x="193" y="394" on="0"/>
        <pt x="149" y="427" on="0"/>
        <pt x="120" y="478" on="0"/>
        <pt x="123" y="517" on="1"/>
        <pt x="125" y="550" on="0"/>
        <pt x="152" y="615" on="0"/>
        <pt x="200" y="668" on="0"/>
        <pt x="269" y="702" on="0"/>
        <pt x="314" y="704" on="1"/>
        <pt x="322" y="764" on="1"/>
        <pt x="336" y="764" on="1"/>
        <pt x="328" y="704" on="1"/>
        <pt x="363" y="703" on="0"/>
        <pt x="431" y="677" on="0"/>
      </contour>
    </TTGlyph>
    <TTGlyph name="e" xMin="56" yMin="-6" xMax="435" yMax="383">
      <contour>
        <pt x="281" y="369" on="1"/>
        <pt x="241" y="369" on="0"/>
        <pt x="171" y="343" on="0"/>
        <pt x="117" y="296" on="0"/>
        <pt x="81" y="229" on="0"/>
        <pt x="76" y="188" on="1"/>
        <pt x="72" y="162" on="0"/>
        <pt x="75" y="135" on="1"/>
        <pt x="162" y="168" on="0"/>
        <pt x="332" y="233" on="0"/>
        <pt x="418" y="266" on="1"/>
        <pt x="404" y="312" on="0"/>
        <pt x="331" y="369" on="0"/>
      </contour>
      <contour>
        <pt x="435" y="259" on="1"/>
        <pt x="345" y="224" on="0"/>
        <pt x="168" y="157" on="0"/>
        <pt x="79" y="122" on="1"/>
        <pt x="91" y="71" on="0"/>
        <pt x="173" y="8" on="0"/>
        <pt x="231" y="8" on="1"/>
        <pt x="267" y="8" on="0"/>
        <pt x="334" y="34" on="0"/>
        <pt x="362" y="57" on="1"/>
        <pt x="364" y="54" on="0"/>
        <pt x="367" y="49" on="0"/>
        <pt x="369" y="46" on="1"/>
        <pt x="339" y="22" on="0"/>
        <pt x="268" y="-6" on="0"/>
        <pt x="229" y="-6" on="1"/>
        <pt x="188" y="-6" on="0"/>
        <pt x="122" y="24" on="0"/>
        <pt x="77" y="77" on="0"/>
        <pt x="56" y="147" on="0"/>
        <pt x="62" y="188" on="1"/>
        <pt x="68" y="232" on="0"/>
        <pt x="106" y="304" on="0"/>
        <pt x="165" y="355" on="0"/>
        <pt x="240" y="383" on="0"/>
        <pt x="283" y="383" on="1"/>
        <pt x="341" y="383" on="0"/>
        <pt x="423" y="314" on="0"/>
      </contour>
    </TTGlyph>
    <TTGlyph name="eacute" xMin="56" yMin="-6" xMax="435" yMax="612">
      <component glyphName="e" x="0" y="0" flags="0x204"/>
      <component glyphName="acute" x="204" y="0" flags="0x4"/>
    </TTGlyph>
    <TTGlyph name="ecircumflex" xMin="56" yMin="-6" xMax="435" yMax="660">
      <component glyphName="e" x="0" y="0" flags="0x204"/>
      <component glyphName="asciicircum" x="80" y="0" flags="0x4"/>
    </TTGlyph>
    <TTGlyph name="edieresis" xMin="56" yMin="-6" xMax="435" yMax="520">
      <component glyphName="e" x="0" y="0" flags="0x204"/>
      <component glyphName="dieresis" x="110" y="0" flags="0x4"/>
    </TTGlyph>
    <TTGlyph name="egrave" xMin="56" yMin="-6" xMax="435" yMax="612">
      <component glyphName="e" x="0" y="0" flags="0x204"/>
      <component glyphName="grave" x="212" y="0" flags="0x4"/>
    </TTGlyph>
    <TTGlyph name="eight" xMin="28" yMin="-8" xMax="446" yMax="658">
      <contour>
        <pt x="148" y="511" on="1"/>
        <pt x="144" y="486" on="0"/>
        <pt x="158" y="444" on="0"/>
        <pt x="190" y="413" on="0"/>
        <pt x="235" y="396" on="0"/>
        <pt x="263" y="396" on="1"/>
        <pt x="290" y="396" on="0"/>
        <pt x="340" y="413" on="0"/>
        <pt x="379" y="444" on="0"/>
        <pt x="404" y="486" on="0"/>
        <pt x="408" y="511" on="1"/>
        <pt x="412" y="538" on="0"/>
        <pt x="399" y="586" on="0"/>
        <pt x="369" y="622" on="0"/>
        <pt x="325" y="644" on="0"/>
        <pt x="298" y="644" on="1"/>
        <pt x="270" y="644" on="0"/>
        <pt x="219" y="622" on="0"/>
        <pt x="179" y="586" on="0"/>
        <pt x="152" y="538" on="0"/>
      </contour>
      <contour>
        <pt x="48" y="195" on="1"/>
        <pt x="43" y="157" on="0"/>
        <pt x="62" y="88" on="0"/>
        <pt x="105" y="36" on="0"/>
        <pt x="169" y="5" on="0"/>
        <pt x="208" y="5" on="1"/>
        <pt x="248" y="5" on="0"/>
        <pt x="322" y="36" on="0"/>
        <pt x="382" y="88" on="0"/>
        <pt x="422" y="157" on="0"/>
        <pt x="427" y="195" on="1"/>
        <pt x="433" y="234" on="0"/>
        <pt x="412" y="301" on="0"/>
        <pt x="366" y="352" on="0"/>
        <pt x="300" y="381" on="0"/>
        <pt x="260" y="381" on="1"/>
        <pt x="221" y="381" on="0"/>
        <pt x="149" y="352" on="0"/>
        <pt x="92" y="301" on="0"/>
        <pt x="54" y="234" on="0"/>
      </contour>
      <contour>
        <pt x="34" y="195" on="1"/>
        <pt x="39" y="230" on="0"/>
        <pt x="70" y="293" on="0"/>
        <pt x="118" y="344" on="0"/>
        <pt x="178" y="381" on="0"/>
        <pt x="212" y="389" on="1"/>
        <pt x="172" y="403" on="0"/>
        <pt x="128" y="472" on="0"/>
        <pt x="135" y="518" on="1"/>
        <pt x="139" y="547" on="0"/>
        <pt x="168" y="598" on="0"/>
        <pt x="213" y="636" on="0"/>
        <pt x="268" y="658" on="0"/>
        <pt x="298" y="658" on="1"/>
        <pt x="328" y="658" on="0"/>
        <pt x="377" y="635" on="0"/>
        <pt x="411" y="596" on="0"/>
        <pt x="426" y="544" on="0"/>
        <pt x="422" y="514" on="1"/>
        <pt x="416" y="470" on="0"/>
        <pt x="355" y="403" on="0"/>
        <pt x="312" y="389" on="1"/>
        <pt x="345" y="381" on="0"/>
        <pt x="397" y="345" on="0"/>
        <pt x="432" y="294" on="0"/>
        <pt x="446" y="231" on="0"/>
        <pt x="441" y="195" on="1"/>
        <pt x="435" y="153" on="0"/>
        <pt x="392" y="79" on="0"/>
        <pt x="329" y="24" on="0"/>
        <pt x="250" y="-8" on="0"/>
        <pt x="208" y="-8" on="1"/>
        <pt x="166" y="-8" on="0"/>
        <pt x="97" y="24" on="0"/>
        <pt x="50" y="79" on="0"/>
        <pt x="28" y="153" on="0"/>
      </contour>
    </TTGlyph>
    <TTGlyph name="emdash" xMin="98" yMin="179" xMax="601" yMax="193">
      <contour>
        <pt x="98" y="179" on="1"/>
        <pt x="99" y="193" on="1"/>
        <pt x="601" y="193" on="1"/>
        <pt x="600" y="179" on="1"/>
      </contour>
    </TTGlyph>
    <TTGlyph name="endash" xMin="99" yMin="179" xMax="401" yMax="193">
      <contour>
        <pt x="99" y="179" on="1"/>
        <pt x="100" y="193" on="1"/>
        <pt x="401" y="193" on="1"/>
        <pt x="400" y="179" on="1"/>
      </contour>
    </TTGlyph>
    <TTGlyph name="equal" xMin="85" yMin="150" xMax="620" yMax="358">
      <contour>
        <pt x="593" y="164" on="1"/>
        <pt x="591" y="150" on="1"/>
        <pt x="85" y="150" on="1"/>
        <pt x="87" y="164" on="1"/>
      </contour>
      <contour>
        <pt x="620" y="358" on="1"/>
        <pt x="618" y="344" on="1"/>
        <pt x="112" y="344" on="1"/>
        <pt x="114" y="358" on="1"/>
      </contour>
    </TTGlyph>
    <TTGlyph name="eth" xMin="21" yMin="-6" xMax="424" yMax="726">
      <contour>
        <pt x="41" y="188" on="1"/>
        <pt x="36" y="150" on="0"/>
        <pt x="55" y="85" on="0"/>
        <pt x="97" y="36" on="0"/>
        <pt x="158" y="8" on="0"/>
        <pt x="196" y="8" on="1"/>
        <pt x="233" y="8" on="0"/>
        <pt x="303" y="36" on="0"/>
        <pt x="359" y="85" on="0"/>
        <pt x="397" y="150" on="0"/>
        <pt x="402" y="188" on="1"/>
        <pt x="407" y="225" on="0"/>
        <pt x="388" y="291" on="0"/>
        <pt x="346" y="341" on="0"/>
        <pt x="284" y="369" on="0"/>
        <pt x="247" y="369" on="1"/>
        <pt x="209" y="369" on="0"/>
        <pt x="140" y="341" on="0"/>
        <pt x="84" y="291" on="0"/>
        <pt x="46" y="225" on="0"/>
      </contour>
      <contour>
        <pt x="172" y="547" on="1"/>
        <pt x="194" y="567" on="0"/>
        <pt x="238" y="609" on="0"/>
        <pt x="259" y="629" on="1"/>
        <pt x="241" y="652" on="0"/>
        <pt x="201" y="697" on="0"/>
        <pt x="178" y="717" on="1"/>
        <pt x="180" y="719" on="0"/>
        <pt x="183" y="724" on="0"/>
        <pt x="185" y="726" on="1"/>
        <pt x="229" y="688" on="0"/>
        <pt x="268" y="637" on="1"/>
        <pt x="288" y="657" on="0"/>
        <pt x="329" y="694" on="0"/>
        <pt x="349" y="714" on="1"/>
        <pt x="351" y="712" on="0"/>
        <pt x="354" y="709" on="0"/>
        <pt x="356" y="707" on="1"/>
        <pt x="336" y="687" on="0"/>
        <pt x="295" y="649" on="0"/>
        <pt x="274" y="629" on="1"/>
        <pt x="308" y="581" on="0"/>
        <pt x="367" y="471" on="0"/>
        <pt x="407" y="357" on="0"/>
        <pt x="424" y="242" on="0"/>
        <pt x="416" y="188" on="1"/>
        <pt x="410" y="147" on="0"/>
        <pt x="370" y="77" on="0"/>
        <pt x="310" y="24" on="0"/>
        <pt x="234" y="-6" on="0"/>
        <pt x="194" y="-6" on="1"/>
        <pt x="153" y="-6" on="0"/>
        <pt x="87" y="24" on="0"/>
        <pt x="42" y="77" on="0"/>
        <pt x="21" y="147" on="0"/>
        <pt x="27" y="188" on="1"/>
        <pt x="33" y="228" on="0"/>
        <pt x="73" y="300" on="0"/>
        <pt x="133" y="352" on="0"/>
        <pt x="208" y="383" on="0"/>
        <pt x="249" y="383" on="1"/>
        <pt x="300" y="383" on="0"/>
        <pt x="379" y="335" on="0"/>
        <pt x="399" y="295" on="1"/>
        <pt x="397" y="323" on="0"/>
        <pt x="380" y="396" on="0"/>
        <pt x="349" y="480" on="0"/>
        <pt x="300" y="572" on="0"/>
        <pt x="265" y="620" on="1"/>
        <pt x="243" y="600" on="0"/>
        <pt x="200" y="559" on="0"/>
        <pt x="179" y="539" on="1"/>
        <pt x="174" y="544" on="0"/>
      </contour>
    </TTGlyph>
    <TTGlyph name="exclam" xMin="31" yMin="36" xMax="156" yMax="750">
      <contour>
        <pt x="48" y="36" on="1"/>
        <pt x="41" y="36" on="0"/>
        <pt x="31" y="48" on="0"/>
        <pt x="32" y="56" on="1"/>
        <pt x="33" y="65" on="0"/>
        <pt x="47" y="76" on="0"/>
        <pt x="54" y="76" on="1"/>
        <pt x="62" y="76" on="0"/>
        <pt x="72" y="65" on="0"/>
        <pt x="71" y="56" on="1"/>
        <pt x="70" y="48" on="0"/>
        <pt x="56" y="36" on="0"/>
        <pt x="48" y="36" on="1"/>
      </contour>
      <contour>
        <pt x="142" y="750" on="1"/>
        <pt x="156" y="750" on="1"/>
        <pt x="74" y="166" on="1"/>
        <pt x="60" y="166" on="1"/>
      </contour>
    </TTGlyph>
    <TTGlyph name="exclamdown" xMin="41" yMin="-210" xMax="167" yMax="504">
      <contour>
        <pt x="149" y="504" on="1"/>
        <pt x="157" y="504" on="0"/>
        <pt x="167" y="492" on="0"/>
        <pt x="166" y="484" on="1"/>
        <pt x="165" y="475" on="0"/>
        <pt x="151" y="464" on="0"/>
        <pt x="143" y="464" on="1"/>
        <pt x="136" y="464" on="0"/>
        <pt x="126" y="475" on="0"/>
        <pt x="127" y="484" on="1"/>
        <pt x="128" y="492" on="0"/>
        <pt x="142" y="504" on="0"/>
      </contour>
      <contour>
        <pt x="123" y="374" on="1"/>
        <pt x="137" y="374" on="1"/>
        <pt x="55" y="-210" on="1"/>
        <pt x="41" y="-210" on="1"/>
      </contour>
    </TTGlyph>
    <TTGlyph name="f" xMin="72" yMin="0" xMax="377" yMax="750">
      <contour>
        <pt x="72" y="358" on="1"/>
        <pt x="74" y="372" on="1"/>
        <pt x="139" y="372" on="1"/>
        <pt x="159" y="518" on="1"/>
        <pt x="167" y="573" on="0"/>
        <pt x="208" y="659" on="0"/>
        <pt x="267" y="717" on="0"/>
        <pt x="339" y="748" on="0"/>
        <pt x="377" y="750" on="1"/>
        <pt x="375" y="736" on="1"/>
        <pt x="341" y="736" on="0"/>
        <pt x="275" y="706" on="0"/>
        <pt x="220" y="650" on="0"/>
        <pt x="181" y="571" on="0"/>
        <pt x="174" y="522" on="1"/>
        <pt x="153" y="372" on="1"/>
        <pt x="283" y="372" on="1"/>
        <pt x="281" y="358" on="1"/>
        <pt x="151" y="358" on="1"/>
        <pt x="101" y="0" on="1"/>
        <pt x="87" y="0" on="1"/>
        <pt x="137" y="358" on="1"/>
      </contour>
    </TTGlyph>
    <TTGlyph name="five" xMin="76" yMin="-8" xMax="476" yMax="650">
      <contour>
        <pt x="145" y="341" on="1"/>
        <pt x="189" y="650" on="1"/>
        <pt x="476" y="650" on="1"/>
        <pt x="474" y="636" on="1"/>
        <pt x="201" y="636" on="1"/>
        <pt x="164" y="372" on="1"/>
        <pt x="188" y="383" on="0"/>
        <pt x="239" y="395" on="0"/>
        <pt x="265" y="395" on="1"/>
        <pt x="307" y="395" on="0"/>
        <pt x="377" y="364" on="0"/>
        <pt x="426" y="310" on="0"/>
        <pt x="448" y="237" on="0"/>
        <pt x="442" y="195" on="1"/>
        <pt x="436" y="153" on="0"/>
        <pt x="393" y="79" on="0"/>
        <pt x="329" y="24" on="0"/>
        <pt x="250" y="-8" on="0"/>
        <pt x="208" y="-8" on="1"/>
        <pt x="167" y="-8" on="0"/>
        <pt x="100" y="22" on="0"/>
        <pt x="76" y="48" on="1"/>
        <pt x="80" y="50" on="0"/>
        <pt x="85" y="56" on="0"/>
        <pt x="89" y="58" on="1"/>
        <pt x="109" y="33" on="0"/>
        <pt x="170" y="6" on="0"/>
        <pt x="208" y="6" on="1"/>
        <pt x="248" y="6" on="0"/>
        <pt x="322" y="36" on="0"/>
        <pt x="382" y="88" on="0"/>
        <pt x="422" y="157" on="0"/>
        <pt x="428" y="195" on="1"/>
        <pt x="433" y="234" on="0"/>
        <pt x="412" y="301" on="0"/>
        <pt x="367" y="352" on="0"/>
        <pt x="301" y="381" on="0"/>
        <pt x="261" y="381" on="1"/>
        <pt x="226" y="381" on="0"/>
        <pt x="165" y="358" on="0"/>
      </contour>
    </TTGlyph>
    <TTGlyph name="four" xMin="16" yMin="0" xMax="481" yMax="658">
      <contour>
        <pt x="429" y="617" on="1"/>
        <pt x="48" y="197" on="1"/>
        <pt x="370" y="197" on="1"/>
      </contour>
      <contour>
        <pt x="16" y="183" on="1"/>
        <pt x="125" y="302" on="0"/>
        <pt x="340" y="539" on="0"/>
        <pt x="449" y="658" on="1"/>
        <pt x="384" y="197" on="1"/>
        <pt x="481" y="197" on="1"/>
        <pt x="479" y="183" on="1"/>
        <pt x="382" y="183" on="1"/>
        <pt x="356" y="0" on="1"/>
        <pt x="342" y="0" on="1"/>
        <pt x="368" y="183" on="1"/>
      </contour>
    </TTGlyph>
    <TTGlyph name="g" xMin="69" yMin="-250" xMax="490" yMax="383">
      <contour>
        <pt x="89" y="188" on="1"/>
        <pt x="84" y="150" on="0"/>
        <pt x="103" y="85" on="0"/>
        <pt x="145" y="36" on="0"/>
        <pt x="206" y="8" on="0"/>
        <pt x="244" y="8" on="1"/>
        <pt x="281" y="8" on="0"/>
        <pt x="351" y="36" on="0"/>
        <pt x="407" y="85" on="0"/>
        <pt x="445" y="150" on="0"/>
        <pt x="450" y="188" on="1"/>
        <pt x="455" y="225" on="0"/>
        <pt x="436" y="291" on="0"/>
        <pt x="394" y="341" on="0"/>
        <pt x="331" y="369" on="0"/>
        <pt x="294" y="369" on="1"/>
        <pt x="256" y="369" on="0"/>
        <pt x="187" y="341" on="0"/>
        <pt x="131" y="291" on="0"/>
        <pt x="94" y="225" on="0"/>
      </contour>
      <contour>
        <pt x="480" y="375" on="1"/>
        <pt x="490" y="375" on="1"/>
        <pt x="435" y="-18" on="1"/>
        <pt x="427" y="-74" on="0"/>
        <pt x="386" y="-159" on="0"/>
        <pt x="327" y="-217" on="0"/>
        <pt x="255" y="-249" on="0"/>
        <pt x="217" y="-250" on="1"/>
        <pt x="197" y="-249" on="0"/>
        <pt x="156" y="-243" on="0"/>
        <pt x="118" y="-229" on="0"/>
        <pt x="85" y="-207" on="0"/>
        <pt x="75" y="-190" on="1"/>
        <pt x="78" y="-188" on="0"/>
        <pt x="85" y="-185" on="0"/>
        <pt x="89" y="-183" on="1"/>
        <pt x="109" y="-213" on="0"/>
        <pt x="183" y="-236" on="0"/>
        <pt x="219" y="-236" on="1"/>
        <pt x="253" y="-236" on="0"/>
        <pt x="320" y="-206" on="0"/>
        <pt x="375" y="-150" on="0"/>
        <pt x="413" y="-71" on="0"/>
        <pt x="420" y="-22" on="1"/>
        <pt x="431" y="54" on="1"/>
        <pt x="433" y="70" on="0"/>
        <pt x="439" y="101" on="0"/>
        <pt x="441" y="117" on="1"/>
        <pt x="412" y="63" on="0"/>
        <pt x="305" y="-6" on="0"/>
        <pt x="242" y="-6" on="1"/>
        <pt x="201" y="-6" on="0"/>
        <pt x="135" y="24" on="0"/>
        <pt x="90" y="77" on="0"/>
        <pt x="69" y="147" on="0"/>
        <pt x="75" y="188" on="1"/>
        <pt x="81" y="232" on="0"/>
        <pt x="121" y="304" on="0"/>
        <pt x="181" y="355" on="0"/>
        <pt x="255" y="383" on="0"/>
        <pt x="296" y="383" on="1"/>
        <pt x="327" y="383" on="0"/>
        <pt x="380" y="365" on="0"/>
        <pt x="423" y="332" on="0"/>
        <pt x="453" y="287" on="0"/>
        <pt x="460" y="260" on="1"/>
        <pt x="464" y="289" on="0"/>
        <pt x="475" y="346" on="0"/>
      </contour>
    </TTGlyph>
    <TTGlyph name="germandbls" xMin="37" yMin="-8" xMax="471" yMax="658">
      <contour>
        <pt x="131" y="22" on="1"/>
        <pt x="133" y="25" on="0"/>
        <pt x="136" y="30" on="0"/>
        <pt x="138" y="33" on="1"/>
        <pt x="178" y="5" on="0"/>
        <pt x="233" y="5" on="1"/>
        <pt x="273" y="5" on="0"/>
        <pt x="347" y="36" on="0"/>
        <pt x="407" y="88" on="0"/>
        <pt x="447" y="157" on="0"/>
        <pt x="452" y="195" on="1"/>
        <pt x="457" y="233" on="0"/>
        <pt x="437" y="300" on="0"/>
        <pt x="392" y="351" on="0"/>
        <pt x="327" y="381" on="0"/>
        <pt x="288" y="381" on="1"/>
        <pt x="289" y="383" on="0"/>
        <pt x="289" y="388" on="1"/>
        <pt x="290" y="396" on="1"/>
        <pt x="316" y="396" on="0"/>
        <pt x="364" y="413" on="0"/>
        <pt x="403" y="444" on="0"/>
        <pt x="429" y="486" on="0"/>
        <pt x="433" y="511" on="1"/>
        <pt x="436" y="537" on="0"/>
        <pt x="424" y="585" on="0"/>
        <pt x="395" y="622" on="0"/>
        <pt x="352" y="644" on="0"/>
        <pt x="325" y="644" on="1"/>
        <pt x="291" y="644" on="0"/>
        <pt x="225" y="614" on="0"/>
        <pt x="170" y="558" on="0"/>
        <pt x="131" y="479" on="0"/>
        <pt x="124" y="430" on="1"/>
        <pt x="64" y="0" on="1"/>
        <pt x="50" y="0" on="1"/>
        <pt x="102" y="370" on="1"/>
        <pt x="37" y="370" on="1"/>
        <pt x="39" y="384" on="1"/>
        <pt x="104" y="384" on="1"/>
        <pt x="110" y="426" on="1"/>
        <pt x="117" y="481" on="0"/>
        <pt x="159" y="567" on="0"/>
        <pt x="217" y="625" on="0"/>
        <pt x="289" y="656" on="0"/>
        <pt x="327" y="658" on="1"/>
        <pt x="356" y="657" on="0"/>
        <pt x="404" y="634" on="0"/>
        <pt x="437" y="595" on="0"/>
        <pt x="451" y="543" on="0"/>
        <pt x="447" y="514" on="1"/>
        <pt x="441" y="470" on="0"/>
        <pt x="380" y="403" on="0"/>
        <pt x="337" y="389" on="1"/>
        <pt x="370" y="381" on="0"/>
        <pt x="422" y="345" on="0"/>
        <pt x="457" y="294" on="0"/>
        <pt x="471" y="231" on="0"/>
        <pt x="466" y="195" on="1"/>
        <pt x="460" y="153" on="0"/>
        <pt x="417" y="79" on="0"/>
        <pt x="354" y="24" on="0"/>
        <pt x="275" y="-8" on="0"/>
        <pt x="233" y="-8" on="1"/>
        <pt x="175" y="-8" on="0"/>
      </contour>
    </TTGlyph>
    <TTGlyph name="grave" xMin="-4" yMin="479" xMax="82" yMax="612">
      <contour>
        <pt x="11" y="612" on="1"/>
        <pt x="29" y="579" on="0"/>
        <pt x="64" y="512" on="0"/>
        <pt x="82" y="479" on="1"/>
        <pt x="66" y="479" on="1"/>
        <pt x="48" y="512" on="0"/>
        <pt x="13" y="579" on="0"/>
        <pt x="-4" y="612" on="1"/>
      </contour>
    </TTGlyph>
    <TTGlyph name="greater" xMin="79" yMin="-15" xMax="553" yMax="491">
      <contour>
        <pt x="79" y="-15" on="1"/>
        <pt x="81" y="1" on="1"/>
        <pt x="193" y="61" on="0"/>
        <pt x="415" y="178" on="0"/>
        <pt x="527" y="238" on="1"/>
        <pt x="432" y="298" on="0"/>
        <pt x="243" y="415" on="0"/>
        <pt x="148" y="475" on="1"/>
        <pt x="150" y="491" on="1"/>
        <pt x="251" y="428" on="0"/>
        <pt x="451" y="301" on="0"/>
        <pt x="553" y="238" on="1"/>
        <pt x="434" y="175" on="0"/>
        <pt x="198" y="48" on="0"/>
      </contour>
    </TTGlyph>
    <TTGlyph name="guillemotleft" xMin="117" yMin="77" xMax="481" yMax="400">
      <contour>
        <pt x="436" y="77" on="1"/>
        <pt x="288" y="239" on="1"/>
        <pt x="336" y="280" on="0"/>
        <pt x="433" y="359" on="0"/>
        <pt x="481" y="400" on="1"/>
        <pt x="479" y="383" on="1"/>
        <pt x="438" y="347" on="0"/>
        <pt x="357" y="275" on="0"/>
        <pt x="317" y="239" on="1"/>
        <pt x="347" y="202" on="0"/>
        <pt x="408" y="130" on="0"/>
        <pt x="438" y="93" on="1"/>
      </contour>
      <contour>
        <pt x="265" y="77" on="1"/>
        <pt x="117" y="239" on="1"/>
        <pt x="165" y="280" on="0"/>
        <pt x="262" y="359" on="0"/>
        <pt x="310" y="400" on="1"/>
        <pt x="308" y="383" on="1"/>
        <pt x="267" y="347" on="0"/>
        <pt x="186" y="275" on="0"/>
        <pt x="146" y="239" on="1"/>
        <pt x="176" y="202" on="0"/>
        <pt x="237" y="130" on="0"/>
        <pt x="267" y="93" on="1"/>
      </contour>
    </TTGlyph>
    <TTGlyph name="guillemotright" xMin="94" yMin="77" xMax="459" yMax="400">
      <contour>
        <pt x="96" y="93" on="1"/>
        <pt x="137" y="130" on="0"/>
        <pt x="218" y="202" on="0"/>
        <pt x="259" y="239" on="1"/>
        <pt x="228" y="275" on="0"/>
        <pt x="167" y="347" on="0"/>
        <pt x="137" y="383" on="1"/>
        <pt x="139" y="400" on="1"/>
        <pt x="177" y="359" on="0"/>
        <pt x="250" y="280" on="0"/>
        <pt x="288" y="239" on="1"/>
        <pt x="94" y="77" on="1"/>
      </contour>
      <contour>
        <pt x="267" y="93" on="1"/>
        <pt x="308" y="130" on="0"/>
        <pt x="389" y="202" on="0"/>
        <pt x="430" y="239" on="1"/>
        <pt x="399" y="275" on="0"/>
        <pt x="338" y="347" on="0"/>
        <pt x="308" y="383" on="1"/>
        <pt x="310" y="400" on="1"/>
        <pt x="348" y="359" on="0"/>
        <pt x="421" y="280" on="0"/>
        <pt x="459" y="239" on="1"/>
        <pt x="265" y="77" on="1"/>
      </contour>
    </TTGlyph>
    <TTGlyph name="guilsinglleft" xMin="117" yMin="77" xMax="310" yMax="400">
      <contour>
        <pt x="265" y="77" on="1"/>
        <pt x="117" y="239" on="1"/>
        <pt x="165" y="280" on="0"/>
        <pt x="262" y="359" on="0"/>
        <pt x="310" y="400" on="1"/>
        <pt x="308" y="383" on="1"/>
        <pt x="267" y="347" on="0"/>
        <pt x="186" y="275" on="0"/>
        <pt x="146" y="239" on="1"/>
        <pt x="176" y="202" on="0"/>
        <pt x="237" y="130" on="0"/>
        <pt x="267" y="93" on="1"/>
      </contour>
    </TTGlyph>
    <TTGlyph name="guilsinglright" xMin="94" yMin="77" xMax="288" yMax="400">
      <contour>
        <pt x="96" y="93" on="1"/>
        <pt x="137" y="130" on="0"/>
        <pt x="218" y="202" on="0"/>
        <pt x="259" y="239" on="1"/>
        <pt x="228" y="275" on="0"/>
        <pt x="167" y="347" on="0"/>
        <pt x="137" y="383" on="1"/>
        <pt x="139" y="400" on="1"/>
        <pt x="177" y="359" on="0"/>
        <pt x="250" y="280" on="0"/>
        <pt x="288" y="239" on="1"/>
        <pt x="94" y="77" on="1"/>
      </contour>
    </TTGlyph>
    <TTGlyph name="h" xMin="117" yMin="0" xMax="452" yMax="750">
      <contour>
        <pt x="222" y="750" on="1"/>
        <pt x="236" y="750" on="1"/>
        <pt x="176" y="322" on="1"/>
        <pt x="166" y="277" on="1"/>
        <pt x="193" y="324" on="0"/>
        <pt x="289" y="382" on="0"/>
        <pt x="346" y="382" on="1"/>
        <pt x="399" y="382" on="0"/>
        <pt x="452" y="320" on="0"/>
        <pt x="446" y="270" on="1"/>
        <pt x="409" y="0" on="1"/>
        <pt x="395" y="0" on="1"/>
        <pt x="433" y="277" on="1"/>
        <pt x="437" y="313" on="0"/>
        <pt x="395" y="366" on="0"/>
        <pt x="351" y="368" on="1"/>
        <pt x="317" y="368" on="0"/>
        <pt x="253" y="346" on="0"/>
        <pt x="201" y="307" on="0"/>
        <pt x="166" y="252" on="0"/>
        <pt x="161" y="220" on="1"/>
        <pt x="131" y="0" on="1"/>
        <pt x="117" y="0" on="1"/>
      </contour>
    </TTGlyph>
    <TTGlyph name="hyphen" xMin="52" yMin="184" xMax="237" yMax="198">
      <contour>
        <pt x="52" y="184" on="1"/>
        <pt x="53" y="198" on="1"/>
        <pt x="237" y="198" on="1"/>
        <pt x="236" y="184" on="1"/>
      </contour>
    </TTGlyph>
    <TTGlyph name="i" xMin="86" yMin="0" xMax="184" yMax="520">
      <contour>
        <pt x="143" y="500" on="1"/>
        <pt x="144" y="508" on="0"/>
        <pt x="158" y="520" on="0"/>
        <pt x="166" y="520" on="1"/>
        <pt x="174" y="520" on="0"/>
        <pt x="184" y="508" on="0"/>
        <pt x="183" y="500" on="1"/>
        <pt x="181" y="492" on="0"/>
        <pt x="168" y="480" on="0"/>
        <pt x="160" y="480" on="1"/>
        <pt x="152" y="480" on="0"/>
        <pt x="141" y="492" on="0"/>
      </contour>
      <contour>
        <pt x="100" y="0" on="1"/>
        <pt x="86" y="0" on="1"/>
        <pt x="138" y="375" on="1"/>
        <pt x="152" y="375" on="1"/>
      </contour>
    </TTGlyph>
    <TTGlyph name="iacute" xMin="79" yMin="0" xMax="266" yMax="612">
      <contour>
        <pt x="93" y="0" on="1"/>
        <pt x="79" y="0" on="1"/>
        <pt x="131" y="375" on="1"/>
        <pt x="145" y="375" on="1"/>
      </contour>
      <contour>
        <pt x="141" y="479" on="1"/>
        <pt x="168" y="512" on="0"/>
        <pt x="223" y="579" on="0"/>
        <pt x="250" y="612" on="1"/>
        <pt x="266" y="612" on="1"/>
        <pt x="239" y="579" on="0"/>
        <pt x="184" y="512" on="0"/>
        <pt x="157" y="479" on="1"/>
      </contour>
    </TTGlyph>
    <TTGlyph name="icircumflex" xMin="57" yMin="0" xMax="297" yMax="660">
      <contour>
        <pt x="123" y="0" on="1"/>
        <pt x="109" y="0" on="1"/>
        <pt x="161" y="375" on="1"/>
        <pt x="175" y="375" on="1"/>
      </contour>
      <contour>
        <pt x="202" y="660" on="1"/>
        <pt x="226" y="615" on="0"/>
        <pt x="273" y="524" on="0"/>
        <pt x="297" y="479" on="1"/>
        <pt x="281" y="479" on="1"/>
        <pt x="260" y="517" on="0"/>
        <pt x="219" y="595" on="0"/>
        <pt x="198" y="633" on="1"/>
        <pt x="166" y="595" on="0"/>
        <pt x="105" y="517" on="0"/>
        <pt x="73" y="479" on="1"/>
        <pt x="57" y="479" on="1"/>
        <pt x="93" y="524" on="0"/>
        <pt x="166" y="615" on="0"/>
      </contour>
    </TTGlyph>
    <TTGlyph name="idieresis" xMin="101" yMin="0" xMax="309" yMax="520">
      <contour>
        <pt x="153" y="0" on="1"/>
        <pt x="139" y="0" on="1"/>
        <pt x="191" y="375" on="1"/>
        <pt x="205" y="375" on="1"/>
      </contour>
      <contour>
        <pt x="268" y="500" on="1"/>
        <pt x="269" y="508" on="0"/>
        <pt x="282" y="520" on="0"/>
        <pt x="290" y="520" on="1"/>
        <pt x="298" y="520" on="0"/>
        <pt x="309" y="508" on="0"/>
        <pt x="308" y="500" on="1"/>
        <pt x="306" y="492" on="0"/>
        <pt x="293" y="480" on="0"/>
        <pt x="285" y="480" on="1"/>
        <pt x="277" y="480" on="0"/>
        <pt x="266" y="492" on="0"/>
      </contour>
      <contour>
        <pt x="103" y="500" on="1"/>
        <pt x="104" y="508" on="0"/>
        <pt x="117" y="520" on="0"/>
        <pt x="125" y="520" on="1"/>
        <pt x="133" y="520" on="0"/>
        <pt x="144" y="508" on="0"/>
        <pt x="143" y="500" on="1"/>
        <pt x="141" y="492" on="0"/>
        <pt x="128" y="480" on="0"/>
        <pt x="120" y="480" on="1"/>
        <pt x="112" y="480" on="0"/>
        <pt x="101" y="492" on="0"/>
      </contour>
    </TTGlyph>
    <TTGlyph name="igrave" xMin="66" yMin="0" xMax="152" yMax="612">
      <contour>
        <pt x="100" y="0" on="1"/>
        <pt x="86" y="0" on="1"/>
        <pt x="138" y="375" on="1"/>
        <pt x="152" y="375" on="1"/>
      </contour>
      <contour>
        <pt x="81" y="612" on="1"/>
        <pt x="99" y="579" on="0"/>
        <pt x="134" y="512" on="0"/>
        <pt x="152" y="479" on="1"/>
        <pt x="136" y="479" on="1"/>
        <pt x="118" y="512" on="0"/>
        <pt x="83" y="579" on="0"/>
        <pt x="66" y="612" on="1"/>
      </contour>
    </TTGlyph>
    <TTGlyph name="j" xMin="31" yMin="-180" xMax="209" yMax="520">
      <contour>
        <pt x="168" y="500" on="1"/>
        <pt x="169" y="508" on="0"/>
        <pt x="183" y="520" on="0"/>
        <pt x="191" y="520" on="1"/>
        <pt x="199" y="520" on="0"/>
        <pt x="209" y="508" on="0"/>
        <pt x="208" y="500" on="1"/>
        <pt x="206" y="492" on="0"/>
        <pt x="193" y="480" on="0"/>
        <pt x="185" y="480" on="1"/>
        <pt x="177" y="480" on="0"/>
        <pt x="166" y="492" on="0"/>
      </contour>
      <contour>
        <pt x="42" y="-180" on="1"/>
        <pt x="39" y="-177" on="0"/>
        <pt x="31" y="-171" on="1"/>
        <pt x="60" y="-143" on="0"/>
        <pt x="101" y="-62" on="0"/>
        <pt x="109" y="-11" on="1"/>
        <pt x="163" y="375" on="1"/>
        <pt x="177" y="375" on="1"/>
        <pt x="124" y="-7" on="1"/>
        <pt x="116" y="-64" on="0"/>
        <pt x="73" y="-151" on="0"/>
      </contour>
    </TTGlyph>
    <TTGlyph name="k" xMin="90" yMin="0" xMax="388" yMax="750">
      <contour>
        <pt x="380" y="384" on="1"/>
        <pt x="382" y="382" on="0"/>
        <pt x="386" y="376" on="0"/>
        <pt x="388" y="374" on="1"/>
        <pt x="344" y="338" on="0"/>
        <pt x="266" y="271" on="0"/>
        <pt x="223" y="235" on="1"/>
        <pt x="258" y="176" on="0"/>
        <pt x="327" y="59" on="0"/>
        <pt x="362" y="0" on="1"/>
        <pt x="344" y="0" on="1"/>
        <pt x="209" y="225" on="1"/>
        <pt x="188" y="208" on="0"/>
        <pt x="147" y="172" on="0"/>
        <pt x="125" y="155" on="1"/>
        <pt x="104" y="0" on="1"/>
        <pt x="90" y="0" on="1"/>
        <pt x="195" y="750" on="1"/>
        <pt x="209" y="750" on="1"/>
        <pt x="128" y="176" on="1"/>
        <pt x="193" y="230" on="0"/>
        <pt x="315" y="330" on="0"/>
      </contour>
    </TTGlyph>
    <TTGlyph name="l" xMin="86" yMin="0" xMax="205" yMax="750">
      <contour>
        <pt x="100" y="0" on="1"/>
        <pt x="86" y="0" on="1"/>
        <pt x="191" y="750" on="1"/>
        <pt x="205" y="750" on="1"/>
      </contour>
    </TTGlyph>
    <TTGlyph name="less" xMin="115" yMin="-15" xMax="588" yMax="491">
      <contour>
        <pt x="519" y="1" on="1"/>
        <pt x="517" y="-15" on="1"/>
        <pt x="416" y="48" on="0"/>
        <pt x="216" y="175" on="0"/>
        <pt x="115" y="238" on="1"/>
        <pt x="233" y="301" on="0"/>
        <pt x="469" y="428" on="0"/>
        <pt x="588" y="491" on="1"/>
        <pt x="586" y="475" on="1"/>
        <pt x="474" y="415" on="0"/>
        <pt x="253" y="298" on="0"/>
        <pt x="141" y="238" on="1"/>
        <pt x="235" y="178" on="0"/>
        <pt x="424" y="61" on="0"/>
      </contour>
    </TTGlyph>
    <TTGlyph name="logicalnot" xMin="104" yMin="148" xMax="466" yMax="241">
      <contour>
        <pt x="439" y="148" on="1"/>
        <pt x="450" y="227" on="1"/>
        <pt x="104" y="227" on="1"/>
        <pt x="106" y="241" on="1"/>
        <pt x="466" y="241" on="1"/>
        <pt x="453" y="148" on="1"/>
      </contour>
    </TTGlyph>
    <TTGlyph name="m" xMin="117" yMin="0" xMax="730" yMax="382">
      <contour>
        <pt x="169" y="375" on="1"/>
        <pt x="183" y="375" on="1"/>
        <pt x="176" y="322" on="1"/>
        <pt x="174" y="311" on="0"/>
        <pt x="169" y="288" on="0"/>
        <pt x="166" y="277" on="1"/>
        <pt x="193" y="324" on="0"/>
        <pt x="289" y="382" on="0"/>
        <pt x="346" y="382" on="1"/>
        <pt x="395" y="382" on="0"/>
        <pt x="448" y="327" on="0"/>
        <pt x="447" y="282" on="1"/>
        <pt x="474" y="327" on="0"/>
        <pt x="569" y="382" on="0"/>
        <pt x="624" y="382" on="1"/>
        <pt x="677" y="382" on="0"/>
        <pt x="730" y="320" on="0"/>
        <pt x="724" y="270" on="1"/>
        <pt x="687" y="0" on="1"/>
        <pt x="673" y="0" on="1"/>
        <pt x="711" y="277" on="1"/>
        <pt x="715" y="313" on="0"/>
        <pt x="673" y="366" on="0"/>
        <pt x="629" y="368" on="1"/>
        <pt x="596" y="368" on="0"/>
        <pt x="533" y="347" on="0"/>
        <pt x="482" y="309" on="0"/>
        <pt x="446" y="257" on="0"/>
        <pt x="440" y="226" on="1"/>
        <pt x="409" y="0" on="1"/>
        <pt x="395" y="0" on="1"/>
        <pt x="433" y="277" on="1"/>
        <pt x="437" y="313" on="0"/>
        <pt x="395" y="366" on="0"/>
        <pt x="351" y="368" on="1"/>
        <pt x="317" y="368" on="0"/>
        <pt x="253" y="346" on="0"/>
        <pt x="201" y="307" on="0"/>
        <pt x="166" y="252" on="0"/>
        <pt x="161" y="220" on="1"/>
        <pt x="131" y="0" on="1"/>
        <pt x="117" y="0" on="1"/>
      </contour>
    </TTGlyph>
    <TTGlyph name="macron" xMin="84" yMin="492" xMax="315" yMax="506">
      <contour>
        <pt x="84" y="492" on="1"/>
        <pt x="85" y="506" on="1"/>
        <pt x="315" y="506" on="1"/>
        <pt x="314" y="492" on="1"/>
      </contour>
    </TTGlyph>
    <TTGlyph name="mu" xMin="76" yMin="-201" xMax="449" yMax="375">
      <contour>
        <pt x="396" y="0" on="1"/>
        <pt x="382" y="0" on="1"/>
        <pt x="390" y="53" on="1"/>
        <pt x="399" y="98" on="1"/>
        <pt x="372" y="50" on="0"/>
        <pt x="275" y="-7" on="0"/>
        <pt x="219" y="-7" on="1"/>
        <pt x="183" y="-7" on="0"/>
        <pt x="135" y="23" on="0"/>
        <pt x="125" y="49" on="1"/>
        <pt x="90" y="-201" on="1"/>
        <pt x="76" y="-201" on="1"/>
        <pt x="157" y="375" on="1"/>
        <pt x="171" y="375" on="1"/>
        <pt x="132" y="98" on="1"/>
        <pt x="128" y="62" on="0"/>
        <pt x="171" y="9" on="0"/>
        <pt x="214" y="7" on="1"/>
        <pt x="248" y="7" on="0"/>
        <pt x="312" y="29" on="0"/>
        <pt x="364" y="68" on="0"/>
        <pt x="399" y="123" on="0"/>
        <pt x="404" y="155" on="1"/>
        <pt x="435" y="375" on="1"/>
        <pt x="449" y="375" on="1"/>
      </contour>
    </TTGlyph>
    <TTGlyph name="multiply" xMin="112" yMin="0" xMax="412" yMax="265">
      <contour>
        <pt x="366" y="0" on="1"/>
        <pt x="340" y="31" on="0"/>
        <pt x="286" y="92" on="0"/>
        <pt x="260" y="123" on="1"/>
        <pt x="225" y="92" on="0"/>
        <pt x="156" y="31" on="0"/>
        <pt x="121" y="0" on="1"/>
        <pt x="119" y="2" on="0"/>
        <pt x="114" y="8" on="0"/>
        <pt x="112" y="10" on="1"/>
        <pt x="147" y="41" on="0"/>
        <pt x="217" y="102" on="0"/>
        <pt x="252" y="133" on="1"/>
        <pt x="148" y="254" on="1"/>
        <pt x="159" y="264" on="1"/>
        <pt x="263" y="143" on="1"/>
        <pt x="298" y="174" on="0"/>
        <pt x="368" y="234" on="0"/>
        <pt x="403" y="265" on="1"/>
        <pt x="405" y="263" on="0"/>
        <pt x="410" y="257" on="0"/>
        <pt x="412" y="255" on="1"/>
        <pt x="377" y="224" on="0"/>
        <pt x="307" y="164" on="0"/>
        <pt x="272" y="133" on="1"/>
        <pt x="377" y="10" on="1"/>
      </contour>
    </TTGlyph>
    <TTGlyph name="n" xMin="117" yMin="0" xMax="452" yMax="382">
      <contour>
        <pt x="169" y="375" on="1"/>
        <pt x="183" y="375" on="1"/>
        <pt x="176" y="322" on="1"/>
        <pt x="174" y="311" on="0"/>
        <pt x="169" y="288" on="0"/>
        <pt x="166" y="277" on="1"/>
        <pt x="193" y="324" on="0"/>
        <pt x="289" y="382" on="0"/>
        <pt x="346" y="382" on="1"/>
        <pt x="399" y="382" on="0"/>
        <pt x="452" y="320" on="0"/>
        <pt x="446" y="270" on="1"/>
        <pt x="409" y="0" on="1"/>
        <pt x="395" y="0" on="1"/>
        <pt x="433" y="277" on="1"/>
        <pt x="437" y="313" on="0"/>
        <pt x="395" y="366" on="0"/>
        <pt x="351" y="368" on="1"/>
        <pt x="317" y="368" on="0"/>
        <pt x="253" y="346" on="0"/>
        <pt x="201" y="307" on="0"/>
        <pt x="166" y="252" on="0"/>
        <pt x="161" y="220" on="1"/>
        <pt x="131" y="0" on="1"/>
        <pt x="117" y="0" on="1"/>
      </contour>
    </TTGlyph>
    <TTGlyph name="nine" xMin="65" yMin="-8" xMax="485" yMax="633">
      <contour>
        <pt x="466" y="432" on="1"/>
        <pt x="472" y="471" on="0"/>
        <pt x="452" y="539" on="0"/>
        <pt x="407" y="590" on="0"/>
        <pt x="342" y="619" on="0"/>
        <pt x="303" y="619" on="1"/>
        <pt x="264" y="619" on="0"/>
        <pt x="190" y="590" on="0"/>
        <pt x="131" y="539" on="0"/>
        <pt x="91" y="471" on="0"/>
        <pt x="85" y="432" on="1"/>
        <pt x="80" y="393" on="0"/>
        <pt x="100" y="324" on="0"/>
        <pt x="145" y="273" on="0"/>
        <pt x="211" y="244" on="0"/>
        <pt x="250" y="244" on="1"/>
        <pt x="289" y="244" on="0"/>
        <pt x="363" y="273" on="0"/>
        <pt x="421" y="324" on="0"/>
        <pt x="461" y="393" on="0"/>
      </contour>
      <contour>
        <pt x="479" y="432" on="1"/>
        <pt x="469" y="359" on="0"/>
        <pt x="390" y="234" on="0"/>
        <pt x="278" y="126" on="0"/>
        <pt x="147" y="33" on="0"/>
        <pt x="85" y="-8" on="1"/>
        <pt x="81" y="-1" on="0"/>
        <pt x="77" y="5" on="1"/>
        <pt x="150" y="49" on="0"/>
        <pt x="264" y="135" on="0"/>
        <pt x="349" y="214" on="0"/>
        <pt x="406" y="283" on="0"/>
        <pt x="421" y="311" on="1"/>
        <pt x="388" y="274" on="0"/>
        <pt x="298" y="230" on="0"/>
        <pt x="247" y="230" on="1"/>
        <pt x="205" y="230" on="0"/>
        <pt x="135" y="262" on="0"/>
        <pt x="87" y="317" on="0"/>
        <pt x="65" y="390" on="0"/>
        <pt x="71" y="432" on="1"/>
        <pt x="77" y="474" on="0"/>
        <pt x="120" y="547" on="0"/>
        <pt x="183" y="601" on="0"/>
        <pt x="262" y="633" on="0"/>
        <pt x="304" y="633" on="1"/>
        <pt x="346" y="633" on="0"/>
        <pt x="416" y="601" on="0"/>
        <pt x="464" y="547" on="0"/>
        <pt x="485" y="474" on="0"/>
      </contour>
    </TTGlyph>
    <TTGlyph name="ntilde" xMin="117" yMin="0" xMax="488" yMax="530">
      <component glyphName="n" x="0" y="0" flags="0x4"/>
      <component glyphName="asciitilde" x="69" y="-11" flags="0x4"/>
    </TTGlyph>
    <TTGlyph name="numbersign" xMin="15" yMin="0" xMax="517" yMax="643">
      <contour>
        <pt x="194" y="407" on="1"/>
        <pt x="183" y="365" on="0"/>
        <pt x="161" y="281" on="0"/>
        <pt x="150" y="239" on="1"/>
        <pt x="320" y="239" on="1"/>
        <pt x="331" y="281" on="0"/>
        <pt x="353" y="365" on="0"/>
        <pt x="364" y="407" on="1"/>
      </contour>
      <contour>
        <pt x="258" y="0" on="1"/>
        <pt x="273" y="57" on="0"/>
        <pt x="301" y="168" on="0"/>
        <pt x="316" y="225" on="1"/>
        <pt x="146" y="225" on="1"/>
        <pt x="131" y="168" on="0"/>
        <pt x="103" y="57" on="0"/>
        <pt x="88" y="0" on="1"/>
        <pt x="74" y="0" on="1"/>
        <pt x="89" y="57" on="0"/>
        <pt x="117" y="168" on="0"/>
        <pt x="132" y="225" on="1"/>
        <pt x="15" y="225" on="1"/>
        <pt x="16" y="229" on="0"/>
        <pt x="17" y="235" on="0"/>
        <pt x="18" y="239" on="1"/>
        <pt x="136" y="239" on="1"/>
        <pt x="147" y="281" on="0"/>
        <pt x="169" y="365" on="0"/>
        <pt x="180" y="407" on="1"/>
        <pt x="64" y="407" on="1"/>
        <pt x="64" y="411" on="0"/>
        <pt x="66" y="417" on="0"/>
        <pt x="66" y="421" on="1"/>
        <pt x="183" y="421" on="1"/>
        <pt x="198" y="477" on="0"/>
        <pt x="227" y="587" on="0"/>
        <pt x="242" y="643" on="1"/>
        <pt x="256" y="643" on="1"/>
        <pt x="241" y="587" on="0"/>
        <pt x="212" y="477" on="0"/>
        <pt x="197" y="421" on="1"/>
        <pt x="367" y="421" on="1"/>
        <pt x="382" y="477" on="0"/>
        <pt x="411" y="587" on="0"/>
        <pt x="426" y="643" on="1"/>
        <pt x="440" y="643" on="1"/>
        <pt x="425" y="587" on="0"/>
        <pt x="396" y="477" on="0"/>
        <pt x="381" y="421" on="1"/>
        <pt x="517" y="421" on="1"/>
        <pt x="517" y="417" on="0"/>
        <pt x="515" y="411" on="0"/>
        <pt x="515" y="407" on="1"/>
        <pt x="378" y="407" on="1"/>
        <pt x="367" y="365" on="0"/>
        <pt x="345" y="281" on="0"/>
        <pt x="334" y="239" on="1"/>
        <pt x="469" y="239" on="1"/>
        <pt x="468" y="235" on="0"/>
        <pt x="467" y="229" on="0"/>
        <pt x="466" y="225" on="1"/>
        <pt x="330" y="225" on="1"/>
        <pt x="315" y="168" on="0"/>
        <pt x="287" y="57" on="0"/>
        <pt x="272" y="0" on="1"/>
      </contour>
    </TTGlyph>
    <TTGlyph name="o" xMin="56" yMin="-6" xMax="458" yMax="384">
      <contour>
        <pt x="62" y="188" on="1"/>
        <pt x="68" y="232" on="0"/>
        <pt x="106" y="304" on="0"/>
        <pt x="165" y="356" on="0"/>
        <pt x="240" y="384" on="0"/>
        <pt x="283" y="384" on="1"/>
        <pt x="323" y="384" on="0"/>
        <pt x="391" y="353" on="0"/>
        <pt x="437" y="300" on="0"/>
        <pt x="458" y="228" on="0"/>
        <pt x="452" y="188" on="1"/>
        <pt x="446" y="142" on="0"/>
        <pt x="406" y="70" on="0"/>
        <pt x="346" y="20" on="0"/>
        <pt x="271" y="-6" on="0"/>
        <pt x="229" y="-6" on="1"/>
        <pt x="188" y="-6" on="0"/>
        <pt x="122" y="24" on="0"/>
        <pt x="77" y="77" on="0"/>
        <pt x="56" y="147" on="0"/>
      </contour>
      <contour>
        <pt x="76" y="188" on="1"/>
        <pt x="71" y="150" on="0"/>
        <pt x="90" y="85" on="0"/>
        <pt x="132" y="36" on="0"/>
        <pt x="193" y="8" on="0"/>
        <pt x="231" y="8" on="1"/>
        <pt x="268" y="8" on="0"/>
        <pt x="338" y="34" on="0"/>
        <pt x="394" y="81" on="0"/>
        <pt x="432" y="147" on="0"/>
        <pt x="437" y="188" on="1"/>
        <pt x="442" y="225" on="0"/>
        <pt x="423" y="291" on="0"/>
        <pt x="381" y="341" on="0"/>
        <pt x="318" y="369" on="0"/>
        <pt x="281" y="369" on="1"/>
        <pt x="241" y="369" on="0"/>
        <pt x="171" y="343" on="0"/>
        <pt x="117" y="296" on="0"/>
        <pt x="81" y="229" on="0"/>
      </contour>
    </TTGlyph>
    <TTGlyph name="oacute" xMin="56" yMin="-6" xMax="458" yMax="612">
      <component glyphName="o" x="0" y="0" flags="0x4"/>
      <component glyphName="acute" x="205" y="0" flags="0x4"/>
    </TTGlyph>
    <TTGlyph name="ocircumflex" xMin="56" yMin="-6" xMax="458" yMax="660">
      <component glyphName="o" x="0" y="0" flags="0x4"/>
      <component glyphName="asciicircum" x="75" y="0" flags="0x4"/>
    </TTGlyph>
    <TTGlyph name="odieresis" xMin="56" yMin="-6" xMax="458" yMax="520">
      <component glyphName="o" x="0" y="0" flags="0x4"/>
      <component glyphName="dieresis" x="110" y="0" flags="0x4"/>
    </TTGlyph>
    <TTGlyph name="ograve" xMin="56" yMin="-6" xMax="458" yMax="612">
      <component glyphName="o" x="0" y="0" flags="0x4"/>
      <component glyphName="grave" x="213" y="0" flags="0x4"/>
    </TTGlyph>
    <TTGlyph name="one" xMin="77" yMin="0" xMax="206" yMax="650">
      <contour>
        <pt x="77" y="636" on="1"/>
        <pt x="79" y="650" on="1"/>
        <pt x="206" y="650" on="1"/>
        <pt x="115" y="0" on="1"/>
        <pt x="101" y="0" on="1"/>
        <pt x="190" y="636" on="1"/>
      </contour>
    </TTGlyph>
    <TTGlyph name="onehalf" xMin="151" yMin="-19" xMax="855" yMax="736">
      <component glyphName="one" x="97" y="234" scalex="0.709899902344" scaley="0.709716796875" flags="0x4"/>
      <component glyphName="two" x="553" y="0" scalex="0.706787109375" scaley="0.706726074219" flags="0x4"/>
      <component glyphName="slash" x="278" y="0" scalex="1.0" scaley="0.998718261719" flags="0x4"/>
    </TTGlyph>
    <TTGlyph name="onequarter" xMin="168" yMin="-19" xMax="832" yMax="736">
      <component glyphName="slash" x="278" y="0" scalex="1.0" scaley="0.998718261719" flags="0x4"/>
      <component glyphName="four" x="474" y="0" scalex="0.742980957031" scaley="0.744689941406" flags="0x4"/>
      <component glyphName="one" x="114" y="234" scalex="0.708679199219" scaley="0.709289550781" flags="0x4"/>
    </TTGlyph>
    <TTGlyph name="onesuperior" xMin="89" yMin="401" xMax="149" yMax="700">
      <component glyphName="one" x="54" y="401" scalex="0.45751953125" scaley="0.460021972656" flags="0x4"/>
    </TTGlyph>
    <TTGlyph name="ordfeminine" xMin="107" yMin="301" xMax="412" yMax="583">
      <component glyphName="a" x="58" y="306" scalex="0.721374511719" scaley="0.721252441406" flags="0x4"/>
    </TTGlyph>
    <TTGlyph name="ordmasculine" xMin="105" yMin="301" xMax="396" yMax="583">
      <component glyphName="o" x="65" y="306" scale="0.721252441406" flags="0x4"/>
    </TTGlyph>
    <TTGlyph name="oslash" xMin="29" yMin="-8" xMax="431" yMax="383">
      <contour>
        <pt x="50" y="188" on="1"/>
        <pt x="44" y="150" on="0"/>
        <pt x="64" y="83" on="0"/>
        <pt x="85" y="58" on="1"/>
        <pt x="153" y="127" on="0"/>
        <pt x="287" y="266" on="0"/>
        <pt x="355" y="335" on="1"/>
        <pt x="335" y="351" on="0"/>
        <pt x="284" y="369" on="0"/>
        <pt x="255" y="369" on="1"/>
        <pt x="217" y="369" on="0"/>
        <pt x="148" y="341" on="0"/>
        <pt x="92" y="291" on="0"/>
        <pt x="55" y="225" on="0"/>
      </contour>
      <contour>
        <pt x="204" y="8" on="1"/>
        <pt x="241" y="8" on="0"/>
        <pt x="312" y="36" on="0"/>
        <pt x="368" y="85" on="0"/>
        <pt x="406" y="150" on="0"/>
        <pt x="411" y="188" on="1"/>
        <pt x="416" y="230" on="0"/>
        <pt x="390" y="302" on="0"/>
        <pt x="364" y="327" on="1"/>
        <pt x="296" y="258" on="0"/>
        <pt x="161" y="119" on="0"/>
        <pt x="93" y="50" on="1"/>
        <pt x="137" y="8" on="0"/>
      </contour>
      <contour>
        <pt x="36" y="188" on="1"/>
        <pt x="42" y="228" on="0"/>
        <pt x="82" y="300" on="0"/>
        <pt x="142" y="352" on="0"/>
        <pt x="216" y="383" on="0"/>
        <pt x="257" y="383" on="1"/>
        <pt x="289" y="383" on="0"/>
        <pt x="345" y="363" on="0"/>
        <pt x="367" y="346" on="1"/>
        <pt x="375" y="355" on="0"/>
        <pt x="394" y="374" on="0"/>
        <pt x="403" y="383" on="1"/>
        <pt x="411" y="375" on="1"/>
        <pt x="402" y="366" on="0"/>
        <pt x="383" y="347" on="0"/>
        <pt x="375" y="338" on="1"/>
        <pt x="404" y="312" on="0"/>
        <pt x="431" y="233" on="0"/>
        <pt x="425" y="188" on="1"/>
        <pt x="419" y="147" on="0"/>
        <pt x="378" y="77" on="0"/>
        <pt x="318" y="24" on="0"/>
        <pt x="242" y="-6" on="0"/>
        <pt x="202" y="-6" on="1"/>
        <pt x="166" y="-6" on="0"/>
        <pt x="106" y="18" on="0"/>
        <pt x="83" y="39" on="1"/>
        <pt x="71" y="27" on="0"/>
        <pt x="48" y="4" on="0"/>
        <pt x="37" y="-8" on="1"/>
        <pt x="29" y="0" on="1"/>
        <pt x="40" y="12" on="0"/>
        <pt x="64" y="35" on="0"/>
        <pt x="75" y="47" on="1"/>
        <pt x="51" y="73" on="0"/>
        <pt x="30" y="146" on="0"/>
      </contour>
    </TTGlyph>
    <TTGlyph name="otilde" xMin="56" yMin="-6" xMax="458" yMax="541">
      <component glyphName="o" x="0" y="0" flags="0x4"/>
      <component glyphName="asciitilde" x="22" y="0" flags="0x4"/>
    </TTGlyph>
    <TTGlyph name="p" xMin="31" yMin="-250" xMax="488" yMax="381">
      <contour>
        <pt x="468" y="187" on="1"/>
        <pt x="473" y="224" on="0"/>
        <pt x="454" y="290" on="0"/>
        <pt x="412" y="339" on="0"/>
        <pt x="350" y="367" on="0"/>
        <pt x="313" y="367" on="1"/>
        <pt x="275" y="367" on="0"/>
        <pt x="206" y="339" on="0"/>
        <pt x="150" y="290" on="0"/>
        <pt x="112" y="224" on="0"/>
        <pt x="107" y="187" on="1"/>
        <pt x="102" y="149" on="0"/>
        <pt x="121" y="84" on="0"/>
        <pt x="163" y="34" on="0"/>
        <pt x="224" y="6" on="0"/>
        <pt x="262" y="6" on="1"/>
        <pt x="299" y="6" on="0"/>
        <pt x="369" y="34" on="0"/>
        <pt x="425" y="84" on="0"/>
        <pt x="463" y="149" on="0"/>
      </contour>
      <contour>
        <pt x="482" y="187" on="1"/>
        <pt x="476" y="143" on="0"/>
        <pt x="436" y="71" on="0"/>
        <pt x="376" y="20" on="0"/>
        <pt x="300" y="-8" on="0"/>
        <pt x="260" y="-8" on="1"/>
        <pt x="197" y="-8" on="0"/>
        <pt x="111" y="61" on="0"/>
        <pt x="97" y="115" on="1"/>
        <pt x="95" y="101" on="0"/>
        <pt x="92" y="75" on="0"/>
        <pt x="90" y="61" on="1"/>
        <pt x="46" y="-250" on="1"/>
        <pt x="31" y="-250" on="1"/>
        <pt x="119" y="375" on="1"/>
        <pt x="133" y="375" on="1"/>
        <pt x="129" y="346" on="0"/>
        <pt x="120" y="286" on="0"/>
        <pt x="116" y="257" on="1"/>
        <pt x="145" y="312" on="0"/>
        <pt x="252" y="381" on="0"/>
        <pt x="315" y="381" on="1"/>
        <pt x="355" y="381" on="0"/>
        <pt x="422" y="351" on="0"/>
        <pt x="467" y="298" on="0"/>
        <pt x="488" y="227" on="0"/>
      </contour>
    </TTGlyph>
    <TTGlyph name="paragraph" xMin="62" yMin="0" xMax="430" yMax="750">
      <contour>
        <pt x="162" y="0" on="1"/>
        <pt x="148" y="0" on="1"/>
        <pt x="207" y="423" on="1"/>
        <pt x="173" y="423" on="0"/>
        <pt x="117" y="448" on="0"/>
        <pt x="79" y="492" on="0"/>
        <pt x="62" y="552" on="0"/>
        <pt x="67" y="586" on="1"/>
        <pt x="72" y="620" on="0"/>
        <pt x="106" y="680" on="0"/>
        <pt x="156" y="724" on="0"/>
        <pt x="219" y="750" on="0"/>
        <pt x="253" y="750" on="1"/>
        <pt x="430" y="750" on="1"/>
        <pt x="325" y="0" on="1"/>
        <pt x="311" y="0" on="1"/>
        <pt x="414" y="736" on="1"/>
        <pt x="265" y="736" on="1"/>
      </contour>
    </TTGlyph>
    <TTGlyph name="parenleft" xMin="136" yMin="-163" xMax="375" yMax="747">
      <contour>
        <pt x="147" y="292" on="1"/>
        <pt x="157" y="367" on="0"/>
        <pt x="204" y="503" on="0"/>
        <pt x="267" y="619" on="0"/>
        <pt x="339" y="714" on="0"/>
        <pt x="375" y="747" on="1"/>
        <pt x="375" y="724" on="1"/>
        <pt x="342" y="691" on="0"/>
        <pt x="274" y="601" on="0"/>
        <pt x="215" y="491" on="0"/>
        <pt x="171" y="363" on="0"/>
        <pt x="161" y="292" on="1"/>
        <pt x="151" y="221" on="0"/>
        <pt x="159" y="93" on="0"/>
        <pt x="187" y="-17" on="0"/>
        <pt x="230" y="-107" on="0"/>
        <pt x="254" y="-140" on="1"/>
        <pt x="252" y="-146" on="0"/>
        <pt x="250" y="-157" on="0"/>
        <pt x="248" y="-163" on="1"/>
        <pt x="221" y="-130" on="0"/>
        <pt x="175" y="-35" on="0"/>
        <pt x="145" y="81" on="0"/>
        <pt x="136" y="217" on="0"/>
      </contour>
    </TTGlyph>
    <TTGlyph name="parenright" xMin="50" yMin="-163" xMax="289" yMax="747">
      <contour>
        <pt x="279" y="292" on="1"/>
        <pt x="268" y="217" on="0"/>
        <pt x="221" y="81" on="0"/>
        <pt x="158" y="-35" on="0"/>
        <pt x="86" y="-130" on="0"/>
        <pt x="50" y="-163" on="1"/>
        <pt x="50" y="-140" on="1"/>
        <pt x="83" y="-107" on="0"/>
        <pt x="151" y="-17" on="0"/>
        <pt x="210" y="93" on="0"/>
        <pt x="255" y="221" on="0"/>
        <pt x="265" y="292" on="1"/>
        <pt x="275" y="363" on="0"/>
        <pt x="266" y="491" on="0"/>
        <pt x="238" y="601" on="0"/>
        <pt x="195" y="691" on="0"/>
        <pt x="171" y="724" on="1"/>
        <pt x="173" y="730" on="0"/>
        <pt x="175" y="741" on="0"/>
        <pt x="177" y="747" on="1"/>
        <pt x="204" y="714" on="0"/>
        <pt x="250" y="619" on="0"/>
        <pt x="280" y="503" on="0"/>
        <pt x="289" y="367" on="0"/>
      </contour>
    </TTGlyph>
    <TTGlyph name="percent" xMin="124" yMin="0" xMax="615" yMax="500">
      <contour>
        <pt x="406" y="112" on="1"/>
        <pt x="401" y="73" on="0"/>
        <pt x="449" y="18" on="0"/>
        <pt x="489" y="18" on="1"/>
        <pt x="509" y="18" on="0"/>
        <pt x="546" y="33" on="0"/>
        <pt x="576" y="58" on="0"/>
        <pt x="595" y="92" on="0"/>
        <pt x="598" y="112" on="1"/>
        <pt x="603" y="151" on="0"/>
        <pt x="555" y="207" on="0"/>
        <pt x="515" y="207" on="1"/>
        <pt x="495" y="207" on="0"/>
        <pt x="458" y="192" on="0"/>
        <pt x="428" y="166" on="0"/>
        <pt x="409" y="131" on="0"/>
      </contour>
      <contour>
        <pt x="487" y="4" on="1"/>
        <pt x="464" y="4" on="0"/>
        <pt x="427" y="21" on="0"/>
        <pt x="401" y="50" on="0"/>
        <pt x="389" y="90" on="0"/>
        <pt x="392" y="113" on="1"/>
        <pt x="395" y="135" on="0"/>
        <pt x="418" y="175" on="0"/>
        <pt x="452" y="204" on="0"/>
        <pt x="494" y="221" on="0"/>
        <pt x="517" y="221" on="1"/>
        <pt x="539" y="221" on="0"/>
        <pt x="577" y="204" on="0"/>
        <pt x="603" y="175" on="0"/>
        <pt x="615" y="135" on="0"/>
        <pt x="612" y="113" on="1"/>
        <pt x="609" y="90" on="0"/>
        <pt x="586" y="50" on="0"/>
        <pt x="551" y="21" on="0"/>
        <pt x="509" y="4" on="0"/>
      </contour>
      <contour>
        <pt x="141" y="388" on="1"/>
        <pt x="136" y="349" on="0"/>
        <pt x="184" y="294" on="0"/>
        <pt x="224" y="294" on="1"/>
        <pt x="244" y="294" on="0"/>
        <pt x="281" y="309" on="0"/>
        <pt x="311" y="334" on="0"/>
        <pt x="330" y="368" on="0"/>
        <pt x="333" y="388" on="1"/>
        <pt x="338" y="427" on="0"/>
        <pt x="290" y="483" on="0"/>
        <pt x="250" y="483" on="1"/>
        <pt x="230" y="483" on="0"/>
        <pt x="193" y="468" on="0"/>
        <pt x="163" y="442" on="0"/>
        <pt x="144" y="407" on="0"/>
      </contour>
      <contour>
        <pt x="222" y="280" on="1"/>
        <pt x="199" y="280" on="0"/>
        <pt x="162" y="297" on="0"/>
        <pt x="136" y="326" on="0"/>
        <pt x="124" y="366" on="0"/>
        <pt x="127" y="389" on="1"/>
        <pt x="130" y="411" on="0"/>
        <pt x="153" y="451" on="0"/>
        <pt x="187" y="480" on="0"/>
        <pt x="229" y="497" on="0"/>
        <pt x="252" y="497" on="1"/>
        <pt x="274" y="497" on="0"/>
        <pt x="312" y="480" on="0"/>
        <pt x="338" y="451" on="0"/>
        <pt x="350" y="411" on="0"/>
        <pt x="347" y="389" on="1"/>
        <pt x="344" y="366" on="0"/>
        <pt x="320" y="326" on="0"/>
        <pt x="286" y="297" on="0"/>
        <pt x="244" y="280" on="0"/>
      </contour>
      <contour>
        <pt x="172" y="0" on="1"/>
        <pt x="265" y="126" on="0"/>
        <pt x="448" y="374" on="0"/>
        <pt x="541" y="500" on="1"/>
        <pt x="557" y="500" on="1"/>
        <pt x="464" y="374" on="0"/>
        <pt x="281" y="126" on="0"/>
        <pt x="188" y="0" on="1"/>
      </contour>
    </TTGlyph>
    <TTGlyph name="period" xMin="64" yMin="0" xMax="107" yMax="40">
      <contour>
        <pt x="66" y="20" on="1"/>
        <pt x="67" y="28" on="0"/>
        <pt x="80" y="40" on="0"/>
        <pt x="88" y="40" on="1"/>
        <pt x="96" y="40" on="0"/>
        <pt x="107" y="28" on="0"/>
        <pt x="106" y="20" on="1"/>
        <pt x="104" y="12" on="0"/>
        <pt x="91" y="0" on="0"/>
        <pt x="83" y="0" on="1"/>
        <pt x="75" y="0" on="0"/>
        <pt x="64" y="12" on="0"/>
      </contour>
    </TTGlyph>
    <TTGlyph name="periodcentered" xMin="64" yMin="260" xMax="107" yMax="300">
      <component glyphName="period" x="0" y="260" flags="0x204"/>
    </TTGlyph>
    <TTGlyph name="plus" xMin="85" yMin="51" xMax="447" yMax="411">
      <contour>
        <pt x="233" y="51" on="1"/>
        <pt x="258" y="225" on="1"/>
        <pt x="85" y="225" on="1"/>
        <pt x="87" y="239" on="1"/>
        <pt x="260" y="239" on="1"/>
        <pt x="284" y="411" on="1"/>
        <pt x="298" y="411" on="1"/>
        <pt x="274" y="239" on="1"/>
        <pt x="447" y="239" on="1"/>
        <pt x="445" y="225" on="1"/>
        <pt x="272" y="225" on="1"/>
        <pt x="247" y="51" on="1"/>
      </contour>
    </TTGlyph>
    <TTGlyph name="plusminus" xMin="55" yMin="136" xMax="452" yMax="571">
      <contour>
        <pt x="238" y="211" on="1"/>
        <pt x="263" y="385" on="1"/>
        <pt x="90" y="385" on="1"/>
        <pt x="92" y="399" on="1"/>
        <pt x="265" y="399" on="1"/>
        <pt x="289" y="571" on="1"/>
        <pt x="303" y="571" on="1"/>
        <pt x="279" y="399" on="1"/>
        <pt x="452" y="399" on="1"/>
        <pt x="450" y="385" on="1"/>
        <pt x="277" y="385" on="1"/>
        <pt x="252" y="211" on="1"/>
      </contour>
      <contour>
        <pt x="415" y="136" on="1"/>
        <pt x="55" y="136" on="1"/>
        <pt x="57" y="150" on="1"/>
        <pt x="417" y="150" on="1"/>
      </contour>
    </TTGlyph>
    <TTGlyph name="q" xMin="73" yMin="-250" xMax="494" yMax="381">
      <contour>
        <pt x="93" y="187" on="1"/>
        <pt x="88" y="149" on="0"/>
        <pt x="106" y="84" on="0"/>
        <pt x="148" y="34" on="0"/>
        <pt x="209" y="6" on="0"/>
        <pt x="247" y="6" on="1"/>
        <pt x="284" y="6" on="0"/>
        <pt x="355" y="34" on="0"/>
        <pt x="411" y="84" on="0"/>
        <pt x="449" y="149" on="0"/>
        <pt x="454" y="187" on="1"/>
        <pt x="459" y="224" on="0"/>
        <pt x="440" y="290" on="0"/>
        <pt x="398" y="339" on="0"/>
        <pt x="335" y="367" on="0"/>
        <pt x="298" y="367" on="1"/>
        <pt x="260" y="367" on="0"/>
        <pt x="191" y="339" on="0"/>
        <pt x="135" y="290" on="0"/>
        <pt x="98" y="224" on="0"/>
      </contour>
      <contour>
        <pt x="79" y="187" on="1"/>
        <pt x="85" y="231" on="0"/>
        <pt x="125" y="302" on="0"/>
        <pt x="185" y="353" on="0"/>
        <pt x="259" y="381" on="0"/>
        <pt x="300" y="381" on="1"/>
        <pt x="363" y="381" on="0"/>
        <pt x="451" y="312" on="0"/>
        <pt x="465" y="257" on="1"/>
        <pt x="469" y="286" on="0"/>
        <pt x="476" y="346" on="0"/>
        <pt x="480" y="375" on="1"/>
        <pt x="494" y="375" on="1"/>
        <pt x="406" y="-250" on="1"/>
        <pt x="391" y="-250" on="1"/>
        <pt x="435" y="61" on="1"/>
        <pt x="444" y="115" on="1"/>
        <pt x="415" y="58" on="0"/>
        <pt x="308" y="-8" on="0"/>
        <pt x="245" y="-8" on="1"/>
        <pt x="204" y="-8" on="0"/>
        <pt x="138" y="23" on="0"/>
        <pt x="93" y="75" on="0"/>
        <pt x="73" y="146" on="0"/>
      </contour>
    </TTGlyph>
    <TTGlyph name="question" xMin="61" yMin="25" xMax="440" yMax="732">
      <contour>
        <pt x="74" y="596" on="1"/>
        <pt x="71" y="597" on="0"/>
        <pt x="64" y="598" on="0"/>
        <pt x="61" y="599" on="1"/>
        <pt x="75" y="628" on="0"/>
        <pt x="118" y="677" on="0"/>
        <pt x="171" y="712" on="0"/>
        <pt x="233" y="732" on="0"/>
        <pt x="265" y="732" on="1"/>
        <pt x="306" y="732" on="0"/>
        <pt x="374" y="701" on="0"/>
        <pt x="419" y="648" on="0"/>
        <pt x="440" y="577" on="0"/>
        <pt x="434" y="537" on="1"/>
        <pt x="426" y="483" on="0"/>
        <pt x="362" y="402" on="0"/>
        <pt x="312" y="370" on="1"/>
        <pt x="291" y="356" on="0"/>
        <pt x="255" y="337" on="0"/>
        <pt x="226" y="313" on="0"/>
        <pt x="207" y="275" on="0"/>
        <pt x="202" y="242" on="1"/>
        <pt x="191" y="164" on="1"/>
        <pt x="177" y="164" on="1"/>
        <pt x="191" y="261" on="1"/>
        <pt x="195" y="292" on="0"/>
        <pt x="224" y="329" on="0"/>
        <pt x="265" y="358" on="0"/>
        <pt x="316" y="387" on="0"/>
        <pt x="343" y="408" on="1"/>
        <pt x="378" y="435" on="0"/>
        <pt x="415" y="500" on="0"/>
        <pt x="420" y="537" on="1"/>
        <pt x="425" y="576" on="0"/>
        <pt x="406" y="642" on="0"/>
        <pt x="364" y="691" on="0"/>
        <pt x="301" y="718" on="0"/>
        <pt x="263" y="718" on="1"/>
        <pt x="233" y="718" on="0"/>
        <pt x="176" y="700" on="0"/>
        <pt x="126" y="668" on="0"/>
        <pt x="86" y="623" on="0"/>
      </contour>
      <contour>
        <pt x="165" y="25" on="1"/>
        <pt x="158" y="25" on="0"/>
        <pt x="147" y="37" on="0"/>
        <pt x="149" y="45" on="1"/>
        <pt x="150" y="54" on="0"/>
        <pt x="163" y="65" on="0"/>
        <pt x="170" y="65" on="1"/>
        <pt x="178" y="65" on="0"/>
        <pt x="189" y="54" on="0"/>
        <pt x="188" y="45" on="1"/>
        <pt x="186" y="37" on="0"/>
        <pt x="173" y="25" on="0"/>
      </contour>
    </TTGlyph>
    <TTGlyph name="questiondown" xMin="9" yMin="-193" xMax="389" yMax="515">
      <component glyphName="question" x="449" y="539" scale="-1.0" flags="0x4"/>
    </TTGlyph>
    <TTGlyph name="quotedbl" xMin="45" yMin="472" xMax="231" yMax="720">
      <contour>
        <pt x="178" y="472" on="1"/>
        <pt x="213" y="720" on="1"/>
        <pt x="231" y="720" on="1"/>
        <pt x="221" y="657" on="0"/>
        <pt x="202" y="535" on="0"/>
        <pt x="192" y="472" on="1"/>
      </contour>
      <contour>
        <pt x="45" y="472" on="1"/>
        <pt x="80" y="720" on="1"/>
        <pt x="98" y="720" on="1"/>
        <pt x="88" y="657" on="0"/>
        <pt x="69" y="535" on="0"/>
        <pt x="59" y="472" on="1"/>
      </contour>
    </TTGlyph>
    <TTGlyph name="quotedblbase" xMin="12" yMin="-47" xMax="188" yMax="92">
      <contour>
        <pt x="16" y="-47" on="1"/>
        <pt x="15" y="-42" on="0"/>
        <pt x="13" y="-34" on="0"/>
        <pt x="12" y="-29" on="1"/>
        <pt x="36" y="-9" on="0"/>
        <pt x="63" y="50" on="0"/>
        <pt x="61" y="85" on="1"/>
        <pt x="66" y="87" on="0"/>
        <pt x="76" y="90" on="0"/>
        <pt x="81" y="92" on="1"/>
        <pt x="84" y="52" on="0"/>
        <pt x="49" y="-21" on="0"/>
      </contour>
      <contour>
        <pt x="120" y="-47" on="1"/>
        <pt x="119" y="-42" on="0"/>
        <pt x="117" y="-34" on="0"/>
        <pt x="116" y="-29" on="1"/>
        <pt x="140" y="-9" on="0"/>
        <pt x="167" y="50" on="0"/>
        <pt x="165" y="85" on="1"/>
        <pt x="170" y="87" on="0"/>
        <pt x="180" y="90" on="0"/>
        <pt x="185" y="92" on="1"/>
        <pt x="188" y="52" on="0"/>
        <pt x="153" y="-21" on="0"/>
      </contour>
    </TTGlyph>
    <TTGlyph name="quotedblleft" xMin="26" yMin="572" xMax="179" yMax="711">
      <contour>
        <pt x="179" y="590" on="1"/>
        <pt x="177" y="585" on="0"/>
        <pt x="173" y="577" on="0"/>
        <pt x="171" y="572" on="1"/>
        <pt x="145" y="598" on="0"/>
        <pt x="130" y="671" on="0"/>
        <pt x="144" y="711" on="1"/>
        <pt x="149" y="709" on="0"/>
        <pt x="158" y="706" on="0"/>
        <pt x="162" y="704" on="1"/>
        <pt x="151" y="669" on="0"/>
        <pt x="161" y="610" on="0"/>
      </contour>
      <contour>
        <pt x="75" y="590" on="1"/>
        <pt x="73" y="585" on="0"/>
        <pt x="69" y="577" on="0"/>
        <pt x="67" y="572" on="1"/>
        <pt x="41" y="598" on="0"/>
        <pt x="26" y="671" on="0"/>
        <pt x="40" y="711" on="1"/>
        <pt x="45" y="709" on="0"/>
        <pt x="54" y="706" on="0"/>
        <pt x="58" y="704" on="1"/>
        <pt x="47" y="669" on="0"/>
        <pt x="57" y="610" on="0"/>
      </contour>
    </TTGlyph>
    <TTGlyph name="quotedblright" xMin="36" yMin="572" xMax="212" yMax="711">
      <contour>
        <pt x="40" y="572" on="1"/>
        <pt x="39" y="577" on="0"/>
        <pt x="37" y="585" on="0"/>
        <pt x="36" y="590" on="1"/>
        <pt x="60" y="610" on="0"/>
        <pt x="87" y="669" on="0"/>
        <pt x="85" y="704" on="1"/>
        <pt x="90" y="706" on="0"/>
        <pt x="100" y="709" on="0"/>
        <pt x="105" y="711" on="1"/>
        <pt x="108" y="671" on="0"/>
        <pt x="73" y="598" on="0"/>
      </contour>
      <contour>
        <pt x="144" y="572" on="1"/>
        <pt x="143" y="577" on="0"/>
        <pt x="141" y="585" on="0"/>
        <pt x="140" y="590" on="1"/>
        <pt x="164" y="610" on="0"/>
        <pt x="191" y="669" on="0"/>
        <pt x="189" y="704" on="1"/>
        <pt x="194" y="706" on="0"/>
        <pt x="204" y="709" on="0"/>
        <pt x="209" y="711" on="1"/>
        <pt x="212" y="671" on="0"/>
        <pt x="177" y="598" on="0"/>
      </contour>
    </TTGlyph>
    <TTGlyph name="quoteleft" xMin="35" yMin="572" xMax="84" yMax="711">
      <contour>
        <pt x="84" y="590" on="1"/>
        <pt x="82" y="585" on="0"/>
        <pt x="78" y="577" on="0"/>
        <pt x="76" y="572" on="1"/>
        <pt x="50" y="598" on="0"/>
        <pt x="35" y="671" on="0"/>
        <pt x="49" y="711" on="1"/>
        <pt x="54" y="709" on="0"/>
        <pt x="63" y="706" on="0"/>
        <pt x="67" y="704" on="1"/>
        <pt x="56" y="669" on="0"/>
        <pt x="66" y="610" on="0"/>
      </contour>
    </TTGlyph>
    <TTGlyph name="quoteright" xMin="51" yMin="572" xMax="123" yMax="711">
      <contour>
        <pt x="55" y="572" on="1"/>
        <pt x="54" y="577" on="0"/>
        <pt x="52" y="585" on="0"/>
        <pt x="51" y="590" on="1"/>
        <pt x="75" y="610" on="0"/>
        <pt x="102" y="669" on="0"/>
        <pt x="100" y="704" on="1"/>
        <pt x="105" y="706" on="0"/>
        <pt x="115" y="709" on="0"/>
        <pt x="120" y="711" on="1"/>
        <pt x="123" y="671" on="0"/>
        <pt x="88" y="598" on="0"/>
      </contour>
    </TTGlyph>
    <TTGlyph name="quotesinglbase" xMin="12" yMin="-47" xMax="84" yMax="92">
      <contour>
        <pt x="16" y="-47" on="1"/>
        <pt x="15" y="-42" on="0"/>
        <pt x="13" y="-34" on="0"/>
        <pt x="12" y="-29" on="1"/>
        <pt x="36" y="-9" on="0"/>
        <pt x="63" y="50" on="0"/>
        <pt x="61" y="85" on="1"/>
        <pt x="66" y="87" on="0"/>
        <pt x="76" y="90" on="0"/>
        <pt x="81" y="92" on="1"/>
        <pt x="84" y="52" on="0"/>
        <pt x="49" y="-21" on="0"/>
      </contour>
    </TTGlyph>
    <TTGlyph name="quotesingle" xMin="49" yMin="472" xMax="102" yMax="720">
      <contour>
        <pt x="49" y="472" on="1"/>
        <pt x="84" y="720" on="1"/>
        <pt x="102" y="720" on="1"/>
        <pt x="92" y="657" on="0"/>
        <pt x="73" y="535" on="0"/>
        <pt x="63" y="472" on="1"/>
      </contour>
    </TTGlyph>
    <TTGlyph name="r" xMin="117" yMin="0" xMax="347" yMax="382">
      <contour>
        <pt x="345" y="368" on="1"/>
        <pt x="312" y="367" on="0"/>
        <pt x="250" y="344" on="0"/>
        <pt x="200" y="305" on="0"/>
        <pt x="165" y="251" on="0"/>
        <pt x="161" y="220" on="1"/>
        <pt x="131" y="0" on="1"/>
        <pt x="117" y="0" on="1"/>
        <pt x="169" y="375" on="1"/>
        <pt x="183" y="375" on="1"/>
        <pt x="176" y="322" on="1"/>
        <pt x="174" y="311" on="0"/>
        <pt x="169" y="288" on="0"/>
        <pt x="166" y="277" on="1"/>
        <pt x="194" y="325" on="0"/>
        <pt x="290" y="380" on="0"/>
        <pt x="347" y="382" on="1"/>
      </contour>
    </TTGlyph>
    <TTGlyph name="registered" xMin="136" yMin="118" xMax="662" yMax="627">
      <contour>
        <pt x="365" y="132" on="1"/>
        <pt x="415" y="132" on="0"/>
        <pt x="508" y="168" on="0"/>
        <pt x="583" y="233" on="0"/>
        <pt x="633" y="320" on="0"/>
        <pt x="640" y="371" on="1"/>
        <pt x="647" y="423" on="0"/>
        <pt x="622" y="512" on="0"/>
        <pt x="565" y="577" on="0"/>
        <pt x="482" y="613" on="0"/>
        <pt x="432" y="613" on="1"/>
        <pt x="383" y="613" on="0"/>
        <pt x="291" y="577" on="0"/>
        <pt x="216" y="512" on="0"/>
        <pt x="165" y="423" on="0"/>
        <pt x="158" y="371" on="1"/>
        <pt x="151" y="320" on="0"/>
        <pt x="177" y="233" on="0"/>
        <pt x="234" y="168" on="0"/>
        <pt x="316" y="132" on="0"/>
      </contour>
      <contour>
        <pt x="364" y="118" on="1"/>
        <pt x="310" y="118" on="0"/>
        <pt x="222" y="156" on="0"/>
        <pt x="163" y="224" on="0"/>
        <pt x="136" y="317" on="0"/>
        <pt x="144" y="372" on="1"/>
        <pt x="152" y="427" on="0"/>
        <pt x="204" y="521" on="0"/>
        <pt x="282" y="589" on="0"/>
        <pt x="381" y="627" on="0"/>
        <pt x="435" y="627" on="1"/>
        <pt x="489" y="627" on="0"/>
        <pt x="577" y="589" on="0"/>
        <pt x="636" y="521" on="0"/>
        <pt x="662" y="427" on="0"/>
        <pt x="654" y="372" on="1"/>
        <pt x="646" y="317" on="0"/>
        <pt x="594" y="224" on="0"/>
        <pt x="516" y="156" on="0"/>
        <pt x="418" y="118" on="0"/>
      </contour>
      <contour>
        <pt x="340" y="378" on="1"/>
        <pt x="395" y="378" on="1"/>
        <pt x="422" y="378" on="0"/>
        <pt x="460" y="393" on="0"/>
        <pt x="485" y="416" on="0"/>
        <pt x="497" y="444" on="0"/>
        <pt x="499" y="457" on="1"/>
        <pt x="503" y="488" on="0"/>
        <pt x="457" y="534" on="0"/>
        <pt x="417" y="534" on="1"/>
        <pt x="362" y="534" on="1"/>
      </contour>
      <contour>
        <pt x="310" y="210" on="1"/>
        <pt x="357" y="541" on="1"/>
        <pt x="423" y="541" on="1"/>
        <pt x="436" y="541" on="0"/>
        <pt x="468" y="532" on="0"/>
        <pt x="494" y="511" on="0"/>
        <pt x="508" y="479" on="0"/>
        <pt x="505" y="457" on="1"/>
        <pt x="500" y="424" on="0"/>
        <pt x="458" y="381" on="0"/>
        <pt x="422" y="374" on="1"/>
        <pt x="436" y="332" on="0"/>
        <pt x="462" y="251" on="0"/>
        <pt x="476" y="210" on="1"/>
        <pt x="469" y="210" on="1"/>
        <pt x="455" y="251" on="0"/>
        <pt x="428" y="331" on="0"/>
        <pt x="415" y="373" on="1"/>
        <pt x="409" y="372" on="0"/>
        <pt x="398" y="371" on="0"/>
        <pt x="392" y="371" on="1"/>
        <pt x="339" y="371" on="1"/>
        <pt x="317" y="210" on="1"/>
      </contour>
    </TTGlyph>
    <TTGlyph name="s" xMin="90" yMin="-8" xMax="346" yMax="379">
      <contour>
        <pt x="346" y="336" on="1"/>
        <pt x="343" y="334" on="0"/>
        <pt x="337" y="328" on="0"/>
        <pt x="334" y="326" on="1"/>
        <pt x="320" y="346" on="0"/>
        <pt x="270" y="365" on="0"/>
        <pt x="249" y="365" on="1"/>
        <pt x="236" y="365" on="0"/>
        <pt x="206" y="357" on="0"/>
        <pt x="178" y="338" on="0"/>
        <pt x="156" y="307" on="0"/>
        <pt x="153" y="285" on="1"/>
        <pt x="148" y="256" on="0"/>
        <pt x="173" y="225" on="0"/>
        <pt x="215" y="206" on="0"/>
        <pt x="265" y="193" on="0"/>
        <pt x="307" y="171" on="0"/>
        <pt x="332" y="134" on="0"/>
        <pt x="328" y="101" on="1"/>
        <pt x="325" y="82" on="0"/>
        <pt x="306" y="43" on="0"/>
        <pt x="272" y="12" on="0"/>
        <pt x="226" y="-8" on="0"/>
        <pt x="196" y="-8" on="1"/>
        <pt x="170" y="-8" on="0"/>
        <pt x="107" y="13" on="0"/>
        <pt x="90" y="39" on="1"/>
        <pt x="102" y="48" on="1"/>
        <pt x="107" y="39" on="0"/>
        <pt x="130" y="23" on="0"/>
        <pt x="159" y="12" on="0"/>
        <pt x="189" y="6" on="0"/>
        <pt x="202" y="6" on="1"/>
        <pt x="217" y="6" on="0"/>
        <pt x="253" y="18" on="0"/>
        <pt x="286" y="41" on="0"/>
        <pt x="310" y="75" on="0"/>
        <pt x="313" y="98" on="1"/>
        <pt x="317" y="129" on="0"/>
        <pt x="293" y="163" on="0"/>
        <pt x="251" y="182" on="0"/>
        <pt x="201" y="196" on="0"/>
        <pt x="159" y="215" on="0"/>
        <pt x="134" y="249" on="0"/>
        <pt x="138" y="280" on="1"/>
        <pt x="141" y="304" on="0"/>
        <pt x="164" y="340" on="0"/>
        <pt x="196" y="366" on="0"/>
        <pt x="234" y="379" on="0"/>
        <pt x="253" y="379" on="1"/>
        <pt x="274" y="379" on="0"/>
        <pt x="328" y="360" on="0"/>
      </contour>
    </TTGlyph>
    <TTGlyph name="section" xMin="144" yMin="-10" xMax="369" yMax="730">
      <contour>
        <pt x="166" y="311" on="1"/>
        <pt x="177" y="284" on="0"/>
        <pt x="227" y="260" on="0"/>
        <pt x="256" y="262" on="1"/>
        <pt x="277" y="264" on="0"/>
        <pt x="313" y="285" on="0"/>
        <pt x="340" y="315" on="0"/>
        <pt x="355" y="353" on="0"/>
        <pt x="355" y="371" on="1"/>
        <pt x="355" y="393" on="0"/>
        <pt x="338" y="427" on="0"/>
        <pt x="311" y="450" on="0"/>
        <pt x="276" y="460" on="0"/>
        <pt x="257" y="459" on="1"/>
        <pt x="228" y="456" on="0"/>
        <pt x="185" y="425" on="0"/>
        <pt x="161" y="382" on="0"/>
        <pt x="157" y="332" on="0"/>
      </contour>
      <contour>
        <pt x="219" y="154" on="1"/>
        <pt x="153" y="304" on="1"/>
        <pt x="144" y="324" on="0"/>
        <pt x="144" y="369" on="0"/>
        <pt x="160" y="411" on="0"/>
        <pt x="192" y="447" on="0"/>
        <pt x="213" y="459" on="1"/>
        <pt x="242" y="474" on="0"/>
        <pt x="303" y="471" on="0"/>
        <pt x="326" y="456" on="1"/>
        <pt x="313" y="483" on="0"/>
        <pt x="290" y="538" on="0"/>
        <pt x="278" y="566" on="1"/>
        <pt x="258" y="615" on="0"/>
        <pt x="259" y="665" on="0"/>
        <pt x="271" y="681" on="1"/>
        <pt x="283" y="697" on="0"/>
        <pt x="332" y="721" on="0"/>
        <pt x="350" y="730" on="1"/>
        <pt x="351" y="726" on="0"/>
        <pt x="355" y="718" on="1"/>
        <pt x="341" y="710" on="0"/>
        <pt x="315" y="697" on="0"/>
        <pt x="301" y="689" on="1"/>
        <pt x="272" y="674" on="0"/>
        <pt x="271" y="618" on="0"/>
        <pt x="294" y="566" on="1"/>
        <pt x="311" y="528" on="0"/>
        <pt x="343" y="453" on="0"/>
        <pt x="360" y="415" on="1"/>
        <pt x="369" y="395" on="0"/>
        <pt x="369" y="351" on="0"/>
        <pt x="352" y="309" on="0"/>
        <pt x="320" y="274" on="0"/>
        <pt x="299" y="262" on="1"/>
        <pt x="270" y="246" on="0"/>
        <pt x="209" y="248" on="0"/>
        <pt x="186" y="264" on="1"/>
        <pt x="198" y="236" on="0"/>
        <pt x="223" y="182" on="0"/>
        <pt x="235" y="154" on="1"/>
        <pt x="255" y="105" on="0"/>
        <pt x="253" y="55" on="0"/>
        <pt x="242" y="39" on="1"/>
        <pt x="230" y="22" on="0"/>
        <pt x="181" y="-2" on="0"/>
        <pt x="163" y="-10" on="1"/>
        <pt x="162" y="-6" on="0"/>
        <pt x="158" y="2" on="1"/>
        <pt x="172" y="10" on="0"/>
        <pt x="198" y="23" on="0"/>
        <pt x="212" y="31" on="1"/>
        <pt x="241" y="46" on="0"/>
        <pt x="242" y="102" on="0"/>
      </contour>
    </TTGlyph>
    <TTGlyph name="semicolon" xMin="-16" yMin="-120" xMax="155" yMax="290">
      <contour>
        <pt x="114" y="270" on="1"/>
        <pt x="115" y="278" on="0"/>
        <pt x="128" y="290" on="0"/>
        <pt x="136" y="290" on="1"/>
        <pt x="144" y="290" on="0"/>
        <pt x="155" y="278" on="0"/>
        <pt x="154" y="270" on="1"/>
        <pt x="152" y="262" on="0"/>
        <pt x="139" y="250" on="0"/>
        <pt x="131" y="250" on="1"/>
        <pt x="123" y="250" on="0"/>
        <pt x="112" y="262" on="0"/>
      </contour>
      <contour>
        <pt x="112" y="86" on="1"/>
        <pt x="83" y="34" on="0"/>
        <pt x="26" y="-68" on="0"/>
        <pt x="-2" y="-120" on="1"/>
        <pt x="-16" y="-120" on="1"/>
        <pt x="10" y="-68" on="0"/>
        <pt x="62" y="34" on="0"/>
        <pt x="89" y="86" on="1"/>
      </contour>
    </TTGlyph>
    <TTGlyph name="seven" xMin="57" yMin="0" xMax="460" yMax="650">
      <contour>
        <pt x="57" y="636" on="1"/>
        <pt x="59" y="650" on="1"/>
        <pt x="460" y="650" on="1"/>
        <pt x="364" y="486" on="0"/>
        <pt x="173" y="164" on="0"/>
        <pt x="77" y="0" on="1"/>
        <pt x="59" y="0" on="1"/>
        <pt x="154" y="160" on="0"/>
        <pt x="340" y="476" on="0"/>
        <pt x="435" y="636" on="1"/>
      </contour>
    </TTGlyph>
    <TTGlyph name="six" xMin="27" yMin="-8" xMax="447" yMax="633">
      <contour>
        <pt x="46" y="193" on="1"/>
        <pt x="40" y="154" on="0"/>
        <pt x="60" y="86" on="0"/>
        <pt x="105" y="35" on="0"/>
        <pt x="170" y="6" on="0"/>
        <pt x="209" y="6" on="1"/>
        <pt x="248" y="6" on="0"/>
        <pt x="322" y="35" on="0"/>
        <pt x="381" y="86" on="0"/>
        <pt x="421" y="154" on="0"/>
        <pt x="427" y="193" on="1"/>
        <pt x="432" y="232" on="0"/>
        <pt x="412" y="300" on="0"/>
        <pt x="367" y="351" on="0"/>
        <pt x="301" y="381" on="0"/>
        <pt x="262" y="381" on="1"/>
        <pt x="223" y="381" on="0"/>
        <pt x="149" y="351" on="0"/>
        <pt x="91" y="300" on="0"/>
        <pt x="51" y="232" on="0"/>
      </contour>
      <contour>
        <pt x="33" y="193" on="1"/>
        <pt x="43" y="266" on="0"/>
        <pt x="122" y="391" on="0"/>
        <pt x="234" y="499" on="0"/>
        <pt x="365" y="592" on="0"/>
        <pt x="427" y="633" on="1"/>
        <pt x="430" y="626" on="0"/>
        <pt x="435" y="620" on="1"/>
        <pt x="362" y="576" on="0"/>
        <pt x="248" y="490" on="0"/>
        <pt x="163" y="411" on="0"/>
        <pt x="106" y="342" on="0"/>
        <pt x="91" y="314" on="1"/>
        <pt x="124" y="351" on="0"/>
        <pt x="214" y="395" on="0"/>
        <pt x="265" y="395" on="1"/>
        <pt x="307" y="395" on="0"/>
        <pt x="377" y="363" on="0"/>
        <pt x="425" y="308" on="0"/>
        <pt x="447" y="235" on="0"/>
        <pt x="441" y="193" on="1"/>
        <pt x="435" y="151" on="0"/>
        <pt x="392" y="78" on="0"/>
        <pt x="329" y="24" on="0"/>
        <pt x="250" y="-8" on="0"/>
        <pt x="208" y="-8" on="1"/>
        <pt x="166" y="-8" on="0"/>
        <pt x="96" y="24" on="0"/>
        <pt x="48" y="78" on="0"/>
        <pt x="27" y="151" on="0"/>
      </contour>
    </TTGlyph>
    <TTGlyph name="slash" xMin="-36" yMin="-19" xMax="362" yMax="736">
      <contour>
        <pt x="-36" y="-19" on="1"/>
        <pt x="61" y="171" on="0"/>
        <pt x="251" y="546" on="0"/>
        <pt x="348" y="736" on="1"/>
        <pt x="362" y="736" on="1"/>
        <pt x="265" y="546" on="0"/>
        <pt x="75" y="171" on="0"/>
        <pt x="-22" y="-19" on="1"/>
      </contour>
    </TTGlyph>
    <TTGlyph name="sterling" xMin="-18" yMin="0" xMax="469" yMax="634">
      <contour>
        <pt x="70" y="14" on="1"/>
        <pt x="276" y="14" on="1"/>
        <pt x="317" y="14" on="1"/>
        <pt x="377" y="14" on="0"/>
        <pt x="431" y="35" on="0"/>
        <pt x="436" y="66" on="1"/>
        <pt x="444" y="123" on="1"/>
        <pt x="458" y="123" on="1"/>
        <pt x="453" y="86" on="1"/>
        <pt x="451" y="70" on="0"/>
        <pt x="444" y="39" on="0"/>
        <pt x="419" y="15" on="0"/>
        <pt x="369" y="0" on="0"/>
        <pt x="323" y="0" on="1"/>
        <pt x="-18" y="0" on="1"/>
        <pt x="-16" y="14" on="1"/>
        <pt x="27" y="14" on="1"/>
        <pt x="45" y="14" on="0"/>
        <pt x="68" y="29" on="0"/>
        <pt x="83" y="63" on="0"/>
        <pt x="94" y="121" on="0"/>
        <pt x="100" y="164" on="1"/>
        <pt x="121" y="311" on="1"/>
        <pt x="56" y="311" on="1"/>
        <pt x="58" y="325" on="1"/>
        <pt x="123" y="325" on="1"/>
        <pt x="147" y="500" on="1"/>
        <pt x="157" y="570" on="0"/>
        <pt x="253" y="634" on="0"/>
        <pt x="325" y="634" on="1"/>
        <pt x="358" y="634" on="0"/>
        <pt x="406" y="621" on="0"/>
        <pt x="440" y="598" on="0"/>
        <pt x="462" y="565" on="0"/>
        <pt x="469" y="545" on="1"/>
        <pt x="461" y="541" on="0"/>
        <pt x="458" y="539" on="1"/>
        <pt x="449" y="563" on="0"/>
        <pt x="426" y="594" on="0"/>
        <pt x="395" y="612" on="0"/>
        <pt x="353" y="620" on="0"/>
        <pt x="323" y="620" on="1"/>
        <pt x="281" y="620" on="0"/>
        <pt x="222" y="601" on="0"/>
        <pt x="184" y="569" on="0"/>
        <pt x="165" y="527" on="0"/>
        <pt x="162" y="504" on="1"/>
        <pt x="137" y="325" on="1"/>
        <pt x="266" y="325" on="1"/>
        <pt x="264" y="311" on="1"/>
        <pt x="135" y="311" on="1"/>
        <pt x="112" y="149" on="1"/>
        <pt x="106" y="109" on="1"/>
        <pt x="102" y="80" on="0"/>
        <pt x="86" y="28" on="0"/>
      </contour>
    </TTGlyph>
    <TTGlyph name="t" xMin="95" yMin="0" xMax="327" yMax="619">
      <contour>
        <pt x="221" y="619" on="1"/>
        <pt x="235" y="619" on="1"/>
        <pt x="200" y="367" on="1"/>
        <pt x="327" y="367" on="1"/>
        <pt x="325" y="353" on="1"/>
        <pt x="198" y="353" on="1"/>
        <pt x="149" y="0" on="1"/>
        <pt x="135" y="0" on="1"/>
        <pt x="184" y="353" on="1"/>
        <pt x="95" y="353" on="1"/>
        <pt x="97" y="367" on="1"/>
        <pt x="186" y="367" on="1"/>
      </contour>
    </TTGlyph>
    <TTGlyph name="thorn" xMin="-3" yMin="-250" xMax="453" yMax="750">
      <contour>
        <pt x="433" y="187" on="1"/>
        <pt x="438" y="224" on="0"/>
        <pt x="419" y="290" on="0"/>
        <pt x="377" y="339" on="0"/>
        <pt x="315" y="367" on="0"/>
        <pt x="278" y="367" on="1"/>
        <pt x="240" y="367" on="0"/>
        <pt x="171" y="339" on="0"/>
        <pt x="115" y="290" on="0"/>
        <pt x="77" y="224" on="0"/>
        <pt x="72" y="187" on="1"/>
        <pt x="67" y="149" on="0"/>
        <pt x="86" y="84" on="0"/>
        <pt x="128" y="34" on="0"/>
        <pt x="189" y="6" on="0"/>
        <pt x="227" y="6" on="1"/>
        <pt x="264" y="6" on="0"/>
        <pt x="334" y="34" on="0"/>
        <pt x="390" y="84" on="0"/>
        <pt x="428" y="149" on="0"/>
      </contour>
      <contour>
        <pt x="447" y="187" on="1"/>
        <pt x="441" y="146" on="0"/>
        <pt x="400" y="75" on="0"/>
        <pt x="340" y="23" on="0"/>
        <pt x="265" y="-8" on="0"/>
        <pt x="225" y="-8" on="1"/>
        <pt x="162" y="-8" on="0"/>
        <pt x="75" y="61" on="0"/>
        <pt x="62" y="115" on="1"/>
        <pt x="60" y="101" on="0"/>
        <pt x="57" y="75" on="0"/>
        <pt x="55" y="61" on="1"/>
        <pt x="11" y="-250" on="1"/>
        <pt x="-3" y="-250" on="1"/>
        <pt x="137" y="750" on="1"/>
        <pt x="151" y="750" on="1"/>
        <pt x="90" y="321" on="1"/>
        <pt x="88" y="305" on="0"/>
        <pt x="82" y="273" on="0"/>
        <pt x="80" y="257" on="1"/>
        <pt x="95" y="284" on="0"/>
        <pt x="137" y="330" on="0"/>
        <pt x="190" y="363" on="0"/>
        <pt x="249" y="381" on="0"/>
        <pt x="280" y="381" on="1"/>
        <pt x="320" y="381" on="0"/>
        <pt x="387" y="351" on="0"/>
        <pt x="432" y="298" on="0"/>
        <pt x="453" y="227" on="0"/>
      </contour>
    </TTGlyph>
    <TTGlyph name="three" xMin="56" yMin="-8" xMax="468" yMax="650">
      <contour>
        <pt x="183" y="361" on="1"/>
        <pt x="246" y="430" on="0"/>
        <pt x="371" y="567" on="0"/>
        <pt x="434" y="636" on="1"/>
        <pt x="147" y="636" on="1"/>
        <pt x="149" y="650" on="1"/>
        <pt x="468" y="650" on="1"/>
        <pt x="409" y="587" on="0"/>
        <pt x="292" y="461" on="0"/>
        <pt x="233" y="398" on="1"/>
        <pt x="279" y="400" on="0"/>
        <pt x="356" y="371" on="0"/>
        <pt x="409" y="317" on="0"/>
        <pt x="434" y="240" on="0"/>
        <pt x="428" y="195" on="1"/>
        <pt x="422" y="153" on="0"/>
        <pt x="379" y="79" on="0"/>
        <pt x="316" y="24" on="0"/>
        <pt x="237" y="-8" on="0"/>
        <pt x="195" y="-8" on="1"/>
        <pt x="150" y="-8" on="0"/>
        <pt x="79" y="28" on="0"/>
        <pt x="56" y="58" on="1"/>
        <pt x="58" y="61" on="0"/>
        <pt x="65" y="68" on="0"/>
        <pt x="67" y="71" on="1"/>
        <pt x="87" y="42" on="0"/>
        <pt x="152" y="6" on="0"/>
        <pt x="194" y="6" on="1"/>
        <pt x="233" y="6" on="0"/>
        <pt x="308" y="36" on="0"/>
        <pt x="368" y="88" on="0"/>
        <pt x="408" y="157" on="0"/>
        <pt x="414" y="195" on="1"/>
        <pt x="420" y="234" on="0"/>
        <pt x="398" y="303" on="0"/>
        <pt x="353" y="354" on="0"/>
        <pt x="286" y="384" on="0"/>
        <pt x="247" y="384" on="1"/>
        <pt x="231" y="384" on="0"/>
        <pt x="198" y="372" on="0"/>
      </contour>
    </TTGlyph>
    <TTGlyph name="threequarters" xMin="125" yMin="-19" xMax="1031" yMax="736">
      <component glyphName="three" x="82" y="206" scalex="0.7705078125" scaley="0.772033691406" flags="0x4"/>
      <component glyphName="slash" x="443" y="0" flags="0x4"/>
      <component glyphName="four" x="672" y="0" scalex="0.7451171875" scaley="0.744689941406" flags="0x4"/>
    </TTGlyph>
    <TTGlyph name="threesuperior" xMin="75" yMin="376" xMax="278" yMax="701">
      <component glyphName="three" x="48" y="380" scalex="0.490295410156" scaley="0.492431640625" flags="0x4"/>
    </TTGlyph>
    <TTGlyph name="two" xMin="6" yMin="0" xMax="427" yMax="658">
      <contour>
        <pt x="44" y="14" on="1"/>
        <pt x="404" y="14" on="1"/>
        <pt x="402" y="0" on="1"/>
        <pt x="6" y="0" on="1"/>
        <pt x="79" y="62" on="0"/>
        <pt x="217" y="183" on="0"/>
        <pt x="327" y="298" on="0"/>
        <pt x="399" y="405" on="0"/>
        <pt x="406" y="452" on="1"/>
        <pt x="414" y="508" on="0"/>
        <pt x="393" y="582" on="0"/>
        <pt x="351" y="626" on="0"/>
        <pt x="297" y="644" on="0"/>
        <pt x="272" y="644" on="1"/>
        <pt x="222" y="644" on="0"/>
        <pt x="154" y="609" on="0"/>
        <pt x="110" y="556" on="0"/>
        <pt x="87" y="495" on="0"/>
        <pt x="83" y="469" on="1"/>
        <pt x="73" y="399" on="0"/>
        <pt x="107" y="355" on="1"/>
        <pt x="105" y="353" on="0"/>
        <pt x="99" y="349" on="0"/>
        <pt x="97" y="347" on="1"/>
        <pt x="80" y="371" on="0"/>
        <pt x="64" y="428" on="0"/>
        <pt x="69" y="469" on="1"/>
        <pt x="75" y="509" on="0"/>
        <pt x="108" y="578" on="0"/>
        <pt x="160" y="629" on="0"/>
        <pt x="231" y="658" on="0"/>
        <pt x="274" y="658" on="1"/>
        <pt x="313" y="658" on="0"/>
        <pt x="373" y="629" on="0"/>
        <pt x="412" y="577" on="0"/>
        <pt x="427" y="506" on="0"/>
        <pt x="421" y="464" on="1"/>
        <pt x="413" y="406" on="0"/>
        <pt x="338" y="291" on="0"/>
        <pt x="230" y="179" on="0"/>
        <pt x="104" y="68" on="0"/>
      </contour>
    </TTGlyph>
    <TTGlyph name="twosuperior" xMin="78" yMin="375" xMax="288" yMax="700">
      <component glyphName="two" x="76" y="375" scalex="0.495422363281" scaley="0.493896484375" flags="0x4"/>
    </TTGlyph>
    <TTGlyph name="u" xMin="126" yMin="-7" xMax="461" yMax="375">
      <contour>
        <pt x="409" y="0" on="1"/>
        <pt x="395" y="0" on="1"/>
        <pt x="402" y="53" on="1"/>
        <pt x="411" y="98" on="1"/>
        <pt x="384" y="50" on="0"/>
        <pt x="288" y="-7" on="0"/>
        <pt x="232" y="-7" on="1"/>
        <pt x="179" y="-7" on="0"/>
        <pt x="126" y="55" on="0"/>
        <pt x="131" y="105" on="1"/>
        <pt x="169" y="375" on="1"/>
        <pt x="183" y="375" on="1"/>
        <pt x="144" y="98" on="1"/>
        <pt x="141" y="62" on="0"/>
        <pt x="183" y="9" on="0"/>
        <pt x="226" y="7" on="1"/>
        <pt x="260" y="7" on="0"/>
        <pt x="324" y="29" on="0"/>
        <pt x="376" y="68" on="0"/>
        <pt x="411" y="123" on="0"/>
        <pt x="416" y="155" on="1"/>
        <pt x="447" y="375" on="1"/>
        <pt x="461" y="375" on="1"/>
      </contour>
    </TTGlyph>
    <TTGlyph name="uacute" xMin="126" yMin="-7" xMax="461" yMax="612">
      <component glyphName="u" x="0" y="0" flags="0x204"/>
      <component glyphName="acute" x="204" y="0" flags="0x4"/>
    </TTGlyph>
    <TTGlyph name="ucircumflex" xMin="126" yMin="-7" xMax="461" yMax="660">
      <component glyphName="u" x="0" y="0" flags="0x204"/>
      <component glyphName="asciicircum" x="106" y="0" flags="0x4"/>
    </TTGlyph>
    <TTGlyph name="udieresis" xMin="126" yMin="-7" xMax="461" yMax="520">
      <component glyphName="u" x="0" y="0" flags="0x204"/>
      <component glyphName="dieresis" x="141" y="0" flags="0x4"/>
    </TTGlyph>
    <TTGlyph name="ugrave" xMin="126" yMin="-7" xMax="461" yMax="612">
      <component glyphName="u" x="0" y="0" flags="0x204"/>
      <component glyphName="grave" x="255" y="0" flags="0x4"/>
    </TTGlyph>
    <TTGlyph name="underscore" xMin="99" yMin="0" xMax="500" yMax="14">
      <contour>
        <pt x="499" y="0" on="1"/>
        <pt x="99" y="0" on="1"/>
        <pt x="100" y="14" on="1"/>
        <pt x="500" y="14" on="1"/>
      </contour>
    </TTGlyph>
    <TTGlyph name="v" xMin="106" yMin="-23" xMax="502" yMax="375">
      <contour>
        <pt x="248" y="-23" on="1"/>
        <pt x="213" y="77" on="0"/>
        <pt x="142" y="275" on="0"/>
        <pt x="106" y="375" on="1"/>
        <pt x="121" y="375" on="1"/>
        <pt x="154" y="284" on="0"/>
        <pt x="220" y="100" on="0"/>
        <pt x="253" y="8" on="1"/>
        <pt x="312" y="100" on="0"/>
        <pt x="428" y="283" on="0"/>
        <pt x="487" y="375" on="1"/>
        <pt x="502" y="375" on="1"/>
        <pt x="439" y="275" on="0"/>
        <pt x="312" y="77" on="0"/>
      </contour>
    </TTGlyph>
    <TTGlyph name="w" xMin="109" yMin="-23" xMax="777" yMax="375">
      <contour>
        <pt x="420" y="266" on="1"/>
        <pt x="410" y="293" on="0"/>
        <pt x="391" y="348" on="0"/>
        <pt x="381" y="375" on="1"/>
        <pt x="396" y="375" on="1"/>
        <pt x="428" y="283" on="0"/>
        <pt x="495" y="99" on="0"/>
        <pt x="528" y="8" on="1"/>
        <pt x="587" y="100" on="0"/>
        <pt x="703" y="283" on="0"/>
        <pt x="762" y="375" on="1"/>
        <pt x="777" y="375" on="1"/>
        <pt x="714" y="275" on="0"/>
        <pt x="587" y="77" on="0"/>
        <pt x="523" y="-23" on="1"/>
        <pt x="499" y="46" on="0"/>
        <pt x="450" y="182" on="0"/>
        <pt x="426" y="251" on="1"/>
        <pt x="382" y="182" on="0"/>
        <pt x="295" y="46" on="0"/>
        <pt x="251" y="-23" on="1"/>
        <pt x="216" y="77" on="0"/>
        <pt x="145" y="275" on="0"/>
        <pt x="109" y="375" on="1"/>
        <pt x="124" y="375" on="1"/>
        <pt x="156" y="283" on="0"/>
        <pt x="223" y="99" on="0"/>
        <pt x="256" y="8" on="1"/>
        <pt x="298" y="73" on="0"/>
        <pt x="378" y="201" on="0"/>
      </contour>
    </TTGlyph>
    <TTGlyph name="x" xMin="46" yMin="0" xMax="384" yMax="375">
      <contour>
        <pt x="206" y="187" on="1"/>
        <pt x="178" y="235" on="0"/>
        <pt x="122" y="327" on="0"/>
        <pt x="94" y="375" on="1"/>
        <pt x="112" y="375" on="1"/>
        <pt x="138" y="330" on="0"/>
        <pt x="190" y="243" on="0"/>
        <pt x="216" y="198" on="1"/>
        <pt x="254" y="243" on="0"/>
        <pt x="329" y="329" on="0"/>
        <pt x="367" y="374" on="1"/>
        <pt x="384" y="374" on="1"/>
        <pt x="343" y="326" on="0"/>
        <pt x="263" y="234" on="0"/>
        <pt x="223" y="186" on="1"/>
        <pt x="251" y="139" on="0"/>
        <pt x="305" y="47" on="0"/>
        <pt x="334" y="0" on="1"/>
        <pt x="318" y="0" on="1"/>
        <pt x="292" y="44" on="0"/>
        <pt x="239" y="131" on="0"/>
        <pt x="213" y="175" on="1"/>
        <pt x="175" y="131" on="0"/>
        <pt x="102" y="44" on="0"/>
        <pt x="64" y="0" on="1"/>
        <pt x="46" y="0" on="1"/>
        <pt x="86" y="47" on="0"/>
        <pt x="165" y="140" on="0"/>
      </contour>
    </TTGlyph>
    <TTGlyph name="y" xMin="76" yMin="-250" xMax="494" yMax="375">
      <contour>
        <pt x="95" y="-250" on="1"/>
        <pt x="76" y="-250" on="1"/>
        <pt x="116" y="-188" on="0"/>
        <pt x="194" y="-66" on="0"/>
        <pt x="234" y="-4" on="1"/>
        <pt x="200" y="91" on="0"/>
        <pt x="132" y="280" on="0"/>
        <pt x="98" y="375" on="1"/>
        <pt x="116" y="375" on="1"/>
        <pt x="148" y="284" on="0"/>
        <pt x="213" y="105" on="0"/>
        <pt x="245" y="14" on="1"/>
        <pt x="303" y="105" on="0"/>
        <pt x="418" y="284" on="0"/>
        <pt x="476" y="375" on="1"/>
        <pt x="494" y="375" on="1"/>
        <pt x="394" y="218" on="0"/>
        <pt x="196" y="-93" on="0"/>
      </contour>
    </TTGlyph>
    <TTGlyph name="yacute" xMin="76" yMin="-250" xMax="494" yMax="612">
      <component glyphName="y" x="0" y="0" flags="0x4"/>
      <component glyphName="acute" x="205" y="0" flags="0x4"/>
    </TTGlyph>
    <TTGlyph name="ydieresis" xMin="76" yMin="-250" xMax="494" yMax="520">
      <component glyphName="y" x="0" y="0" flags="0x4"/>
      <component glyphName="dieresis" x="124" y="0" flags="0x4"/>
    </TTGlyph>
    <TTGlyph name="yen" xMin="97" yMin="0" xMax="636" yMax="700">
      <contour>
        <pt x="449" y="114" on="1"/>
        <pt x="447" y="100" on="1"/>
        <pt x="289" y="100" on="1"/>
        <pt x="275" y="0" on="1"/>
        <pt x="261" y="0" on="1"/>
        <pt x="275" y="100" on="1"/>
        <pt x="114" y="100" on="1"/>
        <pt x="116" y="114" on="1"/>
        <pt x="277" y="114" on="1"/>
        <pt x="298" y="263" on="1"/>
        <pt x="137" y="263" on="1"/>
        <pt x="139" y="277" on="1"/>
        <pt x="291" y="277" on="1"/>
        <pt x="242" y="383" on="0"/>
        <pt x="146" y="594" on="0"/>
        <pt x="97" y="700" on="1"/>
        <pt x="114" y="700" on="1"/>
        <pt x="160" y="599" on="0"/>
        <pt x="252" y="399" on="0"/>
        <pt x="298" y="298" on="1"/>
        <pt x="300" y="291" on="0"/>
        <pt x="305" y="279" on="0"/>
        <pt x="307" y="272" on="1"/>
        <pt x="308" y="272" on="1"/>
        <pt x="312" y="279" on="0"/>
        <pt x="318" y="291" on="0"/>
        <pt x="322" y="298" on="1"/>
        <pt x="619" y="700" on="1"/>
        <pt x="636" y="700" on="1"/>
        <pt x="557" y="594" on="0"/>
        <pt x="401" y="383" on="0"/>
        <pt x="322" y="277" on="1"/>
        <pt x="472" y="277" on="1"/>
        <pt x="470" y="263" on="1"/>
        <pt x="312" y="263" on="1"/>
        <pt x="291" y="114" on="1"/>
      </contour>
    </TTGlyph>
    <TTGlyph name="z" xMin="42" yMin="0" xMax="436" yMax="410">
      <contour>
        <pt x="163" y="375" on="1"/>
        <pt x="436" y="375" on="1"/>
        <pt x="434" y="361" on="1"/>
        <pt x="338" y="273" on="0"/>
        <pt x="158" y="102" on="0"/>
        <pt x="61" y="14" on="1"/>
        <pt x="402" y="14" on="1"/>
        <pt x="401" y="0" on="1"/>
        <pt x="42" y="0" on="1"/>
        <pt x="43" y="14" on="1"/>
        <pt x="140" y="102" on="0"/>
        <pt x="320" y="273" on="0"/>
        <pt x="416" y="361" on="1"/>
        <pt x="175" y="361" on="1"/>
        <pt x="144" y="361" on="0"/>
        <pt x="117" y="377" on="0"/>
        <pt x="122" y="406" on="1"/>
        <pt x="122" y="410" on="1"/>
        <pt x="138" y="410" on="1"/>
        <pt x="136" y="398" on="1"/>
        <pt x="135" y="389" on="0"/>
        <pt x="146" y="375" on="0"/>
      </contour>
    </TTGlyph>
    <TTGlyph name="zero" xMin="26" yMin="-7" xMax="579" yMax="658">
      <contour>
        <pt x="36" y="327" on="1"/>
        <pt x="43" y="375" on="0"/>
        <pt x="88" y="490" on="0"/>
        <pt x="166" y="591" on="0"/>
        <pt x="279" y="658" on="0"/>
        <pt x="354" y="658" on="1"/>
        <pt x="428" y="658" on="0"/>
        <pt x="520" y="589" on="0"/>
        <pt x="568" y="488" on="0"/>
        <pt x="579" y="372" on="0"/>
        <pt x="572" y="324" on="1"/>
        <pt x="562" y="255" on="0"/>
        <pt x="501" y="134" on="0"/>
        <pt x="415" y="44" on="0"/>
        <pt x="309" y="-7" on="0"/>
        <pt x="254" y="-7" on="1"/>
        <pt x="199" y="-7" on="0"/>
        <pt x="110" y="46" on="0"/>
        <pt x="50" y="136" on="0"/>
        <pt x="26" y="257" on="0"/>
      </contour>
      <contour>
        <pt x="51" y="328" on="1"/>
        <pt x="40" y="255" on="0"/>
        <pt x="66" y="137" on="0"/>
        <pt x="125" y="53" on="0"/>
        <pt x="210" y="7" on="0"/>
        <pt x="258" y="7" on="1"/>
        <pt x="306" y="7" on="0"/>
        <pt x="404" y="51" on="0"/>
        <pt x="487" y="133" on="0"/>
        <pt x="547" y="251" on="0"/>
        <pt x="558" y="323" on="1"/>
        <pt x="569" y="396" on="0"/>
        <pt x="547" y="515" on="0"/>
        <pt x="491" y="598" on="0"/>
        <pt x="405" y="644" on="0"/>
        <pt x="351" y="644" on="1"/>
        <pt x="297" y="644" on="0"/>
        <pt x="198" y="601" on="0"/>
        <pt x="118" y="518" on="0"/>
        <pt x="61" y="401" on="0"/>
      </contour>
    </TTGlyph>
</ttFont>
